%TF.GenerationSoftware,KiCad,Pcbnew,(6.0.6)*%
%TF.CreationDate,2022-10-10T12:51:25+02:00*%
%TF.ProjectId,startrckr_pcb,73746172-7472-4636-9b72-5f7063622e6b,rev?*%
%TF.SameCoordinates,Original*%
%TF.FileFunction,Soldermask,Top*%
%TF.FilePolarity,Negative*%
%FSLAX46Y46*%
G04 Gerber Fmt 4.6, Leading zero omitted, Abs format (unit mm)*
G04 Created by KiCad (PCBNEW (6.0.6)) date 2022-10-10 12:51:25*
%MOMM*%
%LPD*%
G01*
G04 APERTURE LIST*
G04 Aperture macros list*
%AMRoundRect*
0 Rectangle with rounded corners*
0 $1 Rounding radius*
0 $2 $3 $4 $5 $6 $7 $8 $9 X,Y pos of 4 corners*
0 Add a 4 corners polygon primitive as box body*
4,1,4,$2,$3,$4,$5,$6,$7,$8,$9,$2,$3,0*
0 Add four circle primitives for the rounded corners*
1,1,$1+$1,$2,$3*
1,1,$1+$1,$4,$5*
1,1,$1+$1,$6,$7*
1,1,$1+$1,$8,$9*
0 Add four rect primitives between the rounded corners*
20,1,$1+$1,$2,$3,$4,$5,0*
20,1,$1+$1,$4,$5,$6,$7,0*
20,1,$1+$1,$6,$7,$8,$9,0*
20,1,$1+$1,$8,$9,$2,$3,0*%
G04 Aperture macros list end*
%ADD10R,1.700000X1.700000*%
%ADD11O,1.700000X1.700000*%
%ADD12RoundRect,0.237500X-0.300000X-0.237500X0.300000X-0.237500X0.300000X0.237500X-0.300000X0.237500X0*%
%ADD13RoundRect,0.237500X-0.237500X0.250000X-0.237500X-0.250000X0.237500X-0.250000X0.237500X0.250000X0*%
%ADD14RoundRect,0.237500X-0.250000X-0.237500X0.250000X-0.237500X0.250000X0.237500X-0.250000X0.237500X0*%
%ADD15RoundRect,0.237500X-0.237500X0.300000X-0.237500X-0.300000X0.237500X-0.300000X0.237500X0.300000X0*%
%ADD16RoundRect,0.050000X-0.387500X-0.050000X0.387500X-0.050000X0.387500X0.050000X-0.387500X0.050000X0*%
%ADD17RoundRect,0.050000X-0.050000X-0.387500X0.050000X-0.387500X0.050000X0.387500X-0.050000X0.387500X0*%
%ADD18R,3.200000X3.200000*%
%ADD19RoundRect,0.250000X-0.325000X-0.450000X0.325000X-0.450000X0.325000X0.450000X-0.325000X0.450000X0*%
%ADD20RoundRect,0.237500X0.237500X-0.300000X0.237500X0.300000X-0.237500X0.300000X-0.237500X-0.300000X0*%
%ADD21R,1.500000X2.000000*%
%ADD22R,3.800000X2.000000*%
%ADD23RoundRect,0.237500X0.237500X-0.250000X0.237500X0.250000X-0.237500X0.250000X-0.237500X-0.250000X0*%
%ADD24RoundRect,0.250000X0.725000X-0.600000X0.725000X0.600000X-0.725000X0.600000X-0.725000X-0.600000X0*%
%ADD25O,1.950000X1.700000*%
%ADD26R,2.000000X2.400000*%
%ADD27R,3.000000X3.000000*%
%ADD28C,3.000000*%
%ADD29RoundRect,0.150000X-0.650000X-0.150000X0.650000X-0.150000X0.650000X0.150000X-0.650000X0.150000X0*%
%ADD30R,0.800000X1.500000*%
%ADD31R,1.450000X2.000000*%
%ADD32RoundRect,0.237500X0.300000X0.237500X-0.300000X0.237500X-0.300000X-0.237500X0.300000X-0.237500X0*%
%ADD33C,1.700000*%
%ADD34C,4.000000*%
%ADD35R,1.600000X1.600000*%
%ADD36O,1.600000X1.600000*%
%ADD37R,2.000000X2.000000*%
%ADD38C,2.000000*%
G04 APERTURE END LIST*
D10*
%TO.C,J8*%
X189929056Y-115387290D03*
D11*
X189929056Y-117927290D03*
%TD*%
D12*
%TO.C,C3*%
X180536288Y-75207752D03*
X182261288Y-75207752D03*
%TD*%
D13*
%TO.C,R9*%
X192768015Y-86722869D03*
X192768015Y-88547869D03*
%TD*%
D12*
%TO.C,C8*%
X194969729Y-88724163D03*
X196694729Y-88724163D03*
%TD*%
%TO.C,C6*%
X194969729Y-87118106D03*
X196694729Y-87118106D03*
%TD*%
D14*
%TO.C,R4*%
X167330484Y-98361362D03*
X169155484Y-98361362D03*
%TD*%
D15*
%TO.C,C15*%
X181846159Y-101518990D03*
X181846159Y-103243990D03*
%TD*%
D16*
%TO.C,U1*%
X185528938Y-94491022D03*
X185528938Y-94891022D03*
X185528938Y-95291022D03*
X185528938Y-95691022D03*
X185528938Y-96091022D03*
X185528938Y-96491022D03*
X185528938Y-96891022D03*
X185528938Y-97291022D03*
X185528938Y-97691022D03*
X185528938Y-98091022D03*
X185528938Y-98491022D03*
X185528938Y-98891022D03*
X185528938Y-99291022D03*
X185528938Y-99691022D03*
D17*
X186366438Y-100528522D03*
X186766438Y-100528522D03*
X187166438Y-100528522D03*
X187566438Y-100528522D03*
X187966438Y-100528522D03*
X188366438Y-100528522D03*
X188766438Y-100528522D03*
X189166438Y-100528522D03*
X189566438Y-100528522D03*
X189966438Y-100528522D03*
X190366438Y-100528522D03*
X190766438Y-100528522D03*
X191166438Y-100528522D03*
X191566438Y-100528522D03*
D16*
X192403938Y-99691022D03*
X192403938Y-99291022D03*
X192403938Y-98891022D03*
X192403938Y-98491022D03*
X192403938Y-98091022D03*
X192403938Y-97691022D03*
X192403938Y-97291022D03*
X192403938Y-96891022D03*
X192403938Y-96491022D03*
X192403938Y-96091022D03*
X192403938Y-95691022D03*
X192403938Y-95291022D03*
X192403938Y-94891022D03*
X192403938Y-94491022D03*
D17*
X191566438Y-93653522D03*
X191166438Y-93653522D03*
X190766438Y-93653522D03*
X190366438Y-93653522D03*
X189966438Y-93653522D03*
X189566438Y-93653522D03*
X189166438Y-93653522D03*
X188766438Y-93653522D03*
X188366438Y-93653522D03*
X187966438Y-93653522D03*
X187566438Y-93653522D03*
X187166438Y-93653522D03*
X186766438Y-93653522D03*
X186366438Y-93653522D03*
D18*
X188966438Y-97091022D03*
%TD*%
D10*
%TO.C,J7*%
X185939838Y-115387290D03*
D11*
X185939838Y-117927290D03*
%TD*%
D15*
%TO.C,C12*%
X183586785Y-101518990D03*
X183586785Y-103243990D03*
%TD*%
D19*
%TO.C,D2*%
X162199138Y-102369165D03*
X164249138Y-102369165D03*
%TD*%
D14*
%TO.C,R12*%
X180452997Y-80219237D03*
X182277997Y-80219237D03*
%TD*%
D20*
%TO.C,C5*%
X193375247Y-109607782D03*
X193375247Y-107882782D03*
%TD*%
D14*
%TO.C,R11*%
X174846293Y-82608179D03*
X176671293Y-82608179D03*
%TD*%
D20*
%TO.C,C4*%
X184104057Y-109547192D03*
X184104057Y-107822192D03*
%TD*%
D21*
%TO.C,U2*%
X177699461Y-72448786D03*
D22*
X179999461Y-66148786D03*
D21*
X179999461Y-72448786D03*
X182299461Y-72448786D03*
%TD*%
D14*
%TO.C,R7*%
X171726981Y-106419691D03*
X173551981Y-106419691D03*
%TD*%
D23*
%TO.C,R10*%
X189409240Y-105629305D03*
X189409240Y-103804305D03*
%TD*%
D15*
%TO.C,C17*%
X178364909Y-101518990D03*
X178364909Y-103243990D03*
%TD*%
D14*
%TO.C,R6*%
X167330484Y-106471884D03*
X169155484Y-106471884D03*
%TD*%
D13*
%TO.C,R8*%
X190851833Y-86712502D03*
X190851833Y-88537502D03*
%TD*%
D10*
%TO.C,J5*%
X171902643Y-85602301D03*
D11*
X171902643Y-83062301D03*
%TD*%
D24*
%TO.C,J10*%
X228014114Y-114818165D03*
D25*
X228014114Y-112318165D03*
X228014114Y-109818165D03*
X228014114Y-107318165D03*
%TD*%
D26*
%TO.C,Y1*%
X190602429Y-108716144D03*
X186902429Y-108716144D03*
%TD*%
D27*
%TO.C,J4*%
X229866490Y-63704601D03*
D28*
X224786490Y-63704601D03*
%TD*%
D15*
%TO.C,C13*%
X180105534Y-101518990D03*
X180105534Y-103243990D03*
%TD*%
D10*
%TO.C,J6*%
X181950621Y-115387290D03*
D11*
X181950621Y-117927290D03*
%TD*%
D24*
%TO.C,J2*%
X228014114Y-80026201D03*
D25*
X228014114Y-77526201D03*
X228014114Y-75026201D03*
X228014114Y-72526201D03*
%TD*%
D29*
%TO.C,U3*%
X179713439Y-83189344D03*
X179713439Y-84459344D03*
X179713439Y-85729344D03*
X179713439Y-86999344D03*
X186913439Y-86999344D03*
X186913439Y-85729344D03*
X186913439Y-84459344D03*
X186913439Y-83189344D03*
%TD*%
D30*
%TO.C,J3*%
X162895000Y-64539385D03*
X163995000Y-64539385D03*
X165095000Y-64539385D03*
X166195000Y-64539385D03*
X167295000Y-64539385D03*
X168395000Y-64539385D03*
X169495000Y-64539385D03*
X170595000Y-64539385D03*
D31*
X172970000Y-70239385D03*
X172970000Y-61939385D03*
X159220000Y-70239385D03*
X159220000Y-61939385D03*
%TD*%
D12*
%TO.C,C16*%
X194969729Y-93647090D03*
X196694729Y-93647090D03*
%TD*%
%TO.C,C14*%
X194969729Y-91986483D03*
X196694729Y-91986483D03*
%TD*%
%TO.C,C9*%
X184528842Y-80226700D03*
X186253842Y-80226700D03*
%TD*%
D19*
%TO.C,D1*%
X162199138Y-98364165D03*
X164249138Y-98364165D03*
%TD*%
D32*
%TO.C,C1*%
X182246920Y-78515686D03*
X180521920Y-78515686D03*
%TD*%
D33*
%TO.C,J1*%
X192474706Y-71470124D03*
X194974706Y-71470124D03*
X195014706Y-69470124D03*
X192474706Y-69470124D03*
D34*
X199824706Y-66970124D03*
X187624706Y-66970124D03*
%TD*%
D35*
%TO.C,A2*%
X219502645Y-102478942D03*
D36*
X219502645Y-99938942D03*
X219502645Y-97398942D03*
X219502645Y-94858942D03*
X219502645Y-92318942D03*
X219502645Y-89778942D03*
X219502645Y-87238942D03*
X219502645Y-84698942D03*
X206802645Y-84698942D03*
X206802645Y-87238942D03*
X206802645Y-89778942D03*
X206802645Y-92318942D03*
X206802645Y-94858942D03*
X206802645Y-97398942D03*
X206802645Y-99938942D03*
X206802645Y-102478942D03*
%TD*%
D32*
%TO.C,C7*%
X182059810Y-93450343D03*
X180334810Y-93450343D03*
%TD*%
D12*
%TO.C,C10*%
X194969729Y-90337528D03*
X196694729Y-90337528D03*
%TD*%
D35*
%TO.C,A3*%
X219502645Y-126166442D03*
D36*
X219502645Y-123626442D03*
X219502645Y-121086442D03*
X219502645Y-118546442D03*
X219502645Y-116006442D03*
X219502645Y-113466442D03*
X219502645Y-110926442D03*
X219502645Y-108386442D03*
X206802645Y-108386442D03*
X206802645Y-110926442D03*
X206802645Y-113466442D03*
X206802645Y-116006442D03*
X206802645Y-118546442D03*
X206802645Y-121086442D03*
X206802645Y-123626442D03*
X206802645Y-126166442D03*
%TD*%
D19*
%TO.C,D3*%
X162199138Y-106374165D03*
X164249138Y-106374165D03*
%TD*%
D32*
%TO.C,C2*%
X182246612Y-76849016D03*
X180521612Y-76849016D03*
%TD*%
D24*
%TO.C,J9*%
X228014114Y-97269786D03*
D25*
X228014114Y-94769786D03*
X228014114Y-92269786D03*
X228014114Y-89769786D03*
%TD*%
D35*
%TO.C,A1*%
X219502645Y-78791442D03*
D36*
X219502645Y-76251442D03*
X219502645Y-73711442D03*
X219502645Y-71171442D03*
X219502645Y-68631442D03*
X219502645Y-66091442D03*
X219502645Y-63551442D03*
X219502645Y-61011442D03*
X206802645Y-61011442D03*
X206802645Y-63551442D03*
X206802645Y-66091442D03*
X206802645Y-68631442D03*
X206802645Y-71171442D03*
X206802645Y-73711442D03*
X206802645Y-76251442D03*
X206802645Y-78791442D03*
%TD*%
D37*
%TO.C,BZ1*%
X168655736Y-114467166D03*
D38*
X176255736Y-114467166D03*
%TD*%
D14*
%TO.C,R5*%
X167330484Y-102416623D03*
X169155484Y-102416623D03*
%TD*%
D12*
%TO.C,C11*%
X194969729Y-95292752D03*
X196694729Y-95292752D03*
%TD*%
M02*
