0
SECTION
2
HEADER
9
$INSUNITS
70
4
0
ENDSEC
0
SECTION
2
ENTITIES
0
CIRCLE
8
0
10
22.281692032865347
20
22.281692032865347
40
1.5
0
ARC
8
0
10
44.16064400405276
20
21.55135156000119
40
0.15
50
1.3570366640911133e-12
51
82.5685920288269
0
ARC
8
0
10
44.26891907848861
20
22.696134480766318
40
1
50
-114.37698324006291
51
-95.0988437761185
0
ARC
8
0
10
44.10438406573069
20
22.28169203286535
40
0.555
50
-179.99999999999963
51
-116.56505117707799
0
ARC
8
0
10
44.10438406573069
20
22.281692032865344
40
0.555
50
116.56505117707799
51
179.99999999999963
0
ARC
8
0
10
44.26891907848861
20
21.867249584964377
40
1
50
95.0988437761185
51
114.37698324006291
0
ARC
8
0
10
44.16064400405276
20
23.012032505729504
40
0.15
50
-82.5685920288269
51
-1.3570366640911133e-12
0
ARC
8
0
10
22.29504284187453
20
22.282291618389404
40
22.027692032865346
50
1.8984614707279959
51
3.2443956721286655
0
ARC
8
0
10
44.13803299097623
20
23.515505830256973
40
0.15
50
5.142857142858548
51
87.71144917168687
0
ARC
8
0
10
44.14325463193291
20
24.665385894387725
40
1
50
-109.23412609720611
51
-89.95598663326184
0
ARC
8
0
10
44.01653232337393
20
24.237863065103866
40
0.555
50
-174.85714285714212
51
-111.42219403422058
0
ARC
8
0
10
44.01653232337393
20
24.237863065103863
40
0.555
50
121.70790831993494
51
-174.8571428571425
0
ARC
8
0
10
44.217555301153084
20
23.83983784548807
40
1
50
100.24170091897545
51
119.51984038291984
0
ARC
8
0
10
44.00709856047273
20
24.970306503931027
40
0.15
50
-77.42573488597064
51
5.142857142858548
0
ARC
8
0
10
22.294935349010522
20
22.2834859619273
40
22.027692032865346
50
7.041318613585006
51
8.387252814985663
0
ARC
8
0
10
43.939447571825355
20
25.469726157286924
40
0.15
50
10.285714285715795
51
92.85430631454217
0
ARC
8
0
10
43.84157373772016
20
26.61544520662545
40
1
50
-104.09126895434835
51
-84.81312949040401
0
ARC
8
0
10
43.75368442687714
20
26.178284158400732
40
0.555
50
-169.71428571428547
51
-106.27933689136391
0
ARC
8
0
10
43.75368442687714
20
26.17828415840073
40
0.555
50
126.85076546279207
51
-169.71428571428584
0
ARC
8
0
10
43.989576850860054
20
25.79988083210343
40
1
50
105.38455806183288
51
124.66269752577718
0
ARC
8
0
10
43.67863291786457
20
26.90693335929124
40
0.15
50
-72.28287774311183
51
10.28571428571446
0
ARC
8
0
10
22.294721228751875
20
22.284665861803067
40
22.027692032865346
50
12.18417575644236
51
13.530109957843015
0
ARC
8
0
10
43.5664866396288
20
27.398278308080744
40
0.15
50
15.428571428570637
51
97.99716345739921
0
ARC
8
0
10
43.366305353025055
20
28.53061168651366
40
1
50
-98.94841181149069
51
-79.67027234754616
0
ARC
8
0
10
43.31795667295083
20
28.087332183061857
40
0.555
50
-164.57142857142867
51
-101.13647974850707
0
ARC
8
0
10
43.31795667295083
20
28.087332183061857
40
0.555
50
131.99362260564982
51
-164.57142857142867
0
ARC
8
0
10
43.58681927604208
20
27.731597431168833
40
1
50
110.52741520468999
51
129.80555466863422
0
ARC
8
0
10
43.177891688447886
20
28.80632049108893
40
0.15
50
-67.14002060025605
51
15.428571428570637
0
ARC
8
0
10
22.294402205068963
20
22.285821818156943
40
22.027692032865346
50
17.32703289929935
51
18.672967100700014
0
ARC
8
0
10
43.022153056515144
20
29.285634714690534
40
0.15
50
20.571428571428363
51
103.14002060025607
0
ARC
8
0
10
42.72127605942793
20
30.39546553965594
40
1
50
-93.80555466863467
51
-74.5274152046903
0
ARC
8
0
10
42.712857285265855
20
29.949636606894728
40
0.555
50
-159.4285714285713
51
-95.99362260564982
0
ARC
8
0
10
42.712857285265855
20
29.949636606894728
40
0.555
50
137.1364797485069
51
-159.4285714285713
0
ARC
8
0
10
43.01252534387401
20
29.61943459645958
40
1
50
115.67027234754678
51
134.94841181149135
0
ARC
8
0
10
42.50890654617089
20
30.65317515096041
40
0.15
50
-61.99716345739815
51
20.57142857142709
0
ARC
8
0
10
22.29398084655305
20
22.28694452390762
40
22.027692032865346
50
22.469890042157203
51
23.815824243557866
0
ARC
8
0
10
42.31082947643266
20
31.116599493077874
40
0.15
50
25.7142857142862
51
108.28287774311458
0
ARC
8
0
10
41.91167925352968
20
32.194992059343114
40
1
50
-88.66269752577675
51
-69.38455806183298
0
ARC
8
0
10
41.94325816829918
20
31.750203249695907
40
0.555
50
-154.2857142857143
51
-90.8507654627924
0
ARC
8
0
10
41.94325816829918
20
31.750203249695907
40
0.555
50
142.27933689136376
51
-154.2857142857143
0
ARC
8
0
10
42.27131893141831
20
31.448192573151033
40
1
50
120.81312949040534
51
140.09126895434937
0
ARC
8
0
10
41.67706376604229
20
32.43262755111735
40
0.15
50
-56.85430631454272
51
25.71428571428742
0
ARC
8
0
10
22.293460545734924
20
22.288024939689144
40
22.027692032865346
50
27.61274718501424
51
28.95868138641486
0
ARC
8
0
10
41.43824305859667
20
32.876430791437045
40
0.15
50
30.857142857142016
51
113.42573488597074
0
ARC
8
0
10
40.94403333277622
20
33.91470251614311
40
1
50
-83.51984038292032
51
-64.2417009189762
0
ARC
8
0
10
41.01535568162365
20
33.47453500757361
40
0.555
50
-149.1428571428572
51
-85.70790831993465
0
ARC
8
0
10
41.01535568162365
20
33.47453500757361
40
0.555
50
147.42219403422064
51
-149.1428571428572
0
ARC
8
0
10
41.3691677968857
20
33.20314727730712
40
1
50
125.95598663326142
51
145.23412609720538
0
ARC
8
0
10
40.68906085701204
20
34.13035058713475
40
0.15
50
-51.71144917168526
51
30.857142857142016
0
ARC
8
0
10
22.292845491770827
20
22.28905436662877
40
22.027692032865346
50
32.75560432787073
51
34.10153852927139
0
ARC
8
0
10
40.41141935577108
20
34.55095948291771
40
0.15
50
35.999999999998195
51
118.56859202883031
0
ARC
8
0
10
39.82612921315483
20
35.54075081263113
40
1
50
-78.37698324006168
51
-59.09884377611762
0
ARC
8
0
10
39.936620750464186
20
35.108748575104045
40
0.555
50
-144.0000000000008
51
-80.56505117707901
0
ARC
8
0
10
39.93662075046418
20
35.10874857510405
40
0.555
50
152.5650511770788
51
-143.99999999999977
0
ARC
8
0
10
40.31333553075521
20
34.87016884554666
40
1
50
131.09884377611843
51
150.37698324006257
0
ARC
8
0
10
39.55285263756736
20
35.732675191371584
40
0.15
50
-46.5685920288307
51
35.999999999998195
0
ARC
8
0
10
22.292140636714215
20
22.29002451638526
40
22.027692032865346
50
37.898461470729316
51
39.24439567212999
0
ARC
8
0
10
39.23862574864849
20
36.126703247102974
40
0.15
50
41.14285714285715
51
123.71144917168506
0
ARC
8
0
10
38.566967601319774
20
37.060044964024804
40
1
50
-73.23412609720445
51
-53.95598663326059
0
ARC
8
0
10
38.71573871420057
20
36.639686225543485
40
0.555
50
-138.8571428571428
51
-75.42219403422092
0
ARC
8
0
10
38.71573871420057
20
36.639686225543485
40
0.555
50
157.70790831993574
51
-138.8571428571428
0
ARC
8
0
10
39.11232307361439
20
36.43583540039499
40
1
50
136.24170091897565
51
155.5198403829201
0
ARC
8
0
10
38.27758718821159
20
37.22670038826613
40
0.15
50
-41.42573488596931
51
41.14285714285715
0
ARC
8
0
10
22.291351655642202
20
22.29092757788495
40
22.027692032865346
50
43.041318613584274
51
44.387252814984926
0
ARC
8
0
10
37.929304881761986
20
37.59097512172597
40
0.15
50
46.28571428571404
51
128.85430631454292
0
ARC
8
0
10
37.17668652619452
20
38.4603525071476
40
1
50
-68.09126895434873
51
-48.8131294904048
0
ARC
8
0
10
37.36253939712182
20
38.055021749107354
40
0.555
50
-133.71428571428575
51
-70.27933689136391
0
ARC
8
0
10
37.36253939712182
20
38.055021749107354
40
0.555
50
162.8507654627923
51
-133.71428571428575
0
ARC
8
0
10
37.77580027158427
20
37.88754111534951
40
1
50
141.38455806183273
51
160.6626975257772
0
ARC
8
0
10
36.87353219649903
20
38.60039716540562
40
0.15
50
-36.28287774311225
51
46.28571428571404
0
ARC
8
0
10
22.29048490096829
20
22.29175628020554
40
22.027692032865346
50
48.18417575644281
51
49.53010995784347
0
ARC
8
0
10
36.49399863686352
20
38.93198565063014
40
0.15
50
51.428571428571246
51
133.9971634573994
0
ARC
8
0
10
35.666479713523884
20
39.730398989029766
40
1
50
-62.948411811491304
51
-43.67027234754718
0
ARC
8
0
10
35.887917964460726
20
39.34335969636372
40
0.555
50
-128.5714285714292
51
-65.13647974850666
0
ARC
8
0
10
35.887917964460726
20
39.34335969636372
40
0.555
50
167.99362260564973
51
-128.5714285714292
0
ARC
8
0
10
36.31452802040407
20
39.2135977095825
40
1
50
146.52741520468902
51
165.80555466863365
0
ARC
8
0
10
35.35199228765195
20
39.84270532406111
40
0.15
50
-31.14002060025394
51
51.428571428571246
0
ARC
8
0
10
22.289547351289972
20
22.29250395112475
40
22.027692032865346
50
53.32703289929935
51
54.67296710070005
0
ARC
8
0
10
34.94426325589061
20
40.13893780553818
40
0.15
50
56.57142857143179
51
139.14002060025703
0
ARC
8
0
10
34.048506460576284
20
40.85995874217444
40
1
50
-57.805554668633874
51
-38.52741520468968
0
ARC
8
0
10
34.3037472009297
20
40.494327127691726
40
0.555
50
-123.42857142857086
51
-59.99362260564866
0
ARC
8
0
10
34.3037472009297
20
40.494327127691726
40
0.555
50
173.13647974850596
51
-123.42857142857086
0
ARC
8
0
10
34.74027162502615
20
40.40332855510591
40
1
50
151.670272347547
51
170.9484118114909
0
ARC
8
0
10
33.72521800636542
20
40.9436225294045
40
0.15
50
-25.99716345739851
51
56.57142857142953
0
ARC
8
0
10
22.28854655520668
20
22.29316457083532
40
22.027692032865346
50
58.46989004215639
51
59.81582424355702
0
ARC
8
0
10
33.29257629690122
20
41.20211391737512
40
0.15
50
61.714285714286085
51
144.2828777431137
0
ARC
8
0
10
32.335793736631615
20
41.83993721561968
40
1
50
-52.662697525776785
51
-33.38455806183241
0
ARC
8
0
10
32.622781918039415
20
41.498657130092205
40
0.555
50
-118.28571428571469
51
-54.85076546279286
0
ARC
8
0
10
32.62278191803941
20
41.498657130092205
40
0.555
50
178.27933689136415
51
-118.28571428571404
0
ARC
8
0
10
33.06570607229835
20
41.447154638701946
40
1
50
156.8131294904041
51
176.0912689543486
0
ARC
8
0
10
32.00630718262459
20
41.89428484342719
40
0.15
50
-20.85430631453927
51
61.714285714286085
0
ARC
8
0
10
22.287490570539816
20
22.29373282041592
40
22.027692032865346
50
63.61274718501317
51
64.95868138641384
0
ARC
8
0
10
31.5522361721129
20
42.11295391722591
40
0.15
50
66.85714285714272
51
149.42573488597023
0
ARC
8
0
10
30.54213129748427
20
42.66244419891532
40
1
50
-47.51984038291947
51
-28.241700918974953
0
ARC
8
0
10
30.858556259856073
20
42.34826342892231
40
0.555
50
-113.14285714285778
51
-49.70790831993581
0
ARC
8
0
10
30.85855625985607
20
42.348263428922316
40
0.555
50
-176.5778059657785
51
-113.14285714285715
0
ARC
8
0
10
31.304313979422577
20
42.336671686505305
40
1
50
161.95598663326106
51
-178.76587390279474
0
ARC
8
0
10
30.209099475678997
20
42.68703809215706
40
0.15
50
-15.711449171683928
51
66.85714285714272
0
ARC
8
0
10
22.28638789945763
20
22.2942041246548
40
22.027692032865346
50
68.75560432787154
51
70.10153852927218
0
ARC
8
0
10
29.737255076907047
20
42.86412425697697
40
0.15
50
71.99999999999956
51
154.56859202882595
0
ARC
8
0
10
28.681960658437866
20
43.32085734945814
40
1
50
-42.376983240062636
51
-23.09884377611838
0
ARC
8
0
10
29.025274734031505
20
43.036305493824266
40
0.555
50
-108.00000000000028
51
-44.56505117707808
0
ARC
8
0
10
29.025274734031505
20
43.036305493824266
40
0.555
50
-171.434948822922
51
-108.00000000000028
0
ARC
8
0
10
29.47027703984893
20
43.064717830274624
40
1
50
167.09884377611823
51
-173.62301675993774
0
ARC
8
0
10
28.348064945243973
20
43.31549949256669
40
0.15
50
-10.568592028826531
51
71.99999999999956
0
ARC
8
0
10
22.285247420018
20
22.29457468888788
40
22.027692032865346
50
73.89846147072772
51
75.24439567212838
0
ARC
8
0
10
27.862246171870652
20
43.44957695473366
40
0.15
50
77.1428571428572
51
159.7114491716859
0
ARC
8
0
10
26.770258819715345
20
43.80987551170061
40
1
50
-37.23412609720522
51
-17.95598663326094
0
ARC
8
0
10
27.137697845459567
20
43.55724361465367
40
0.555
50
-102.85714285714334
51
-39.42219403422159
0
ARC
8
0
10
27.137697845459563
20
43.55724361465367
40
0.555
50
-166.2920916800646
51
-102.857142857143
0
ARC
8
0
10
27.578361840618587
20
43.62543127054448
40
1
50
172.24170091897528
51
-168.48015961708043
0
ARC
8
0
10
26.438187547087978
20
43.77460904298931
40
0.15
50
-5.42573488596972
51
77.1428571428572
0
ARC
8
0
10
22.28407831469202
20
22.294841529549398
40
22.027692032865346
50
79.0413186135852
51
80.38725281498587
0
ARC
8
0
10
25.94230592621968
20
43.864598289614236
40
0.15
50
82.28571428571409
51
164.8543063145422
0
ARC
8
0
10
24.82241768045965
20
44.12556139893841
40
1
50
-32.09126895434821
51
-12.81312949040378
0
ARC
8
0
10
25.2110232533698
20
43.90688350396827
40
0.555
50
-97.71428571428608
51
-34.27933689136432
0
ARC
8
0
10
25.21102325336979
20
43.90688350396827
40
0.555
50
-161.14923453720706
51
-97.71428571428535
0
ARC
8
0
10
25.64380097048763
20
44.01429747238799
40
1
50
177.38455806183234
51
-163.33730247422318
0
ARC
8
0
10
24.49484449103125
20
44.06067026327697
40
0.15
50
-0.28287774311314035
51
82.28571428571409
0
ARC
8
0
10
22.282889996427432
20
22.295002498195466
40
22.027692032865346
50
84.18417575644149
51
85.53010995784216
0
ARC
8
0
10
23.992892569905532
20
44.10584675385884
40
0.15
50
87.4285714285712
51
169.99716345739964
0
ARC
8
0
10
22.85412011221201
20
44.26537329402779
40
1
50
-26.948411811491425
51
-7.670272347547207
0
ARC
8
0
10
23.260763408711384
20
44.082410066964215
40
0.555
50
-92.57142857142838
51
-29.136479748506602
0
ARC
8
0
10
23.260763408711387
20
44.08241006696421
40
0.555
50
-156.00637739435095
51
-92.57142857142878
0
ARC
8
0
10
23.68217037607897
20
44.22818551379752
40
1
50
-177.47258479531038
51
-158.1944453313662
0
ARC
8
0
10
22.53368243269394
20
44.17137995668517
40
0.15
50
4.85997939974204
51
87.42857142856985
0
ARC
8
0
10
22.281692032865326
20
22.29505629880106
40
22.027692032865346
50
89.32703289929961
51
90.67296710070028
0
ARC
8
0
10
22.029701633036765
20
44.17137995668517
40
0.15
50
92.57142857143016
51
175.14002060025797
0
ARC
8
0
10
20.881213689651734
20
44.22818551379753
40
1
50
-21.805554668634258
51
-2.527415204690033
0
ARC
8
0
10
21.302620657019315
20
44.08241006696421
40
0.555
50
-87.42857142857123
51
-23.993622605649037
0
ARC
8
0
10
21.302620657019318
20
44.082410066964215
40
0.555
50
-150.8635202514934
51
-87.42857142857163
0
ARC
8
0
10
21.709263953518693
20
44.26537329402779
40
1
50
-172.32972765245282
51
-153.0515881885086
0
ARC
8
0
10
20.57049149582517
20
44.10584675385884
40
0.15
50
10.002836542600377
51
92.57142857142881
0
ARC
8
0
10
22.28049406930294
20
22.295002498195437
40
22.027692032865346
50
94.46989004215699
51
95.81582424355764
0
ARC
8
0
10
20.06853957469945
20
44.060670263276975
40
0.15
50
97.71428571428592
51
-179.71712225688685
0
ARC
8
0
10
18.919583095243073
20
44.014297472387995
40
1
50
-16.66269752577685
51
2.6154419381676917
0
ARC
8
0
10
19.352360812360907
20
43.90688350396827
40
0.555
50
-82.2857142857143
51
-18.850765462792143
0
ARC
8
0
10
19.352360812360907
20
43.90688350396827
40
0.555
50
-145.7206631086365
51
-82.2857142857143
0
ARC
8
0
10
19.74096638527105
20
44.125561398938416
40
1
50
-167.18687050959625
51
-147.90873104565182
0
ARC
8
0
10
18.62107813951102
20
43.86459828961424
40
0.15
50
15.145693685457806
51
97.71428571428592
0
ARC
8
0
10
22.279305751038915
20
22.294841529549444
40
22.027692032865346
50
99.61274718501477
51
100.95868138641544
0
ARC
8
0
10
18.12519651864272
20
43.77460904298931
40
0.15
50
102.85714285714282
51
-174.57426511403028
0
ARC
8
0
10
16.98502222511211
20
43.62543127054448
40
1
50
-11.51984038291956
51
7.758299081024723
0
ARC
8
0
10
17.425686220271135
20
43.55724361465367
40
0.555
50
-77.14285714285701
51
-13.707908319935424
0
ARC
8
0
10
17.425686220271132
20
43.55724361465367
40
0.555
50
-140.57780596577842
51
-77.14285714285666
0
ARC
8
0
10
17.793125246015354
20
43.80987551170061
40
1
50
-162.04401336673905
51
-142.7658739027948
0
ARC
8
0
10
16.701137893860047
20
43.44957695473366
40
0.15
50
20.288550828314094
51
102.85714285714282
0
ARC
8
0
10
22.278136645712426
20
22.29457468888781
40
22.027692032865346
50
104.7556043278709
51
106.10153852927156
0
ARC
8
0
10
16.21531912048673
20
43.315499492566694
40
0.15
50
108.00000000000045
51
-169.43140797117348
0
ARC
8
0
10
15.09310702588177
20
43.06471783027463
40
1
50
-6.376983240062243
51
12.901156223881749
0
ARC
8
0
10
15.538109331699198
20
43.03630549382427
40
0.555
50
-72.00000000000007
51
-8.56505117707802
0
ARC
8
0
10
15.538109331699198
20
43.03630549382427
40
0.555
50
-135.43494882292205
51
-72.00000000000007
0
ARC
8
0
10
15.881423407292836
20
43.320857349458144
40
1
50
-156.90115622388166
51
-137.62301675993737
0
ARC
8
0
10
14.826128988823655
20
42.86412425697698
40
0.15
50
25.43140797117406
51
108.00000000000175
0
ARC
8
0
10
22.27699616627328
20
22.294204124654883
40
22.027692032865346
50
109.8984614707284
51
111.24439567212906
0
ARC
8
0
10
14.3542845900517
20
42.68703809215706
40
0.15
50
113.1428571428573
51
-164.2885508283159
0
ARC
8
0
10
13.259070086308121
20
42.33667168650531
40
1
50
-1.2341260972056802
51
18.044013366738547
0
ARC
8
0
10
13.70482780587463
20
42.348263428922316
40
0.555
50
-66.85714285714302
51
-3.4221940342215
0
ARC
8
0
10
13.704827805874624
20
42.34826342892231
40
0.555
50
-130.29209168006406
51
-66.85714285714222
0
ARC
8
0
10
14.021252768246429
20
42.66244419891532
40
1
50
-151.75829908102506
51
-132.4801596170806
0
ARC
8
0
10
13.011147893617801
20
42.11295391722591
40
0.15
50
30.57426511402979
51
113.1428571428573
0
ARC
8
0
10
22.27589349519062
20
22.293732820415794
40
22.027692032865346
50
115.04131861358542
51
116.38725281498606
0
ARC
8
0
10
12.557076883106117
20
41.894284843427194
40
0.15
50
118.28571428571571
51
-159.14569368546074
0
ARC
8
0
10
11.497677993432356
20
41.44715463870196
40
1
50
3.9087310456510047
51
23.186870509595494
0
ARC
8
0
10
11.940602147691292
20
41.498657130092205
40
0.555
50
-61.71428571428565
51
1.7206631086365796
0
ARC
8
0
10
11.940602147691298
20
41.498657130092205
40
0.555
50
-125.14923453720834
51
-61.71428571428613
0
ARC
8
0
10
12.227590329099094
20
41.839937215619685
40
1
50
-146.61544193816772
51
-127.33730247422349
0
ARC
8
0
10
11.27080776882949
20
41.20211391737513
40
0.15
50
35.71712225688672
51
118.28571428571512
0
ARC
8
0
10
22.27483751052401
20
22.293164570835316
40
22.027692032865346
50
120.18417575644293
51
121.5301099578436
0
ARC
8
0
10
10.838166059365275
20
40.9436225294045
40
0.15
50
123.42857142856991
51
-154.0028365426009
0
ARC
8
0
10
9.823112440704541
20
40.40332855510591
40
1
50
9.05158818850912
51
28.329727652453006
0
ARC
8
0
10
10.259636864800992
20
40.49432712769173
40
0.555
50
-56.57142857142868
51
6.863520251493273
0
ARC
8
0
10
10.25963686480099
20
40.49432712769173
40
0.555
50
-120.00637739435017
51
-56.571428571428534
0
ARC
8
0
10
10.514877605154414
20
40.85995874217444
40
1
50
-141.47258479531027
51
-122.19444533136614
0
ARC
8
0
10
9.619120809840089
20
40.13893780553818
40
0.15
50
40.85997939974298
51
123.42857142856991
0
ARC
8
0
10
22.273836714440538
20
22.29250395112462
40
22.027692032865346
50
125.32703289929935
51
126.67296710070003
0
ARC
8
0
10
9.211391778078754
20
39.84270532406112
40
0.15
50
128.57142857142932
51
-148.85997939974573
0
ARC
8
0
10
8.248856045326626
20
39.21359770958253
40
1
50
14.194445331365493
51
33.47258479530985
0
ARC
8
0
10
8.67546610126998
20
39.343359696363734
40
0.555
50
-51.42857142857169
51
12.006377394350354
0
ARC
8
0
10
8.675466101269983
20
39.343359696363734
40
0.555
50
-114.86352025149368
51
-51.42857142857197
0
ARC
8
0
10
8.896904352206821
20
39.73039898902977
40
1
50
-136.32972765245304
51
-117.05158818850889
0
ARC
8
0
10
8.069385428867184
20
38.93198565063015
40
0.15
50
46.00283654260062
51
128.5714285714285
0
ARC
8
0
10
22.27289916476239
20
22.29175628020553
40
22.027692032865346
50
130.46989004215644
51
131.8158242435571
0
ARC
8
0
10
7.689851869231677
20
38.60039716540563
40
0.15
50
133.71428571428524
51
-143.71712225688694
0
ARC
8
0
10
6.787583794146439
20
37.88754111534952
40
1
50
19.337302474222778
51
38.61544193816715
0
ARC
8
0
10
7.200844668608886
20
38.05502174910736
40
0.555
50
-46.28571428571436
51
17.149234537208407
0
ARC
8
0
10
7.200844668608891
20
38.05502174910737
40
0.555
50
-109.72066310863687
51
-46.285714285715265
0
ARC
8
0
10
7.3866975395361765
20
38.46035250714761
40
1
50
-131.1868705095951
51
-111.90873104565101
0
ARC
8
0
10
6.6340791839687165
20
37.59097512172598
40
0.15
50
51.14569368545734
51
133.71428571428473
0
ARC
8
0
10
22.272032410088258
20
22.290927577884705
40
22.027692032865346
50
135.61274718501414
51
136.95868138641484
0
ARC
8
0
10
6.285796877519106
20
37.226700388266146
40
0.15
50
138.85714285714286
51
-138.57426511403025
0
ARC
8
0
10
5.451060992116303
20
36.43583540039501
40
1
50
24.480159617079817
51
43.758299081024205
0
ARC
8
0
10
5.847645351530128
20
36.6396862255435
40
0.555
50
-41.14285714285707
51
22.292091680064235
0
ARC
8
0
10
5.847645351530126
20
36.6396862255435
40
0.555
50
-104.57780596577855
51
-41.14285714285695
0
ARC
8
0
10
5.996416464410914
20
37.06004496402482
40
1
50
-126.04401336673921
51
-106.76587390279492
0
ARC
8
0
10
5.324758317082208
20
36.12670324710299
40
0.15
50
56.28855082831578
51
138.85714285714286
0
ARC
8
0
10
22.271243429016714
20
22.29002451638556
40
22.027692032865346
50
140.755604327871
51
142.1015385292716
0
ARC
8
0
10
5.010531428163345
20
35.73267519137159
40
0.15
50
143.99999999999963
51
-133.43140797117263
0
ARC
8
0
10
4.25004853497549
20
34.87016884554667
40
1
50
29.623016759937403
51
48.90115622388153
0
ARC
8
0
10
4.626763315266523
20
35.10874857510406
40
0.555
50
-36.000000000000234
51
27.434948822921843
0
ARC
8
0
10
4.626763315266522
20
35.10874857510406
40
0.555
50
-99.43494882292173
51
-36.00000000000018
0
ARC
8
0
10
4.737254852575866
20
35.54075081263115
40
1
50
-120.9011562238821
51
-101.6230167599379
0
ARC
8
0
10
4.151964709959622
20
34.55095948291772
40
0.15
50
61.43140797117308
51
143.99999999999983
0
ARC
8
0
10
22.270538573959797
20
22.28905436662867
40
22.027692032865346
50
145.89846147072825
51
147.24439567212892
0
ARC
8
0
10
3.8743232087186676
20
34.13035058713477
40
0.15
50
149.14285714285833
51
-128.28855082831512
0
ARC
8
0
10
3.194216268845012
20
33.20314727730714
40
1
50
34.765873902794766
51
54.04401336673887
0
ARC
8
0
10
3.54802838410705
20
33.47453500757363
40
0.555
50
-30.85714285714351
51
32.57780596577927
0
ARC
8
0
10
3.54802838410705
20
33.47453500757363
40
0.555
50
-94.29209168006483
51
-30.85714285714351
0
ARC
8
0
10
3.619350732954483
20
33.91470251614313
40
1
50
-115.75829908102364
51
-96.48015961707951
0
ARC
8
0
10
3.125141007134041
20
32.876430791437066
40
0.15
50
66.57426511402974
51
149.14285714285842
0
ARC
8
0
10
22.269923519995654
20
22.288024939688928
40
22.027692032865346
50
151.04131861358442
51
152.38725281498506
0
ARC
8
0
10
2.886320299688415
20
32.43262755111737
40
0.15
50
154.28571428571294
51
-123.14569368545786
0
ARC
8
0
10
2.2920651343124074
20
31.448192573151047
40
1
50
39.908731045651244
51
59.18687050959553
0
ARC
8
0
10
2.620125897431525
20
31.75020324969593
40
0.555
50
-25.714285714285708
51
37.72066310863621
0
ARC
8
0
10
2.6201258974315245
20
31.75020324969593
40
0.555
50
-89.14923453720753
51
-25.714285714285687
0
ARC
8
0
10
2.651704812201021
20
32.194992059343136
40
1
50
-110.61544193816691
51
-91.33730247422278
0
ARC
8
0
10
2.2525545892980445
20
31.116599493077896
40
0.15
50
71.71712225688638
51
154.28571428571425
0
ARC
8
0
10
22.269403219177736
20
22.286944523907835
40
22.027692032865346
50
156.1841757564427
51
157.53010995784337
0
ARC
8
0
10
2.0544775195598093
20
30.65317515096042
40
0.15
50
159.42857142857147
51
-118.00283654260112
0
ARC
8
0
10
1.5508587218566883
20
29.619434596459588
40
1
50
45.05158818850881
51
64.32972765245302
0
ARC
8
0
10
1.8505267804648424
20
29.94963660689474
40
0.555
50
-20.571428571428665
51
42.86352025149305
0
ARC
8
0
10
1.8505267804648424
20
29.94963660689474
40
0.555
50
-84.00637739435031
51
-20.571428571428665
0
ARC
8
0
10
1.8421080063027684
20
30.39546553965595
40
1
50
-105.47258479530961
51
-86.19444533136542
0
ARC
8
0
10
1.5412310092155541
20
29.285634714690545
40
0.15
50
76.85997939974354
51
159.4285714285714
0
ARC
8
0
10
22.26898186066167
20
22.285821818156748
40
22.027692032865346
50
161.32703289929944
51
162.67296710070008
0
ARC
8
0
10
1.3854923772828078
20
28.80632049108894
40
0.15
50
164.57142857142918
51
-112.8599793997441
0
ARC
8
0
10
0.9765647896886158
20
27.731597431168844
40
1
50
50.19444533136581
51
69.47258479531006
0
ARC
8
0
10
1.2454273927798674
20
28.087332183061868
40
0.555
50
-15.428571428571718
51
48.00637739435032
0
ARC
8
0
10
1.2454273927798674
20
28.087332183061868
40
0.555
50
-78.86352025149334
51
-15.428571428571718
0
ARC
8
0
10
1.1970787127056366
20
28.53061168651367
40
1
50
-100.32972765245354
51
-81.05158818850934
0
ARC
8
0
10
0.9968974261018998
20
27.398278308080755
40
0.15
50
82.00283654260134
51
164.5714285714292
0
ARC
8
0
10
22.268662836978837
20
22.284665861803116
40
22.027692032865346
50
166.46989004215712
51
167.81582424355773
0
ARC
8
0
10
0.8847511478661372
20
26.906933359291262
40
0.15
50
169.71428571428572
51
-107.71712225688698
0
ARC
8
0
10
0.5738072148706539
20
25.79988083210345
40
1
50
55.337302474222795
51
74.61544193816705
0
ARC
8
0
10
0.8096996388535622
20
26.178284158400754
40
0.555
50
-10.28571428571459
51
53.14923453720747
0
ARC
8
0
10
0.8096996388535619
20
26.178284158400754
40
0.555
50
-73.72066310863613
51
-10.285714285714585
0
ARC
8
0
10
0.721810328010545
20
26.61544520662547
40
1
50
-95.18687050959596
51
-75.90873104565173
0
ARC
8
0
10
0.6239364939053529
20
25.469726157286946
40
0.15
50
87.14569368545813
51
169.71428571428436
0
ARC
8
0
10
22.26844871672014
20
22.28348596192701
40
22.027692032865346
50
171.61274718501352
51
172.95868138641418
0
ARC
8
0
10
0.5562855052579726
20
24.97030650393105
40
0.15
50
174.85714285714147
51
-102.57426511402976
0
ARC
8
0
10
0.3458287645776117
20
23.83983784548809
40
1
50
60.48015961708014
51
79.75829908102439
0
ARC
8
0
10
0.5468517423567587
20
24.237863065103884
40
0.555
50
-5.142857142857125
51
58.29209168006437
0
ARC
8
0
10
0.5468517423567586
20
24.237863065103884
40
0.555
50
-68.5778059657787
51
-5.142857142857123
0
ARC
8
0
10
0.4201294337977812
20
24.665385894387747
40
1
50
-90.04401336673803
51
-70.7658739027938
0
ARC
8
0
10
0.4253510747544729
20
23.515505830256995
40
0.15
50
92.28855082831522
51
174.85714285714147
0
ARC
8
0
10
22.26834122385616
20
22.28229161838923
40
22.027692032865346
50
176.75560432787086
51
178.10153852927147
0
ARC
8
0
10
0.4027400616779352
20
23.012032505729536
40
0.15
50
-179.99999999999866
51
-97.43140797117255
0
ARC
8
0
10
0.29446498724208486
20
21.86724958496441
40
1
50
65.62301675993689
51
84.90115622388113
0
ARC
8
0
10
0.4590000000000027
20
22.28169203286538
40
0.555
50
0
51
63.43494882292162
0
ARC
8
0
10
0.45900000000000285
20
22.281692032865376
40
0.555
50
-63.43494882292173
51
3.6676666597056763e-13
0
ARC
8
0
10
0.2944649872420932
20
22.69613448076635
40
1
50
-84.90115622388166
51
-65.62301675993746
0
ARC
8
0
10
0.4027400616779342
20
21.551351560001223
40
0.15
50
97.43140797117248
51
179.99999999999866
0
ARC
8
0
10
22.26834122385616
20
22.281092447341432
40
22.027692032865346
50
-178.10153852927172
51
-176.75560432787103
0
ARC
8
0
10
0.4253510747544713
20
21.047878235473746
40
0.15
50
-174.85714285714286
51
-92.28855082831548
0
ARC
8
0
10
0.42012943379777873
20
19.897998171342994
40
1
50
70.76587390279379
51
90.04401336673801
0
ARC
8
0
10
0.5468517423567589
20
20.325521000626857
40
0.555
50
5.1428571428571255
51
68.57780596577896
0
ARC
8
0
10
0.5468517423567586
20
20.325521000626857
40
0.555
50
-58.292091680064765
51
5.142857142857123
0
ARC
8
0
10
0.34582876457761563
20
20.723546220242653
40
1
50
-79.75829908102483
51
-60.480159617080666
0
ARC
8
0
10
0.5562855052579685
20
19.593077561799696
40
0.15
50
102.57426511402961
51
-174.85714285714147
0
ARC
8
0
10
22.268448716720165
20
22.279898103803482
40
22.027692032865346
50
-172.95868138641484
51
-171.6127471850142
0
ARC
8
0
10
0.6239364939053433
20
19.093657908443802
40
0.15
50
-169.71428571428436
51
-87.14569368545821
0
ARC
8
0
10
0.7218103280105352
20
17.947938859105278
40
1
50
75.9087310456517
51
95.18687050959596
0
ARC
8
0
10
0.8096996388535506
20
18.385099907329995
40
0.555
50
10.285714285714214
51
73.72066310863596
0
ARC
8
0
10
0.8096996388535509
20
18.385099907329995
40
0.555
50
-53.14923453720747
51
10.285714285714217
0
ARC
8
0
10
0.5738072148706506
20
18.763503233627304
40
1
50
-74.61544193816755
51
-55.337302474223414
0
ARC
8
0
10
0.8847511478661255
20
17.65645070643949
40
0.15
50
107.71712225688694
51
-169.71428571428572
0
ARC
8
0
10
22.268662836978827
20
22.278718203927617
40
22.027692032865346
50
-167.81582424355776
51
-166.4698900421571
0
ARC
8
0
10
0.996897426101893
20
17.16510575764997
40
0.15
50
-164.5714285714292
51
-82.00283654260147
0
ARC
8
0
10
1.1970787127056302
20
16.032772379217057
40
1
50
81.0515881885093
51
100.32972765245357
0
ARC
8
0
10
1.2454273927798554
20
16.476051882668862
40
0.555
50
15.428571428570974
51
78.86352025149264
0
ARC
8
0
10
1.2454273927798565
20
16.476051882668855
40
0.555
50
-48.006377394349855
51
15.428571428571711
0
ARC
8
0
10
0.976564789688604
20
16.83178663456188
40
1
50
-69.47258479530983
51
-50.194445331365515
0
ARC
8
0
10
1.385492377282799
20
15.757063574641785
40
0.15
50
112.85997939974386
51
-164.5714285714285
0
ARC
8
0
10
22.268981860661707
20
22.277562247573822
40
22.027692032865346
50
-162.6729671007005
51
-161.3270328992999
0
ARC
8
0
10
1.541231009215538
20
15.27774935104019
40
0.15
50
-159.42857142857147
51
-76.8599793997441
0
ARC
8
0
10
1.842108006302762
20
14.167918526074784
40
1
50
86.19444533136598
51
105.47258479531023
0
ARC
8
0
10
1.850526780464823
20
14.613747458835999
40
0.555
50
20.571428571428264
51
84.00637739435004
0
ARC
8
0
10
1.8505267804648238
20
14.613747458835997
40
0.555
50
-42.86352025149305
51
20.571428571428463
0
ARC
8
0
10
1.550858721856673
20
14.943949469271152
40
1
50
-64.32972765245322
51
-45.05158818850908
0
ARC
8
0
10
2.05447751955979
20
13.910208914770319
40
0.15
50
118.00283654260095
51
-159.42857142857147
0
ARC
8
0
10
22.26940321917769
20
22.276439541822967
40
22.027692032865346
50
-157.5301099578432
51
-156.1841757564425
0
ARC
8
0
10
2.2525545892980254
20
13.446784572652849
40
0.15
50
-154.2857142857144
51
-71.71712225688692
0
ARC
8
0
10
2.651704812201006
20
12.368392006387612
40
1
50
91.33730247422308
51
110.61544193816727
0
ARC
8
0
10
2.6201258974315023
20
12.813180816034816
40
0.555
50
25.714285714285484
51
89.14923453720733
0
ARC
8
0
10
2.6201258974315023
20
12.813180816034816
40
0.555
50
-37.72066310863603
51
25.714285714285484
0
ARC
8
0
10
2.2920651343123883
20
13.115191492579703
40
1
50
-59.186870509595764
51
-39.908731045651514
0
ARC
8
0
10
2.886320299688393
20
12.130756514613378
40
0.15
50
123.14569368545814
51
-154.2857142857144
0
ARC
8
0
10
22.269923519995817
20
22.275359126041465
40
22.027692032865346
50
-152.38725281498614
51
-151.04131861358547
0
ARC
8
0
10
3.1251410071340096
20
11.686953274293685
40
0.15
50
-149.14285714285708
51
-66.5742651140297
0
ARC
8
0
10
3.6193507329544627
20
10.648681549587627
40
1
50
96.48015961708013
51
115.75829908102433
0
ARC
8
0
10
3.5480283841070173
20
11.088849058157123
40
0.555
50
30.857142857142808
51
94.29209168006463
0
ARC
8
0
10
3.5480283841070173
20
11.088849058157125
40
0.555
50
-32.57780596577927
51
30.857142857142655
0
ARC
8
0
10
3.1942162688449764
20
11.360236788423613
40
1
50
-54.04401336673876
51
-34.76587390279459
0
ARC
8
0
10
3.8743232087186334
20
10.433033478595982
40
0.15
50
128.2885508283153
51
-149.14285714285708
0
ARC
8
0
10
22.27053857395986
20
22.274329699101933
40
22.027692032865346
50
-147.24439567212937
51
-145.89846147072868
0
ARC
8
0
10
4.151964709959592
20
10.012424582813017
40
0.15
50
-143.99999999999943
51
-61.43140797117246
0
ARC
8
0
10
4.737254852575827
20
9.022633253099581
40
1
50
101.6230167599372
51
120.90115622388151
0
ARC
8
0
10
4.626763315266495
20
9.454635490626675
40
0.555
50
35.99999999999978
51
99.43494882292173
0
ARC
8
0
10
4.626763315266495
20
9.454635490626675
40
0.555
50
-27.43494882292189
51
35.99999999999978
0
ARC
8
0
10
4.250048534975463
20
9.693215220184062
40
1
50
-48.9011562238816
51
-29.623016759937432
0
ARC
8
0
10
5.010531428163316
20
8.830708874359143
40
0.15
50
133.43140797117263
51
-143.99999999999963
0
ARC
8
0
10
22.271243429016753
20
22.273359549345088
40
22.027692032865346
50
-142.10153852927192
51
-140.75560432787125
0
ARC
8
0
10
5.324758317082172
20
8.43668081862775
40
0.15
50
-138.85714285714263
51
-56.28855082831512
0
ARC
8
0
10
5.9964164644108715
20
7.5033391017059134
40
1
50
106.76587390279444
51
126.0440133667386
0
ARC
8
0
10
5.847645351530095
20
7.923697840187238
40
0.555
50
41.142857142857004
51
104.57780596577895
0
ARC
8
0
10
5.847645351530094
20
7.9236978401872395
40
0.555
50
-22.29209168006493
51
41.142857142856805
0
ARC
8
0
10
5.451060992116269
20
8.127548665335732
40
1
50
-43.75829908102438
51
-24.480159617080208
0
ARC
8
0
10
6.285796877519069
20
7.336683677464589
40
0.15
50
138.57426511402952
51
-138.85714285714312
0
ARC
8
0
10
22.272032410088215
20
22.272456487846036
40
22.027692032865346
50
-136.9586813864148
51
-135.61274718501414
0
ARC
8
0
10
6.63407918396868
20
6.972408944004754
40
0.15
50
-133.7142857142857
51
-51.145693685458504
0
ARC
8
0
10
7.38669753953615
20
6.10303155858313
40
1
50
111.90873104565166
51
131.18687050959588
0
ARC
8
0
10
7.200844668608844
20
6.5083623166233675
40
0.555
50
46.285714285714164
51
109.72066310863589
0
ARC
8
0
10
7.200844668608845
20
6.508362316623367
40
0.555
50
-17.149234537207505
51
46.28571428571429
0
ARC
8
0
10
6.787583794146402
20
6.675842950381222
40
1
50
-38.61544193816737
51
-19.337302474223165
0
ARC
8
0
10
7.689851869231638
20
5.962986900325109
40
0.15
50
143.71712225688714
51
-133.71428571428544
0
ARC
8
0
10
22.272899164762485
20
22.271627785525087
40
22.027692032865346
50
-131.81582424355756
51
-130.46989004215692
0
ARC
8
0
10
8.069385428867143
20
5.631398415100584
40
0.15
50
-128.5714285714285
51
-46.00283654260085
0
ARC
8
0
10
8.896904352206779
20
4.832985076700959
40
1
50
117.05158818850859
51
136.3297276524528
0
ARC
8
0
10
8.675466101269938
20
5.220024369367
40
0.555
50
51.42857142857132
51
114.86352025149309
0
ARC
8
0
10
8.675466101269938
20
5.220024369367
40
0.555
50
-12.006377394350443
51
51.42857142857132
0
ARC
8
0
10
8.248856045326589
20
5.349786356148213
40
1
50
-33.472584795310276
51
-14.194445331366085
0
ARC
8
0
10
9.21139177807871
20
4.7206787416696105
40
0.15
50
148.85997939974362
51
-128.57142857142824
0
ARC
8
0
10
22.273836714440773
20
22.27088011460591
40
22.027692032865346
50
-126.67296710070092
51
-125.32703289930026
0
ARC
8
0
10
9.619120809840044
20
4.424446260192546
40
0.15
50
-123.42857142857123
51
-40.85997939974368
0
ARC
8
0
10
10.514877605154364
20
3.7034253235562775
40
1
50
122.19444533136569
51
141.47258479531
0
ARC
8
0
10
10.25963686480095
20
4.069056938038991
40
0.555
50
56.57142857142864
51
120.00637739435042
0
ARC
8
0
10
10.259636864800948
20
4.069056938038992
40
0.555
50
-6.863520251493455
51
56.571428571428434
0
ARC
8
0
10
9.823112440704495
20
4.160055510624811
40
1
50
-28.329727652453094
51
-9.051588188508854
0
ARC
8
0
10
10.83816605936523
20
3.619761536326216
40
0.15
50
154.00283654260087
51
-123.42857142857189
0
ARC
8
0
10
22.274837510523774
20
22.27021949489552
40
22.027692032865346
50
-121.53010995784305
51
-120.18417575644236
0
ARC
8
0
10
11.270807768829442
20
3.3612701483555982
40
0.15
50
-118.28571428571422
51
-35.71712225688714
0
ARC
8
0
10
12.227590329099037
20
2.7234468501110305
40
1
50
127.33730247422264
51
146.6154419381669
0
ARC
8
0
10
11.940602147691246
20
3.0647269356385105
40
0.555
50
61.71428571428568
51
125.1492345372073
0
ARC
8
0
10
11.940602147691244
20
3.0647269356385114
40
0.555
50
-1.7206631086362536
51
61.71428571428546
0
ARC
8
0
10
11.497677993432312
20
3.1162294270287694
40
1
50
-23.18687050959574
51
-3.90873104565157
0
ARC
8
0
10
12.557076883106067
20
2.6690992223035273
40
0.15
50
159.14569368545858
51
-118.28571428571412
0
ARC
8
0
10
22.27589349519075
20
22.269651245314837
40
22.027692032865346
50
-116.3872528149866
51
-115.04131861358593
0
ARC
8
0
10
13.011147893617752
20
2.450430148504808
40
0.15
50
-113.14285714285722
51
-30.574265114029934
0
ARC
8
0
10
14.021252768246372
20
1.9009398668153858
40
1
50
132.48015961707995
51
151.7582990810242
0
ARC
8
0
10
13.70482780587458
20
2.215120636808404
40
0.555
50
66.8571428571427
51
130.2920916800645
0
ARC
8
0
10
13.70482780587458
20
2.215120636808404
40
0.555
50
3.4221940342209964
51
66.8571428571427
0
ARC
8
0
10
13.259070086308071
20
2.226712379225405
40
1
50
-18.044013366738678
51
1.234126097205553
0
ARC
8
0
10
14.35428459005165
20
1.876345973573652
40
0.15
50
164.288550828315
51
-113.14285714285795
0
ARC
8
0
10
22.27699616627319
20
22.269179941075844
40
22.027692032865346
50
-111.24439567212897
51
-109.89846147072834
0
ARC
8
0
10
14.826128988823585
20
1.699259808753741
40
0.15
50
-108.00000000000028
51
-25.43140797117262
0
ARC
8
0
10
15.881423407292768
20
1.2425267162725748
40
1
50
137.62301675993726
51
156.90115622388143
0
ARC
8
0
10
15.538109331699129
20
1.5270785719064466
40
0.555
50
71.99999999999993
51
135.43494882292168
0
ARC
8
0
10
15.53810933169913
20
1.5270785719064457
40
0.555
50
8.565051177078226
51
72.00000000000013
0
ARC
8
0
10
15.093107025881704
20
1.4986662354560862
40
1
50
-12.901156223881783
51
6.37698324006242
0
ARC
8
0
10
16.21531912048666
20
1.24788457316402
40
0.15
50
169.4314079711723
51
-108.00000000000033
0
ARC
8
0
10
22.278136645712436
20
22.26880937684288
40
22.027692032865346
50
-106.10153852927176
51
-104.75560432787105
0
ARC
8
0
10
16.701137893860004
20
1.1138071109970473
40
0.15
50
-102.85714285714279
51
-20.2885508283156
0
ARC
8
0
10
17.793125246015304
20
0.7535085540300865
40
1
50
142.76587390279457
51
162.04401336673874
0
ARC
8
0
10
17.42568622027109
20
1.006140451077031
40
0.555
50
77.14285714285707
51
140.57780596577888
0
ARC
8
0
10
17.42568622027109
20
1.0061404510770315
40
0.555
50
13.707908319935157
51
77.14285714285707
0
ARC
8
0
10
16.985022225112065
20
0.9379527951862165
40
1
50
-7.7582990810245205
51
11.519840382919684
0
ARC
8
0
10
18.12519651864267
20
0.7887750227413892
40
0.15
50
174.57426511402974
51
-102.85714285714143
0
ARC
8
0
10
22.27930575103855
20
22.268542536181315
40
22.027692032865346
50
-100.95868138641458
51
-99.61274718501389
0
ARC
8
0
10
18.621078139510992
20
0.6987857761164658
40
0.15
50
-97.71428571428575
51
-15.145693685458296
0
ARC
8
0
10
19.740966385271022
20
0.4378226667922875
40
1
50
147.90873104565182
51
167.18687050959602
0
ARC
8
0
10
19.352360812360878
20
0.6565005617624315
40
0.555
50
82.2857142857143
51
145.7206631086361
0
ARC
8
0
10
19.352360812360878
20
0.6565005617624313
40
0.555
50
18.85076546279245
51
82.2857142857143
0
ARC
8
0
10
18.919583095243045
20
0.5490865933427093
40
1
50
-2.615441938167463
51
16.66269752577671
0
ARC
8
0
10
20.06853957469942
20
0.5027138024537322
40
0.15
50
179.71712225688677
51
-97.71428571428574
0
ARC
8
0
10
22.280494069302925
20
22.268381567535265
40
22.027692032865346
50
-95.81582424355769
51
-94.46989004215703
0
ARC
8
0
10
20.57049149582514
20
0.45753731187186075
40
0.15
50
-92.57142857142884
51
-10.00283654260113
0
ARC
8
0
10
21.709263953518665
20
0.2980107717029131
40
1
50
153.0515881885087
51
172.32972765245293
0
ARC
8
0
10
21.302620657019286
20
0.4809739987664835
40
0.555
50
87.42857142857125
51
150.86352025149313
0
ARC
8
0
10
21.302620657019286
20
0.4809739987664835
40
0.555
50
23.993622605649538
51
87.42857142857125
0
ARC
8
0
10
20.8812136896517
20
0.33519855193317716
40
1
50
2.527415204689604
51
21.80555466863378
0
ARC
8
0
10
22.02970163303673
20
0.3920041090455294
40
0.15
50
-175.1400206002561
51
-92.57142857142884
0
ARC
8
0
10
22.281692032865454
20
22.26832776692964
40
22.027692032865346
50
-90.67296710070069
51
-89.32703289929995
0
ARC
8
0
10
22.533682432693936
20
0.3920041090455266
40
0.15
50
-87.42857142857117
51
-4.859979399743974
0
ARC
8
0
10
23.682170376078965
20
0.33519855193317394
40
1
50
158.1944453313662
51
177.47258479531038
0
ARC
8
0
10
23.26076340871138
20
0.4809739987664798
40
0.555
50
92.5714285714284
51
156.00637739435038
0
ARC
8
0
10
23.26076340871138
20
0.4809739987664797
40
0.555
50
29.136479748506837
51
92.5714285714284
0
ARC
8
0
10
22.854120112212
20
0.2980107717029089
40
1
50
7.670272347547105
51
26.948411811491297
0
ARC
8
0
10
23.992892569905525
20
0.4575373118718564
40
0.15
50
-169.9971634573989
51
-87.42857142857117
0
ARC
8
0
10
22.282889996427876
20
22.268381567535272
40
22.027692032865346
50
-85.53010995784334
51
-84.18417575644267
0
ARC
8
0
10
24.494844491031245
20
0.5027138024537252
40
0.15
50
-82.28571428571426
51
0.2828777431132252
0
ARC
8
0
10
25.64380097048762
20
0.5490865933427027
40
1
50
163.3373024742233
51
-177.3845580618325
0
ARC
8
0
10
25.211023253369788
20
0.6565005617624242
40
0.555
50
97.71428571428572
51
161.1492345372075
0
ARC
8
0
10
25.211023253369788
20
0.6565005617624243
40
0.555
50
34.27933689136386
51
97.71428571428572
0
ARC
8
0
10
24.822417680459644
20
0.43782266679227955
40
1
50
12.813129490404027
51
32.091268954348195
0
ARC
8
0
10
25.942305926219674
20
0.6987857761164583
40
0.15
50
-164.85430631454176
51
-82.28571428571426
0
ARC
8
0
10
22.28407831469212
20
22.26854253618131
40
22.027692032865346
50
-80.38725281498614
51
-79.04131861358547
0
ARC
8
0
10
26.43818754708798
20
0.788775022741379
40
0.15
50
-77.14285714285857
51
5.42573488597027
0
ARC
8
0
10
27.578361840618587
20
0.9379527951862073
40
1
50
168.48015961708037
51
-172.24170091897543
0
ARC
8
0
10
27.137697845459563
20
1.0061404510770209
40
0.555
50
102.85714285714295
51
166.29209168006477
0
ARC
8
0
10
27.137697845459563
20
1.0061404510770204
40
0.555
50
39.42219403422108
51
102.85714285714295
0
ARC
8
0
10
26.770258819715348
20
0.7535085540300758
40
1
50
17.955986633261254
51
37.23412609720545
0
ARC
8
0
10
27.86224617187065
20
1.1138071109970353
40
0.15
50
-159.71144917168468
51
-77.14285714285586
0
ARC
8
0
10
22.285247420018077
20
22.268809376842835
40
22.027692032865346
50
-75.24439567212859
51
-73.89846147072788
0
ARC
8
0
10
28.348064945243987
20
1.24788457316401
40
0.15
50
-71.99999999999969
51
10.568592028827617
0
ARC
8
0
10
29.470277039848945
20
1.4986662354560762
40
1
50
173.6230167599376
51
-167.0988437761182
0
ARC
8
0
10
29.02527473403152
20
1.5270785719064344
40
0.555
50
107.99999999999987
51
171.43494882292168
0
ARC
8
0
10
29.02527473403152
20
1.5270785719064353
40
0.555
50
44.56505117707834
51
107.9999999999999
0
ARC
8
0
10
28.68196065843788
20
1.2425267162725633
40
1
50
23.09884377611859
51
42.37698324006278
0
ARC
8
0
10
29.737255076907065
20
1.6992598087537298
40
0.15
50
-154.5685920288276
51
-72.00000000000105
0
ARC
8
0
10
22.286387899457605
20
22.269179941075883
40
22.027692032865346
50
-70.10153852927208
51
-68.75560432787134
0
ARC
8
0
10
30.20909947567904
20
1.8763459735736518
40
0.15
50
-66.85714285714268
51
15.711449171685198
0
ARC
8
0
10
31.304313979422616
20
2.2267123792254093
40
1
50
178.7658739027947
51
-161.95598663326106
0
ARC
8
0
10
30.85855625985611
20
2.2151206368084035
40
0.555
50
113.14285714285728
51
176.577805965779
0
ARC
8
0
10
30.85855625985611
20
2.2151206368084044
40
0.555
50
49.70790831993532
51
113.14285714285731
0
ARC
8
0
10
30.542131297484318
20
1.900939866815385
40
1
50
28.241700918975866
51
47.51984038292008
0
ARC
8
0
10
31.552236172112938
20
2.450430148504808
40
0.15
50
-149.42573488597006
51
-66.85714285714285
0
ARC
8
0
10
22.28749057054008
20
22.269651245314904
40
22.027692032865346
50
-64.9586813864145
51
-63.61274718501383
0
ARC
8
0
10
32.006307182624624
20
2.669099222303525
40
0.15
50
-61.71428571428672
51
20.8543063145407
0
ARC
8
0
10
33.06570607229838
20
3.1162294270287707
40
1
50
-176.0912689543482
51
-156.81312949040404
0
ARC
8
0
10
32.62278191803944
20
3.064726935638507
40
0.555
50
118.28571428571404
51
-178.27933689136387
0
ARC
8
0
10
32.62278191803944
20
3.0647269356385056
40
0.555
50
54.85076546279293
51
118.28571428571395
0
ARC
8
0
10
32.33579373663166
20
2.723446850111019
40
1
50
33.38455806183352
51
52.66269752577796
0
ARC
8
0
10
33.29257629690125
20
3.3612701483555947
40
0.15
50
-144.28287774311312
51
-61.714285714286405
0
ARC
8
0
10
22.28854655520683
20
22.270219494895464
40
22.027692032865346
50
-59.81582424355737
51
-58.46989004215671
0
ARC
8
0
10
33.72521800636545
20
3.619761536326211
40
0.15
50
-56.57142857142604
51
25.99716345739943
0
ARC
8
0
10
34.74027162502619
20
4.160055510624804
40
1
50
-170.94841181149127
51
-151.6702723475471
0
ARC
8
0
10
34.30374720092974
20
4.069056938038987
40
0.555
50
123.42857142857149
51
-173.13647974850667
0
ARC
8
0
10
34.30374720092974
20
4.0690569380389885
40
0.555
50
59.99362260564953
51
123.42857142857157
0
ARC
8
0
10
34.04850646057633
20
3.7034253235562753
40
1
50
38.52741520469006
51
57.80555466863428
0
ARC
8
0
10
34.94426325589064
20
4.424446260192545
40
0.15
50
-139.14002060025447
51
-56.571428571429145
0
ARC
8
0
10
22.289547351290125
20
22.270880114606054
40
22.027692032865346
50
-54.67296710070042
51
-53.3270328992997
0
ARC
8
0
10
35.351992287651996
20
4.7206787416696185
40
0.15
50
-51.42857142857146
51
31.140020600255106
0
ARC
8
0
10
36.314528020404126
20
5.349786356148215
40
1
50
-165.80555466863422
51
-146.52741520469013
0
ARC
8
0
10
35.88791796446077
20
5.220024369367011
40
0.555
50
128.57142857142927
51
-167.99362260564894
0
ARC
8
0
10
35.88791796446077
20
5.2200243693670085
40
0.555
50
65.1364797485067
51
128.57142857142907
0
ARC
8
0
10
35.66647971352393
20
4.832985076700967
40
1
50
43.670272347547005
51
62.94841181149122
0
ARC
8
0
10
36.493998636863566
20
5.63139841510059
40
0.15
50
-133.99716345739915
51
-51.42857142857103
0
ARC
8
0
10
22.29048490096824
20
22.271627785525112
40
22.027692032865346
50
-49.53010995784316
51
-48.1841757564425
0
ARC
8
0
10
36.87353219649907
20
5.962986900325112
40
0.15
50
-46.285714285712636
51
36.282877743115215
0
ARC
8
0
10
37.7758002715843
20
6.675842950381232
40
1
50
-160.66269752577676
51
-141.38455806183254
0
ARC
8
0
10
37.36253939712186
20
6.508362316623376
40
0.555
50
133.71428571428575
51
-162.8507654627923
0
ARC
8
0
10
37.36253939712186
20
6.508362316623376
40
0.555
50
70.27933689136404
51
133.71428571428575
0
ARC
8
0
10
37.17668652619455
20
6.103031558583139
40
1
50
48.81312949040422
51
68.0912689543483
0
ARC
8
0
10
37.92930488176202
20
6.972408944004761
40
0.15
50
-128.85430631454292
51
-46.28571428571287
0
ARC
8
0
10
22.291351655642412
20
22.272456487845965
40
22.027692032865346
50
-44.38725281498557
51
-43.04131861358488
0
ARC
8
0
10
38.27758718821164
20
7.33668367746461
40
0.15
50
-41.14285714285715
51
41.42573488596957
0
ARC
8
0
10
39.11232307361444
20
8.127548665335755
40
1
50
-155.51984038291965
51
-136.24170091897537
0
ARC
8
0
10
38.71573871420062
20
7.923697840187256
40
0.555
50
138.8571428571426
51
-157.70790831993548
0
ARC
8
0
10
38.71573871420062
20
7.923697840187257
40
0.555
50
75.42219403422163
51
138.8571428571427
0
ARC
8
0
10
38.56696760131985
20
7.503339101705929
40
1
50
53.95598663326207
51
73.23412609720653
0
ARC
8
0
10
39.238625748648545
20
8.43668081862777
40
0.15
50
-123.71144917168584
51
-41.14285714285665
0
ARC
8
0
10
22.292140636713775
20
22.27335954934488
40
22.027692032865346
50
-39.24439567212796
51
-37.89846147072725
0
ARC
8
0
10
39.55285263756741
20
8.83070887435919
40
0.15
50
-36.00000000000038
51
46.56859202882686
0
ARC
8
0
10
40.31333553075525
20
9.693215220184122
40
1
50
-150.37698324006166
51
-131.09884377611735
0
ARC
8
0
10
39.93662075046423
20
9.45463549062672
40
0.555
50
143.99999999999977
51
-152.56505117707832
0
ARC
8
0
10
39.93662075046423
20
9.454635490626723
40
0.555
50
80.56505117707829
51
144.00000000000009
0
ARC
8
0
10
39.8261292131549
20
9.02263325309963
40
1
50
59.09884377611863
51
78.37698324006296
0
ARC
8
0
10
40.41141935577113
20
10.012424582813065
40
0.15
50
-118.56859202882696
51
-35.99999999999983
0
ARC
8
0
10
22.292845491770958
20
22.274329699102125
40
22.027692032865346
50
-34.10153852927177
51
-32.75560432787117
0
ARC
8
0
10
40.68906085701208
20
10.433033478596007
40
0.15
50
-30.857142857143188
51
51.71144917168484
0
ARC
8
0
10
41.36916779688574
20
11.360236788423633
40
1
50
-145.2341260972058
51
-125.9559866332616
0
ARC
8
0
10
41.015355681623696
20
11.08884905815715
40
0.555
50
149.14285714285705
51
-147.42219403422078
0
ARC
8
0
10
41.015355681623696
20
11.08884905815715
40
0.555
50
85.70790831993538
51
149.14285714285705
0
ARC
8
0
10
40.94403333277624
20
10.648681549587653
40
1
50
64.24170091897565
51
83.51984038291947
0
ARC
8
0
10
41.4382430585967
20
11.686953274293712
40
0.15
50
-113.42573488597047
51
-30.857142857143188
0
ARC
8
0
10
22.293460545734863
20
22.275359126041455
40
22.027692032865346
50
-28.958681386414405
51
-27.61274718501364
0
ARC
8
0
10
41.67706376604234
20
12.130756514613449
40
0.15
50
-25.7142857142862
51
56.85430631454272
0
ARC
8
0
10
42.271318931418335
20
13.115191492579775
40
1
50
-140.09126895434818
51
-120.81312949040397
0
ARC
8
0
10
41.943258168299224
20
12.813180816034885
40
0.555
50
154.2857142857143
51
-142.2793368913639
0
ARC
8
0
10
41.943258168299224
20
12.813180816034887
40
0.555
50
90.85076546279313
51
154.2857142857145
0
ARC
8
0
10
41.91167925352972
20
12.368392006387683
40
1
50
69.3845580618329
51
88.66269752577716
0
ARC
8
0
10
42.3108294764327
20
13.446784572652922
40
0.15
50
-108.28287774311438
51
-25.71428571428681
0
ARC
8
0
10
22.29398084655305
20
22.27643954182308
40
22.027692032865346
50
-23.8158242435576
51
-22.46989004215692
0
ARC
8
0
10
42.508906546170934
20
13.91020891477039
40
0.15
50
-20.57142857142709
51
61.9971634574012
0
ARC
8
0
10
43.012525343874046
20
14.943949469271224
40
1
50
-134.9484118114908
51
-115.67027234754678
0
ARC
8
0
10
42.7128572852659
20
14.61374745883607
40
0.555
50
159.4285714285713
51
-137.1364797485069
0
ARC
8
0
10
42.7128572852659
20
14.613747458836073
40
0.555
50
95.99362260564982
51
159.42857142857164
0
ARC
8
0
10
42.721276059427964
20
14.167918526074859
40
1
50
74.5274152046903
51
93.80555466863427
0
ARC
8
0
10
43.02215305651518
20
15.277749351040267
40
0.15
50
-103.14002060025591
51
-20.571428571428363
0
ARC
8
0
10
22.29440220506899
20
22.277562247573844
40
22.027692032865346
50
-18.67296710069997
51
-17.3270328992993
0
ARC
8
0
10
43.17789168844792
20
15.757063574641876
40
0.15
50
-15.428571428570637
51
67.14002060025605
0
ARC
8
0
10
43.58681927604211
20
16.831786634561976
40
1
50
-129.80555466863362
51
-110.52741520468955
0
ARC
8
0
10
43.31795667295086
20
16.476051882668948
40
0.555
50
164.571428571429
51
-131.99362260564902
0
ARC
8
0
10
43.31795667295086
20
16.476051882668948
40
0.555
50
101.13647974850707
51
164.571428571429
0
ARC
8
0
10
43.36630535302509
20
16.03277237921715
40
1
50
79.67027234754696
51
98.94841181149111
0
ARC
8
0
10
43.56648663962882
20
17.165105757650064
40
0.15
50
-97.99716345739921
51
-15.428571428571944
0
ARC
8
0
10
22.29472122875185
20
22.278718203927554
40
22.027692032865346
50
-13.53010995784252
51
-12.184175756441809
0
ARC
8
0
10
43.67863291786459
20
17.656450706439585
40
0.15
50
-10.28571428571446
51
72.28287774311183
0
ARC
8
0
10
43.98957685086007
20
18.7635032336274
40
1
50
-124.66269752577661
51
-105.38455806183245
0
ARC
8
0
10
43.753684426877165
20
18.385099907330094
40
0.555
50
169.7142857142862
51
-126.85076546279207
0
ARC
8
0
10
43.753684426877165
20
18.38509990733009
40
0.555
50
106.27933689136391
51
169.71428571428584
0
ARC
8
0
10
43.8415737377202
20
17.947938859105378
40
1
50
84.81312949040564
51
104.09126895434957
0
ARC
8
0
10
43.93944757182537
20
19.093657908443905
40
0.15
50
-92.85430631454217
51
-10.285714285715795
0
ARC
8
0
10
22.29493534901054
20
22.279898103803554
40
22.027692032865346
50
-8.387252814985727
51
-7.041318613585072
0
ARC
8
0
10
44.00709856047274
20
19.5930775617998
40
0.15
50
-5.142857142857197
51
77.42573488597064
0
ARC
8
0
10
44.2175553011531
20
20.723546220242756
40
1
50
-119.51984038291937
51
-100.24170091897545
0
ARC
8
0
10
44.016532323373944
20
20.325521000626967
40
0.555
50
174.8571428571436
51
-121.70790831993395
0
ARC
8
0
10
44.016532323373944
20
20.325521000626964
40
0.555
50
111.42219403422071
51
174.8571428571432
0
ARC
8
0
10
44.143254631932926
20
19.8979981713431
40
1
50
89.95598663326184
51
109.23412609720611
0
ARC
8
0
10
44.138032990976235
20
21.047878235473853
40
0.15
50
-87.71144917168417
51
-5.142857142858548
0
ARC
8
0
10
22.295042841874523
20
22.28109244734115
40
22.027692032865346
50
-3.244395672127953
51
-1.8984614707272933
0
ENDSEC
0
EOF