M48
; DRILL file {KiCad (6.0.6)} date Mon Oct 10 12:51:51 2022
; FORMAT={-:-/ absolute / metric / decimal}
; #@! TF.CreationDate,2022-10-10T12:51:51+02:00
; #@! TF.GenerationSoftware,Kicad,Pcbnew,(6.0.6)
; #@! TF.FileFunction,Plated,1,2,PTH
FMAT,2
METRIC
; #@! TA.AperFunction,Plated,PTH,ViaDrill
T1C0.330
; #@! TA.AperFunction,Plated,PTH,ViaDrill
T2C0.400
; #@! TA.AperFunction,Plated,PTH,ComponentDrill
T3C0.800
; #@! TA.AperFunction,Plated,PTH,ComponentDrill
T4C0.920
; #@! TA.AperFunction,Plated,PTH,ComponentDrill
T5C0.950
; #@! TA.AperFunction,Plated,PTH,ComponentDrill
T6C1.000
; #@! TA.AperFunction,Plated,PTH,ComponentDrill
T7C1.520
; #@! TA.AperFunction,Plated,PTH,ComponentDrill
T8C2.300
%
G90
G05
T1
X172.004Y-108.289
X173.298Y-108.347
X178.975Y-75.304
X182.947Y-96.621
X183.18Y-95.04
X183.272Y-98.917
X183.651Y-93.105
X183.67Y-78.383
X183.816Y-75.109
X184.408Y-100.222
X187.586Y-80.201
X187.834Y-101.945
X188.105Y-98.071
X188.116Y-97.127
X188.122Y-96.211
X188.887Y-91.295
X189.032Y-98.071
X189.043Y-97.127
X189.049Y-96.211
X189.398Y-101.859
X189.958Y-98.071
X189.97Y-97.127
X189.975Y-96.211
X191.824Y-91.54
T2
X168.442Y-66.284
X180.337Y-89.151
X197.68Y-74.507
T3
X206.803Y-61.011
X206.803Y-63.551
X206.803Y-66.091
X206.803Y-68.631
X206.803Y-71.171
X206.803Y-73.711
X206.803Y-76.251
X206.803Y-78.791
X206.803Y-84.699
X206.803Y-87.239
X206.803Y-89.779
X206.803Y-92.319
X206.803Y-94.859
X206.803Y-97.399
X206.803Y-99.939
X206.803Y-102.479
X206.803Y-108.386
X206.803Y-110.926
X206.803Y-113.466
X206.803Y-116.006
X206.803Y-118.546
X206.803Y-121.086
X206.803Y-123.626
X206.803Y-126.166
X219.503Y-61.011
X219.503Y-63.551
X219.503Y-66.091
X219.503Y-68.631
X219.503Y-71.171
X219.503Y-73.711
X219.503Y-76.251
X219.503Y-78.791
X219.503Y-84.699
X219.503Y-87.239
X219.503Y-89.779
X219.503Y-92.319
X219.503Y-94.859
X219.503Y-97.399
X219.503Y-99.939
X219.503Y-102.479
X219.503Y-108.386
X219.503Y-110.926
X219.503Y-113.466
X219.503Y-116.006
X219.503Y-118.546
X219.503Y-121.086
X219.503Y-123.626
X219.503Y-126.166
T4
X192.475Y-69.47
X192.475Y-71.47
X194.975Y-71.47
X195.015Y-69.47
T5
X228.014Y-72.526
X228.014Y-75.026
X228.014Y-77.526
X228.014Y-80.026
X228.014Y-89.77
X228.014Y-92.27
X228.014Y-94.77
X228.014Y-97.27
X228.014Y-107.318
X228.014Y-109.818
X228.014Y-112.318
X228.014Y-114.818
T6
X168.656Y-114.467
X171.903Y-83.062
X171.903Y-85.602
X176.256Y-114.467
X181.951Y-115.387
X181.951Y-117.927
X185.94Y-115.387
X185.94Y-117.927
X189.929Y-115.387
X189.929Y-117.927
T7
X224.786Y-63.705
X229.866Y-63.705
T8
X187.625Y-66.97
X199.825Y-66.97
T0
M30
