%TF.GenerationSoftware,KiCad,Pcbnew,7.0.6*%
%TF.CreationDate,2024-03-18T20:13:49+01:00*%
%TF.ProjectId,startrckr_pcb,73746172-7472-4636-9b72-5f7063622e6b,rev?*%
%TF.SameCoordinates,Original*%
%TF.FileFunction,Legend,Bot*%
%TF.FilePolarity,Positive*%
%FSLAX46Y46*%
G04 Gerber Fmt 4.6, Leading zero omitted, Abs format (unit mm)*
G04 Created by KiCad (PCBNEW 7.0.6) date 2024-03-18 20:13:49*
%MOMM*%
%LPD*%
G01*
G04 APERTURE LIST*
G04 Aperture macros list*
%AMRoundRect*
0 Rectangle with rounded corners*
0 $1 Rounding radius*
0 $2 $3 $4 $5 $6 $7 $8 $9 X,Y pos of 4 corners*
0 Add a 4 corners polygon primitive as box body*
4,1,4,$2,$3,$4,$5,$6,$7,$8,$9,$2,$3,0*
0 Add four circle primitives for the rounded corners*
1,1,$1+$1,$2,$3*
1,1,$1+$1,$4,$5*
1,1,$1+$1,$6,$7*
1,1,$1+$1,$8,$9*
0 Add four rect primitives between the rounded corners*
20,1,$1+$1,$2,$3,$4,$5,0*
20,1,$1+$1,$4,$5,$6,$7,0*
20,1,$1+$1,$6,$7,$8,$9,0*
20,1,$1+$1,$8,$9,$2,$3,0*%
G04 Aperture macros list end*
%ADD10C,0.150000*%
%ADD11C,0.125000*%
%ADD12C,0.300000*%
%ADD13C,0.177800*%
%ADD14C,0.120000*%
%ADD15RoundRect,0.250000X-0.750000X0.600000X-0.750000X-0.600000X0.750000X-0.600000X0.750000X0.600000X0*%
%ADD16O,2.000000X1.700000*%
%ADD17R,2.000000X2.000000*%
%ADD18C,2.000000*%
%ADD19O,1.950000X1.700000*%
%ADD20RoundRect,0.250000X-0.725000X0.600000X-0.725000X-0.600000X0.725000X-0.600000X0.725000X0.600000X0*%
%ADD21RoundRect,0.250000X-0.600000X-0.725000X0.600000X-0.725000X0.600000X0.725000X-0.600000X0.725000X0*%
%ADD22O,1.700000X1.950000*%
%ADD23R,3.500000X3.500000*%
%ADD24RoundRect,0.750000X-1.000000X0.750000X-1.000000X-0.750000X1.000000X-0.750000X1.000000X0.750000X0*%
%ADD25RoundRect,0.875000X-0.875000X0.875000X-0.875000X-0.875000X0.875000X-0.875000X0.875000X0.875000X0*%
%ADD26R,1.500000X1.000000*%
%ADD27R,1.700000X1.700000*%
%ADD28O,1.700000X1.700000*%
%ADD29RoundRect,0.250000X0.725000X-0.600000X0.725000X0.600000X-0.725000X0.600000X-0.725000X-0.600000X0*%
%ADD30C,1.700000*%
%ADD31C,4.000000*%
%ADD32R,1.600000X1.600000*%
%ADD33O,1.600000X1.600000*%
%ADD34R,1.000000X1.500000*%
G04 APERTURE END LIST*
D10*
X197120000Y-98044000D02*
X202295000Y-98044000D01*
X202295000Y-105930000D01*
X197120000Y-105930000D01*
X197120000Y-98044000D01*
X182880000Y-89916000D02*
X186436000Y-89916000D01*
X186436000Y-97028000D01*
X182880000Y-97028000D01*
X182880000Y-89916000D01*
X171720000Y-81788000D02*
X176276000Y-81788000D01*
X176276000Y-89420000D01*
X171720000Y-89420000D01*
X171720000Y-81788000D01*
X176022000Y-96520000D02*
X179324000Y-96520000D01*
X179324000Y-103632000D01*
X176022000Y-103632000D01*
X176022000Y-96520000D01*
X176165000Y-112014000D02*
X180594000Y-112014000D01*
X180594000Y-119870000D01*
X176165000Y-119870000D01*
X176165000Y-112014000D01*
D11*
X197486880Y-105089668D02*
X198486880Y-105089668D01*
X198391642Y-104661097D02*
X198439261Y-104613478D01*
X198439261Y-104613478D02*
X198486880Y-104518240D01*
X198486880Y-104518240D02*
X198486880Y-104280145D01*
X198486880Y-104280145D02*
X198439261Y-104184907D01*
X198439261Y-104184907D02*
X198391642Y-104137288D01*
X198391642Y-104137288D02*
X198296404Y-104089669D01*
X198296404Y-104089669D02*
X198201166Y-104089669D01*
X198201166Y-104089669D02*
X198058309Y-104137288D01*
X198058309Y-104137288D02*
X197486880Y-104708716D01*
X197486880Y-104708716D02*
X197486880Y-104089669D01*
X197582119Y-103089669D02*
X197534500Y-103137288D01*
X197534500Y-103137288D02*
X197486880Y-103280145D01*
X197486880Y-103280145D02*
X197486880Y-103375383D01*
X197486880Y-103375383D02*
X197534500Y-103518240D01*
X197534500Y-103518240D02*
X197629738Y-103613478D01*
X197629738Y-103613478D02*
X197724976Y-103661097D01*
X197724976Y-103661097D02*
X197915452Y-103708716D01*
X197915452Y-103708716D02*
X198058309Y-103708716D01*
X198058309Y-103708716D02*
X198248785Y-103661097D01*
X198248785Y-103661097D02*
X198344023Y-103613478D01*
X198344023Y-103613478D02*
X198439261Y-103518240D01*
X198439261Y-103518240D02*
X198486880Y-103375383D01*
X198486880Y-103375383D02*
X198486880Y-103280145D01*
X198486880Y-103280145D02*
X198439261Y-103137288D01*
X198439261Y-103137288D02*
X198391642Y-103089669D01*
X198391642Y-102708716D02*
X198439261Y-102661097D01*
X198439261Y-102661097D02*
X198486880Y-102565859D01*
X198486880Y-102565859D02*
X198486880Y-102327764D01*
X198486880Y-102327764D02*
X198439261Y-102232526D01*
X198439261Y-102232526D02*
X198391642Y-102184907D01*
X198391642Y-102184907D02*
X198296404Y-102137288D01*
X198296404Y-102137288D02*
X198201166Y-102137288D01*
X198201166Y-102137288D02*
X198058309Y-102184907D01*
X198058309Y-102184907D02*
X197486880Y-102756335D01*
X197486880Y-102756335D02*
X197486880Y-102137288D01*
X198486880Y-101042049D02*
X198486880Y-100423002D01*
X198486880Y-100423002D02*
X198105928Y-100756335D01*
X198105928Y-100756335D02*
X198105928Y-100613478D01*
X198105928Y-100613478D02*
X198058309Y-100518240D01*
X198058309Y-100518240D02*
X198010690Y-100470621D01*
X198010690Y-100470621D02*
X197915452Y-100423002D01*
X197915452Y-100423002D02*
X197677357Y-100423002D01*
X197677357Y-100423002D02*
X197582119Y-100470621D01*
X197582119Y-100470621D02*
X197534500Y-100518240D01*
X197534500Y-100518240D02*
X197486880Y-100613478D01*
X197486880Y-100613478D02*
X197486880Y-100899192D01*
X197486880Y-100899192D02*
X197534500Y-100994430D01*
X197534500Y-100994430D02*
X197582119Y-101042049D01*
X198486880Y-100137287D02*
X197486880Y-99803954D01*
X197486880Y-99803954D02*
X198486880Y-99470621D01*
X198486880Y-99232525D02*
X198486880Y-98613478D01*
X198486880Y-98613478D02*
X198105928Y-98946811D01*
X198105928Y-98946811D02*
X198105928Y-98803954D01*
X198105928Y-98803954D02*
X198058309Y-98708716D01*
X198058309Y-98708716D02*
X198010690Y-98661097D01*
X198010690Y-98661097D02*
X197915452Y-98613478D01*
X197915452Y-98613478D02*
X197677357Y-98613478D01*
X197677357Y-98613478D02*
X197582119Y-98661097D01*
X197582119Y-98661097D02*
X197534500Y-98708716D01*
X197534500Y-98708716D02*
X197486880Y-98803954D01*
X197486880Y-98803954D02*
X197486880Y-99089668D01*
X197486880Y-99089668D02*
X197534500Y-99184906D01*
X197534500Y-99184906D02*
X197582119Y-99232525D01*
X200788880Y-104835668D02*
X201788880Y-104835668D01*
X201693642Y-104407097D02*
X201741261Y-104359478D01*
X201741261Y-104359478D02*
X201788880Y-104264240D01*
X201788880Y-104264240D02*
X201788880Y-104026145D01*
X201788880Y-104026145D02*
X201741261Y-103930907D01*
X201741261Y-103930907D02*
X201693642Y-103883288D01*
X201693642Y-103883288D02*
X201598404Y-103835669D01*
X201598404Y-103835669D02*
X201503166Y-103835669D01*
X201503166Y-103835669D02*
X201360309Y-103883288D01*
X201360309Y-103883288D02*
X200788880Y-104454716D01*
X200788880Y-104454716D02*
X200788880Y-103835669D01*
X200884119Y-102835669D02*
X200836500Y-102883288D01*
X200836500Y-102883288D02*
X200788880Y-103026145D01*
X200788880Y-103026145D02*
X200788880Y-103121383D01*
X200788880Y-103121383D02*
X200836500Y-103264240D01*
X200836500Y-103264240D02*
X200931738Y-103359478D01*
X200931738Y-103359478D02*
X201026976Y-103407097D01*
X201026976Y-103407097D02*
X201217452Y-103454716D01*
X201217452Y-103454716D02*
X201360309Y-103454716D01*
X201360309Y-103454716D02*
X201550785Y-103407097D01*
X201550785Y-103407097D02*
X201646023Y-103359478D01*
X201646023Y-103359478D02*
X201741261Y-103264240D01*
X201741261Y-103264240D02*
X201788880Y-103121383D01*
X201788880Y-103121383D02*
X201788880Y-103026145D01*
X201788880Y-103026145D02*
X201741261Y-102883288D01*
X201741261Y-102883288D02*
X201693642Y-102835669D01*
X201693642Y-102454716D02*
X201741261Y-102407097D01*
X201741261Y-102407097D02*
X201788880Y-102311859D01*
X201788880Y-102311859D02*
X201788880Y-102073764D01*
X201788880Y-102073764D02*
X201741261Y-101978526D01*
X201741261Y-101978526D02*
X201693642Y-101930907D01*
X201693642Y-101930907D02*
X201598404Y-101883288D01*
X201598404Y-101883288D02*
X201503166Y-101883288D01*
X201503166Y-101883288D02*
X201360309Y-101930907D01*
X201360309Y-101930907D02*
X200788880Y-102502335D01*
X200788880Y-102502335D02*
X200788880Y-101883288D01*
X201788880Y-100216621D02*
X201788880Y-100692811D01*
X201788880Y-100692811D02*
X201312690Y-100740430D01*
X201312690Y-100740430D02*
X201360309Y-100692811D01*
X201360309Y-100692811D02*
X201407928Y-100597573D01*
X201407928Y-100597573D02*
X201407928Y-100359478D01*
X201407928Y-100359478D02*
X201360309Y-100264240D01*
X201360309Y-100264240D02*
X201312690Y-100216621D01*
X201312690Y-100216621D02*
X201217452Y-100169002D01*
X201217452Y-100169002D02*
X200979357Y-100169002D01*
X200979357Y-100169002D02*
X200884119Y-100216621D01*
X200884119Y-100216621D02*
X200836500Y-100264240D01*
X200836500Y-100264240D02*
X200788880Y-100359478D01*
X200788880Y-100359478D02*
X200788880Y-100597573D01*
X200788880Y-100597573D02*
X200836500Y-100692811D01*
X200836500Y-100692811D02*
X200884119Y-100740430D01*
X201788880Y-99883287D02*
X200788880Y-99549954D01*
X200788880Y-99549954D02*
X201788880Y-99216621D01*
X176655835Y-119064808D02*
X177655835Y-119064808D01*
X177560597Y-118636237D02*
X177608216Y-118588618D01*
X177608216Y-118588618D02*
X177655835Y-118493380D01*
X177655835Y-118493380D02*
X177655835Y-118255285D01*
X177655835Y-118255285D02*
X177608216Y-118160047D01*
X177608216Y-118160047D02*
X177560597Y-118112428D01*
X177560597Y-118112428D02*
X177465359Y-118064809D01*
X177465359Y-118064809D02*
X177370121Y-118064809D01*
X177370121Y-118064809D02*
X177227264Y-118112428D01*
X177227264Y-118112428D02*
X176655835Y-118683856D01*
X176655835Y-118683856D02*
X176655835Y-118064809D01*
X176751074Y-117064809D02*
X176703455Y-117112428D01*
X176703455Y-117112428D02*
X176655835Y-117255285D01*
X176655835Y-117255285D02*
X176655835Y-117350523D01*
X176655835Y-117350523D02*
X176703455Y-117493380D01*
X176703455Y-117493380D02*
X176798693Y-117588618D01*
X176798693Y-117588618D02*
X176893931Y-117636237D01*
X176893931Y-117636237D02*
X177084407Y-117683856D01*
X177084407Y-117683856D02*
X177227264Y-117683856D01*
X177227264Y-117683856D02*
X177417740Y-117636237D01*
X177417740Y-117636237D02*
X177512978Y-117588618D01*
X177512978Y-117588618D02*
X177608216Y-117493380D01*
X177608216Y-117493380D02*
X177655835Y-117350523D01*
X177655835Y-117350523D02*
X177655835Y-117255285D01*
X177655835Y-117255285D02*
X177608216Y-117112428D01*
X177608216Y-117112428D02*
X177560597Y-117064809D01*
X176655835Y-116112428D02*
X176655835Y-116683856D01*
X176655835Y-116398142D02*
X177655835Y-116398142D01*
X177655835Y-116398142D02*
X177512978Y-116493380D01*
X177512978Y-116493380D02*
X177417740Y-116588618D01*
X177417740Y-116588618D02*
X177370121Y-116683856D01*
X177655835Y-114445761D02*
X177655835Y-114921951D01*
X177655835Y-114921951D02*
X177179645Y-114969570D01*
X177179645Y-114969570D02*
X177227264Y-114921951D01*
X177227264Y-114921951D02*
X177274883Y-114826713D01*
X177274883Y-114826713D02*
X177274883Y-114588618D01*
X177274883Y-114588618D02*
X177227264Y-114493380D01*
X177227264Y-114493380D02*
X177179645Y-114445761D01*
X177179645Y-114445761D02*
X177084407Y-114398142D01*
X177084407Y-114398142D02*
X176846312Y-114398142D01*
X176846312Y-114398142D02*
X176751074Y-114445761D01*
X176751074Y-114445761D02*
X176703455Y-114493380D01*
X176703455Y-114493380D02*
X176655835Y-114588618D01*
X176655835Y-114588618D02*
X176655835Y-114826713D01*
X176655835Y-114826713D02*
X176703455Y-114921951D01*
X176703455Y-114921951D02*
X176751074Y-114969570D01*
X177655835Y-114112427D02*
X176655835Y-113779094D01*
X176655835Y-113779094D02*
X177655835Y-113445761D01*
X179198880Y-119059668D02*
X180198880Y-119059668D01*
X180103642Y-118631097D02*
X180151261Y-118583478D01*
X180151261Y-118583478D02*
X180198880Y-118488240D01*
X180198880Y-118488240D02*
X180198880Y-118250145D01*
X180198880Y-118250145D02*
X180151261Y-118154907D01*
X180151261Y-118154907D02*
X180103642Y-118107288D01*
X180103642Y-118107288D02*
X180008404Y-118059669D01*
X180008404Y-118059669D02*
X179913166Y-118059669D01*
X179913166Y-118059669D02*
X179770309Y-118107288D01*
X179770309Y-118107288D02*
X179198880Y-118678716D01*
X179198880Y-118678716D02*
X179198880Y-118059669D01*
X179294119Y-117059669D02*
X179246500Y-117107288D01*
X179246500Y-117107288D02*
X179198880Y-117250145D01*
X179198880Y-117250145D02*
X179198880Y-117345383D01*
X179198880Y-117345383D02*
X179246500Y-117488240D01*
X179246500Y-117488240D02*
X179341738Y-117583478D01*
X179341738Y-117583478D02*
X179436976Y-117631097D01*
X179436976Y-117631097D02*
X179627452Y-117678716D01*
X179627452Y-117678716D02*
X179770309Y-117678716D01*
X179770309Y-117678716D02*
X179960785Y-117631097D01*
X179960785Y-117631097D02*
X180056023Y-117583478D01*
X180056023Y-117583478D02*
X180151261Y-117488240D01*
X180151261Y-117488240D02*
X180198880Y-117345383D01*
X180198880Y-117345383D02*
X180198880Y-117250145D01*
X180198880Y-117250145D02*
X180151261Y-117107288D01*
X180151261Y-117107288D02*
X180103642Y-117059669D01*
X179198880Y-116107288D02*
X179198880Y-116678716D01*
X179198880Y-116393002D02*
X180198880Y-116393002D01*
X180198880Y-116393002D02*
X180056023Y-116488240D01*
X180056023Y-116488240D02*
X179960785Y-116583478D01*
X179960785Y-116583478D02*
X179913166Y-116678716D01*
X180198880Y-115012049D02*
X180198880Y-114393002D01*
X180198880Y-114393002D02*
X179817928Y-114726335D01*
X179817928Y-114726335D02*
X179817928Y-114583478D01*
X179817928Y-114583478D02*
X179770309Y-114488240D01*
X179770309Y-114488240D02*
X179722690Y-114440621D01*
X179722690Y-114440621D02*
X179627452Y-114393002D01*
X179627452Y-114393002D02*
X179389357Y-114393002D01*
X179389357Y-114393002D02*
X179294119Y-114440621D01*
X179294119Y-114440621D02*
X179246500Y-114488240D01*
X179246500Y-114488240D02*
X179198880Y-114583478D01*
X179198880Y-114583478D02*
X179198880Y-114869192D01*
X179198880Y-114869192D02*
X179246500Y-114964430D01*
X179246500Y-114964430D02*
X179294119Y-115012049D01*
X180198880Y-114107287D02*
X179198880Y-113773954D01*
X179198880Y-113773954D02*
X180198880Y-113440621D01*
X180198880Y-113202525D02*
X180198880Y-112583478D01*
X180198880Y-112583478D02*
X179817928Y-112916811D01*
X179817928Y-112916811D02*
X179817928Y-112773954D01*
X179817928Y-112773954D02*
X179770309Y-112678716D01*
X179770309Y-112678716D02*
X179722690Y-112631097D01*
X179722690Y-112631097D02*
X179627452Y-112583478D01*
X179627452Y-112583478D02*
X179389357Y-112583478D01*
X179389357Y-112583478D02*
X179294119Y-112631097D01*
X179294119Y-112631097D02*
X179246500Y-112678716D01*
X179246500Y-112678716D02*
X179198880Y-112773954D01*
X179198880Y-112773954D02*
X179198880Y-113059668D01*
X179198880Y-113059668D02*
X179246500Y-113154906D01*
X179246500Y-113154906D02*
X179294119Y-113202525D01*
D10*
X184785000Y-97660000D02*
X185420000Y-97028000D01*
X182245000Y-97660000D02*
X182880000Y-97028000D01*
X177800000Y-96774000D02*
X175260000Y-96774000D01*
X176530000Y-97536000D02*
X172974000Y-97536000D01*
D11*
X176540859Y-103307811D02*
X176493239Y-103164954D01*
X176493239Y-103164954D02*
X176493239Y-102926859D01*
X176493239Y-102926859D02*
X176540859Y-102831621D01*
X176540859Y-102831621D02*
X176588478Y-102784002D01*
X176588478Y-102784002D02*
X176683716Y-102736383D01*
X176683716Y-102736383D02*
X176778954Y-102736383D01*
X176778954Y-102736383D02*
X176874192Y-102784002D01*
X176874192Y-102784002D02*
X176921811Y-102831621D01*
X176921811Y-102831621D02*
X176969430Y-102926859D01*
X176969430Y-102926859D02*
X177017049Y-103117335D01*
X177017049Y-103117335D02*
X177064668Y-103212573D01*
X177064668Y-103212573D02*
X177112287Y-103260192D01*
X177112287Y-103260192D02*
X177207525Y-103307811D01*
X177207525Y-103307811D02*
X177302763Y-103307811D01*
X177302763Y-103307811D02*
X177398001Y-103260192D01*
X177398001Y-103260192D02*
X177445620Y-103212573D01*
X177445620Y-103212573D02*
X177493239Y-103117335D01*
X177493239Y-103117335D02*
X177493239Y-102879240D01*
X177493239Y-102879240D02*
X177445620Y-102736383D01*
X176493239Y-102307811D02*
X177493239Y-102307811D01*
X177493239Y-102307811D02*
X177493239Y-101926859D01*
X177493239Y-101926859D02*
X177445620Y-101831621D01*
X177445620Y-101831621D02*
X177398001Y-101784002D01*
X177398001Y-101784002D02*
X177302763Y-101736383D01*
X177302763Y-101736383D02*
X177159906Y-101736383D01*
X177159906Y-101736383D02*
X177064668Y-101784002D01*
X177064668Y-101784002D02*
X177017049Y-101831621D01*
X177017049Y-101831621D02*
X176969430Y-101926859D01*
X176969430Y-101926859D02*
X176969430Y-102307811D01*
X176493239Y-101307811D02*
X177493239Y-101307811D01*
X177398001Y-100879240D02*
X177445620Y-100831621D01*
X177445620Y-100831621D02*
X177493239Y-100736383D01*
X177493239Y-100736383D02*
X177493239Y-100498288D01*
X177493239Y-100498288D02*
X177445620Y-100403050D01*
X177445620Y-100403050D02*
X177398001Y-100355431D01*
X177398001Y-100355431D02*
X177302763Y-100307812D01*
X177302763Y-100307812D02*
X177207525Y-100307812D01*
X177207525Y-100307812D02*
X177064668Y-100355431D01*
X177064668Y-100355431D02*
X176493239Y-100926859D01*
X176493239Y-100926859D02*
X176493239Y-100307812D01*
X177493239Y-98641145D02*
X177493239Y-99117335D01*
X177493239Y-99117335D02*
X177017049Y-99164954D01*
X177017049Y-99164954D02*
X177064668Y-99117335D01*
X177064668Y-99117335D02*
X177112287Y-99022097D01*
X177112287Y-99022097D02*
X177112287Y-98784002D01*
X177112287Y-98784002D02*
X177064668Y-98688764D01*
X177064668Y-98688764D02*
X177017049Y-98641145D01*
X177017049Y-98641145D02*
X176921811Y-98593526D01*
X176921811Y-98593526D02*
X176683716Y-98593526D01*
X176683716Y-98593526D02*
X176588478Y-98641145D01*
X176588478Y-98641145D02*
X176540859Y-98688764D01*
X176540859Y-98688764D02*
X176493239Y-98784002D01*
X176493239Y-98784002D02*
X176493239Y-99022097D01*
X176493239Y-99022097D02*
X176540859Y-99117335D01*
X176540859Y-99117335D02*
X176588478Y-99164954D01*
X177493239Y-98307811D02*
X176493239Y-97974478D01*
X176493239Y-97974478D02*
X177493239Y-97641145D01*
X177993257Y-103312952D02*
X177945637Y-103170095D01*
X177945637Y-103170095D02*
X177945637Y-102932000D01*
X177945637Y-102932000D02*
X177993257Y-102836762D01*
X177993257Y-102836762D02*
X178040876Y-102789143D01*
X178040876Y-102789143D02*
X178136114Y-102741524D01*
X178136114Y-102741524D02*
X178231352Y-102741524D01*
X178231352Y-102741524D02*
X178326590Y-102789143D01*
X178326590Y-102789143D02*
X178374209Y-102836762D01*
X178374209Y-102836762D02*
X178421828Y-102932000D01*
X178421828Y-102932000D02*
X178469447Y-103122476D01*
X178469447Y-103122476D02*
X178517066Y-103217714D01*
X178517066Y-103217714D02*
X178564685Y-103265333D01*
X178564685Y-103265333D02*
X178659923Y-103312952D01*
X178659923Y-103312952D02*
X178755161Y-103312952D01*
X178755161Y-103312952D02*
X178850399Y-103265333D01*
X178850399Y-103265333D02*
X178898018Y-103217714D01*
X178898018Y-103217714D02*
X178945637Y-103122476D01*
X178945637Y-103122476D02*
X178945637Y-102884381D01*
X178945637Y-102884381D02*
X178898018Y-102741524D01*
X177945637Y-102312952D02*
X178945637Y-102312952D01*
X178945637Y-102312952D02*
X178945637Y-101932000D01*
X178945637Y-101932000D02*
X178898018Y-101836762D01*
X178898018Y-101836762D02*
X178850399Y-101789143D01*
X178850399Y-101789143D02*
X178755161Y-101741524D01*
X178755161Y-101741524D02*
X178612304Y-101741524D01*
X178612304Y-101741524D02*
X178517066Y-101789143D01*
X178517066Y-101789143D02*
X178469447Y-101836762D01*
X178469447Y-101836762D02*
X178421828Y-101932000D01*
X178421828Y-101932000D02*
X178421828Y-102312952D01*
X177945637Y-101312952D02*
X178945637Y-101312952D01*
X178850399Y-100884381D02*
X178898018Y-100836762D01*
X178898018Y-100836762D02*
X178945637Y-100741524D01*
X178945637Y-100741524D02*
X178945637Y-100503429D01*
X178945637Y-100503429D02*
X178898018Y-100408191D01*
X178898018Y-100408191D02*
X178850399Y-100360572D01*
X178850399Y-100360572D02*
X178755161Y-100312953D01*
X178755161Y-100312953D02*
X178659923Y-100312953D01*
X178659923Y-100312953D02*
X178517066Y-100360572D01*
X178517066Y-100360572D02*
X177945637Y-100932000D01*
X177945637Y-100932000D02*
X177945637Y-100312953D01*
X178945637Y-99217714D02*
X178945637Y-98598667D01*
X178945637Y-98598667D02*
X178564685Y-98932000D01*
X178564685Y-98932000D02*
X178564685Y-98789143D01*
X178564685Y-98789143D02*
X178517066Y-98693905D01*
X178517066Y-98693905D02*
X178469447Y-98646286D01*
X178469447Y-98646286D02*
X178374209Y-98598667D01*
X178374209Y-98598667D02*
X178136114Y-98598667D01*
X178136114Y-98598667D02*
X178040876Y-98646286D01*
X178040876Y-98646286D02*
X177993257Y-98693905D01*
X177993257Y-98693905D02*
X177945637Y-98789143D01*
X177945637Y-98789143D02*
X177945637Y-99074857D01*
X177945637Y-99074857D02*
X177993257Y-99170095D01*
X177993257Y-99170095D02*
X178040876Y-99217714D01*
X178945637Y-98312952D02*
X177945637Y-97979619D01*
X177945637Y-97979619D02*
X178945637Y-97646286D01*
X178945637Y-97408190D02*
X178945637Y-96789143D01*
X178945637Y-96789143D02*
X178564685Y-97122476D01*
X178564685Y-97122476D02*
X178564685Y-96979619D01*
X178564685Y-96979619D02*
X178517066Y-96884381D01*
X178517066Y-96884381D02*
X178469447Y-96836762D01*
X178469447Y-96836762D02*
X178374209Y-96789143D01*
X178374209Y-96789143D02*
X178136114Y-96789143D01*
X178136114Y-96789143D02*
X178040876Y-96836762D01*
X178040876Y-96836762D02*
X177993257Y-96884381D01*
X177993257Y-96884381D02*
X177945637Y-96979619D01*
X177945637Y-96979619D02*
X177945637Y-97265333D01*
X177945637Y-97265333D02*
X177993257Y-97360571D01*
X177993257Y-97360571D02*
X178040876Y-97408190D01*
X183176500Y-96727287D02*
X183128880Y-96584430D01*
X183128880Y-96584430D02*
X183128880Y-96346335D01*
X183128880Y-96346335D02*
X183176500Y-96251097D01*
X183176500Y-96251097D02*
X183224119Y-96203478D01*
X183224119Y-96203478D02*
X183319357Y-96155859D01*
X183319357Y-96155859D02*
X183414595Y-96155859D01*
X183414595Y-96155859D02*
X183509833Y-96203478D01*
X183509833Y-96203478D02*
X183557452Y-96251097D01*
X183557452Y-96251097D02*
X183605071Y-96346335D01*
X183605071Y-96346335D02*
X183652690Y-96536811D01*
X183652690Y-96536811D02*
X183700309Y-96632049D01*
X183700309Y-96632049D02*
X183747928Y-96679668D01*
X183747928Y-96679668D02*
X183843166Y-96727287D01*
X183843166Y-96727287D02*
X183938404Y-96727287D01*
X183938404Y-96727287D02*
X184033642Y-96679668D01*
X184033642Y-96679668D02*
X184081261Y-96632049D01*
X184081261Y-96632049D02*
X184128880Y-96536811D01*
X184128880Y-96536811D02*
X184128880Y-96298716D01*
X184128880Y-96298716D02*
X184081261Y-96155859D01*
X183128880Y-95727287D02*
X184128880Y-95727287D01*
X184128880Y-95727287D02*
X184128880Y-95346335D01*
X184128880Y-95346335D02*
X184081261Y-95251097D01*
X184081261Y-95251097D02*
X184033642Y-95203478D01*
X184033642Y-95203478D02*
X183938404Y-95155859D01*
X183938404Y-95155859D02*
X183795547Y-95155859D01*
X183795547Y-95155859D02*
X183700309Y-95203478D01*
X183700309Y-95203478D02*
X183652690Y-95251097D01*
X183652690Y-95251097D02*
X183605071Y-95346335D01*
X183605071Y-95346335D02*
X183605071Y-95727287D01*
X183128880Y-94727287D02*
X184128880Y-94727287D01*
X183128880Y-93727288D02*
X183128880Y-94298716D01*
X183128880Y-94013002D02*
X184128880Y-94013002D01*
X184128880Y-94013002D02*
X183986023Y-94108240D01*
X183986023Y-94108240D02*
X183890785Y-94203478D01*
X183890785Y-94203478D02*
X183843166Y-94298716D01*
X184128880Y-92632049D02*
X184128880Y-92013002D01*
X184128880Y-92013002D02*
X183747928Y-92346335D01*
X183747928Y-92346335D02*
X183747928Y-92203478D01*
X183747928Y-92203478D02*
X183700309Y-92108240D01*
X183700309Y-92108240D02*
X183652690Y-92060621D01*
X183652690Y-92060621D02*
X183557452Y-92013002D01*
X183557452Y-92013002D02*
X183319357Y-92013002D01*
X183319357Y-92013002D02*
X183224119Y-92060621D01*
X183224119Y-92060621D02*
X183176500Y-92108240D01*
X183176500Y-92108240D02*
X183128880Y-92203478D01*
X183128880Y-92203478D02*
X183128880Y-92489192D01*
X183128880Y-92489192D02*
X183176500Y-92584430D01*
X183176500Y-92584430D02*
X183224119Y-92632049D01*
X184128880Y-91727287D02*
X183128880Y-91393954D01*
X183128880Y-91393954D02*
X184128880Y-91060621D01*
X184128880Y-90822525D02*
X184128880Y-90203478D01*
X184128880Y-90203478D02*
X183747928Y-90536811D01*
X183747928Y-90536811D02*
X183747928Y-90393954D01*
X183747928Y-90393954D02*
X183700309Y-90298716D01*
X183700309Y-90298716D02*
X183652690Y-90251097D01*
X183652690Y-90251097D02*
X183557452Y-90203478D01*
X183557452Y-90203478D02*
X183319357Y-90203478D01*
X183319357Y-90203478D02*
X183224119Y-90251097D01*
X183224119Y-90251097D02*
X183176500Y-90298716D01*
X183176500Y-90298716D02*
X183128880Y-90393954D01*
X183128880Y-90393954D02*
X183128880Y-90679668D01*
X183128880Y-90679668D02*
X183176500Y-90774906D01*
X183176500Y-90774906D02*
X183224119Y-90822525D01*
X185176500Y-96727287D02*
X185128880Y-96584430D01*
X185128880Y-96584430D02*
X185128880Y-96346335D01*
X185128880Y-96346335D02*
X185176500Y-96251097D01*
X185176500Y-96251097D02*
X185224119Y-96203478D01*
X185224119Y-96203478D02*
X185319357Y-96155859D01*
X185319357Y-96155859D02*
X185414595Y-96155859D01*
X185414595Y-96155859D02*
X185509833Y-96203478D01*
X185509833Y-96203478D02*
X185557452Y-96251097D01*
X185557452Y-96251097D02*
X185605071Y-96346335D01*
X185605071Y-96346335D02*
X185652690Y-96536811D01*
X185652690Y-96536811D02*
X185700309Y-96632049D01*
X185700309Y-96632049D02*
X185747928Y-96679668D01*
X185747928Y-96679668D02*
X185843166Y-96727287D01*
X185843166Y-96727287D02*
X185938404Y-96727287D01*
X185938404Y-96727287D02*
X186033642Y-96679668D01*
X186033642Y-96679668D02*
X186081261Y-96632049D01*
X186081261Y-96632049D02*
X186128880Y-96536811D01*
X186128880Y-96536811D02*
X186128880Y-96298716D01*
X186128880Y-96298716D02*
X186081261Y-96155859D01*
X185128880Y-95727287D02*
X186128880Y-95727287D01*
X186128880Y-95727287D02*
X186128880Y-95346335D01*
X186128880Y-95346335D02*
X186081261Y-95251097D01*
X186081261Y-95251097D02*
X186033642Y-95203478D01*
X186033642Y-95203478D02*
X185938404Y-95155859D01*
X185938404Y-95155859D02*
X185795547Y-95155859D01*
X185795547Y-95155859D02*
X185700309Y-95203478D01*
X185700309Y-95203478D02*
X185652690Y-95251097D01*
X185652690Y-95251097D02*
X185605071Y-95346335D01*
X185605071Y-95346335D02*
X185605071Y-95727287D01*
X185128880Y-94727287D02*
X186128880Y-94727287D01*
X185128880Y-93727288D02*
X185128880Y-94298716D01*
X185128880Y-94013002D02*
X186128880Y-94013002D01*
X186128880Y-94013002D02*
X185986023Y-94108240D01*
X185986023Y-94108240D02*
X185890785Y-94203478D01*
X185890785Y-94203478D02*
X185843166Y-94298716D01*
X186128880Y-92060621D02*
X186128880Y-92536811D01*
X186128880Y-92536811D02*
X185652690Y-92584430D01*
X185652690Y-92584430D02*
X185700309Y-92536811D01*
X185700309Y-92536811D02*
X185747928Y-92441573D01*
X185747928Y-92441573D02*
X185747928Y-92203478D01*
X185747928Y-92203478D02*
X185700309Y-92108240D01*
X185700309Y-92108240D02*
X185652690Y-92060621D01*
X185652690Y-92060621D02*
X185557452Y-92013002D01*
X185557452Y-92013002D02*
X185319357Y-92013002D01*
X185319357Y-92013002D02*
X185224119Y-92060621D01*
X185224119Y-92060621D02*
X185176500Y-92108240D01*
X185176500Y-92108240D02*
X185128880Y-92203478D01*
X185128880Y-92203478D02*
X185128880Y-92441573D01*
X185128880Y-92441573D02*
X185176500Y-92536811D01*
X185176500Y-92536811D02*
X185224119Y-92584430D01*
X186128880Y-91727287D02*
X185128880Y-91393954D01*
X185128880Y-91393954D02*
X186128880Y-91060621D01*
X175742473Y-88731719D02*
X174932950Y-88731719D01*
X174932950Y-88731719D02*
X174837712Y-88684100D01*
X174837712Y-88684100D02*
X174790093Y-88636481D01*
X174790093Y-88636481D02*
X174742473Y-88541243D01*
X174742473Y-88541243D02*
X174742473Y-88350767D01*
X174742473Y-88350767D02*
X174790093Y-88255529D01*
X174790093Y-88255529D02*
X174837712Y-88207910D01*
X174837712Y-88207910D02*
X174932950Y-88160291D01*
X174932950Y-88160291D02*
X175742473Y-88160291D01*
X175028188Y-87731719D02*
X175028188Y-87255529D01*
X174742473Y-87826957D02*
X175742473Y-87493624D01*
X175742473Y-87493624D02*
X174742473Y-87160291D01*
X174742473Y-86255529D02*
X175218664Y-86588862D01*
X174742473Y-86826957D02*
X175742473Y-86826957D01*
X175742473Y-86826957D02*
X175742473Y-86446005D01*
X175742473Y-86446005D02*
X175694854Y-86350767D01*
X175694854Y-86350767D02*
X175647235Y-86303148D01*
X175647235Y-86303148D02*
X175551997Y-86255529D01*
X175551997Y-86255529D02*
X175409140Y-86255529D01*
X175409140Y-86255529D02*
X175313902Y-86303148D01*
X175313902Y-86303148D02*
X175266283Y-86350767D01*
X175266283Y-86350767D02*
X175218664Y-86446005D01*
X175218664Y-86446005D02*
X175218664Y-86826957D01*
X175742473Y-85969814D02*
X175742473Y-85398386D01*
X174742473Y-85684100D02*
X175742473Y-85684100D01*
X175742473Y-84398385D02*
X175742473Y-83779338D01*
X175742473Y-83779338D02*
X175361521Y-84112671D01*
X175361521Y-84112671D02*
X175361521Y-83969814D01*
X175361521Y-83969814D02*
X175313902Y-83874576D01*
X175313902Y-83874576D02*
X175266283Y-83826957D01*
X175266283Y-83826957D02*
X175171045Y-83779338D01*
X175171045Y-83779338D02*
X174932950Y-83779338D01*
X174932950Y-83779338D02*
X174837712Y-83826957D01*
X174837712Y-83826957D02*
X174790093Y-83874576D01*
X174790093Y-83874576D02*
X174742473Y-83969814D01*
X174742473Y-83969814D02*
X174742473Y-84255528D01*
X174742473Y-84255528D02*
X174790093Y-84350766D01*
X174790093Y-84350766D02*
X174837712Y-84398385D01*
X175742473Y-83493623D02*
X174742473Y-83160290D01*
X174742473Y-83160290D02*
X175742473Y-82826957D01*
X175742473Y-82588861D02*
X175742473Y-81969814D01*
X175742473Y-81969814D02*
X175361521Y-82303147D01*
X175361521Y-82303147D02*
X175361521Y-82160290D01*
X175361521Y-82160290D02*
X175313902Y-82065052D01*
X175313902Y-82065052D02*
X175266283Y-82017433D01*
X175266283Y-82017433D02*
X175171045Y-81969814D01*
X175171045Y-81969814D02*
X174932950Y-81969814D01*
X174932950Y-81969814D02*
X174837712Y-82017433D01*
X174837712Y-82017433D02*
X174790093Y-82065052D01*
X174790093Y-82065052D02*
X174742473Y-82160290D01*
X174742473Y-82160290D02*
X174742473Y-82446004D01*
X174742473Y-82446004D02*
X174790093Y-82541242D01*
X174790093Y-82541242D02*
X174837712Y-82588861D01*
X173128880Y-88679668D02*
X172319357Y-88679668D01*
X172319357Y-88679668D02*
X172224119Y-88632049D01*
X172224119Y-88632049D02*
X172176500Y-88584430D01*
X172176500Y-88584430D02*
X172128880Y-88489192D01*
X172128880Y-88489192D02*
X172128880Y-88298716D01*
X172128880Y-88298716D02*
X172176500Y-88203478D01*
X172176500Y-88203478D02*
X172224119Y-88155859D01*
X172224119Y-88155859D02*
X172319357Y-88108240D01*
X172319357Y-88108240D02*
X173128880Y-88108240D01*
X172414595Y-87679668D02*
X172414595Y-87203478D01*
X172128880Y-87774906D02*
X173128880Y-87441573D01*
X173128880Y-87441573D02*
X172128880Y-87108240D01*
X172128880Y-86203478D02*
X172605071Y-86536811D01*
X172128880Y-86774906D02*
X173128880Y-86774906D01*
X173128880Y-86774906D02*
X173128880Y-86393954D01*
X173128880Y-86393954D02*
X173081261Y-86298716D01*
X173081261Y-86298716D02*
X173033642Y-86251097D01*
X173033642Y-86251097D02*
X172938404Y-86203478D01*
X172938404Y-86203478D02*
X172795547Y-86203478D01*
X172795547Y-86203478D02*
X172700309Y-86251097D01*
X172700309Y-86251097D02*
X172652690Y-86298716D01*
X172652690Y-86298716D02*
X172605071Y-86393954D01*
X172605071Y-86393954D02*
X172605071Y-86774906D01*
X173128880Y-85917763D02*
X173128880Y-85346335D01*
X172128880Y-85632049D02*
X173128880Y-85632049D01*
X173128880Y-83774906D02*
X173128880Y-84251096D01*
X173128880Y-84251096D02*
X172652690Y-84298715D01*
X172652690Y-84298715D02*
X172700309Y-84251096D01*
X172700309Y-84251096D02*
X172747928Y-84155858D01*
X172747928Y-84155858D02*
X172747928Y-83917763D01*
X172747928Y-83917763D02*
X172700309Y-83822525D01*
X172700309Y-83822525D02*
X172652690Y-83774906D01*
X172652690Y-83774906D02*
X172557452Y-83727287D01*
X172557452Y-83727287D02*
X172319357Y-83727287D01*
X172319357Y-83727287D02*
X172224119Y-83774906D01*
X172224119Y-83774906D02*
X172176500Y-83822525D01*
X172176500Y-83822525D02*
X172128880Y-83917763D01*
X172128880Y-83917763D02*
X172128880Y-84155858D01*
X172128880Y-84155858D02*
X172176500Y-84251096D01*
X172176500Y-84251096D02*
X172224119Y-84298715D01*
X173128880Y-83441572D02*
X172128880Y-83108239D01*
X172128880Y-83108239D02*
X173128880Y-82774906D01*
D12*
X201375489Y-75098328D02*
X201375489Y-73598328D01*
X201375489Y-73598328D02*
X200518346Y-75098328D01*
X200518346Y-75098328D02*
X200518346Y-73598328D01*
X199804060Y-75098328D02*
X199804060Y-73598328D01*
X199089774Y-75098328D02*
X199089774Y-73598328D01*
X198232631Y-75098328D02*
X198875488Y-74241185D01*
X198232631Y-73598328D02*
X199089774Y-74455471D01*
X197304059Y-73598328D02*
X197018345Y-73598328D01*
X197018345Y-73598328D02*
X196875488Y-73669757D01*
X196875488Y-73669757D02*
X196732631Y-73812614D01*
X196732631Y-73812614D02*
X196661202Y-74098328D01*
X196661202Y-74098328D02*
X196661202Y-74598328D01*
X196661202Y-74598328D02*
X196732631Y-74884042D01*
X196732631Y-74884042D02*
X196875488Y-75026900D01*
X196875488Y-75026900D02*
X197018345Y-75098328D01*
X197018345Y-75098328D02*
X197304059Y-75098328D01*
X197304059Y-75098328D02*
X197446917Y-75026900D01*
X197446917Y-75026900D02*
X197589774Y-74884042D01*
X197589774Y-74884042D02*
X197661202Y-74598328D01*
X197661202Y-74598328D02*
X197661202Y-74098328D01*
X197661202Y-74098328D02*
X197589774Y-73812614D01*
X197589774Y-73812614D02*
X197446917Y-73669757D01*
X197446917Y-73669757D02*
X197304059Y-73598328D01*
X196018345Y-75098328D02*
X196018345Y-73598328D01*
X196018345Y-73598328D02*
X195661202Y-73598328D01*
X195661202Y-73598328D02*
X195446916Y-73669757D01*
X195446916Y-73669757D02*
X195304059Y-73812614D01*
X195304059Y-73812614D02*
X195232630Y-73955471D01*
X195232630Y-73955471D02*
X195161202Y-74241185D01*
X195161202Y-74241185D02*
X195161202Y-74455471D01*
X195161202Y-74455471D02*
X195232630Y-74741185D01*
X195232630Y-74741185D02*
X195304059Y-74884042D01*
X195304059Y-74884042D02*
X195446916Y-75026900D01*
X195446916Y-75026900D02*
X195661202Y-75098328D01*
X195661202Y-75098328D02*
X196018345Y-75098328D01*
X194518345Y-74312614D02*
X194018345Y-74312614D01*
X193804059Y-75098328D02*
X194518345Y-75098328D01*
X194518345Y-75098328D02*
X194518345Y-73598328D01*
X194518345Y-73598328D02*
X193804059Y-73598328D01*
X193161202Y-75098328D02*
X193161202Y-73598328D01*
X193161202Y-73598328D02*
X192661202Y-74669757D01*
X192661202Y-74669757D02*
X192161202Y-73598328D01*
X192161202Y-73598328D02*
X192161202Y-75098328D01*
X189804059Y-74312614D02*
X189589773Y-74384042D01*
X189589773Y-74384042D02*
X189518344Y-74455471D01*
X189518344Y-74455471D02*
X189446916Y-74598328D01*
X189446916Y-74598328D02*
X189446916Y-74812614D01*
X189446916Y-74812614D02*
X189518344Y-74955471D01*
X189518344Y-74955471D02*
X189589773Y-75026900D01*
X189589773Y-75026900D02*
X189732630Y-75098328D01*
X189732630Y-75098328D02*
X190304059Y-75098328D01*
X190304059Y-75098328D02*
X190304059Y-73598328D01*
X190304059Y-73598328D02*
X189804059Y-73598328D01*
X189804059Y-73598328D02*
X189661202Y-73669757D01*
X189661202Y-73669757D02*
X189589773Y-73741185D01*
X189589773Y-73741185D02*
X189518344Y-73884042D01*
X189518344Y-73884042D02*
X189518344Y-74026900D01*
X189518344Y-74026900D02*
X189589773Y-74169757D01*
X189589773Y-74169757D02*
X189661202Y-74241185D01*
X189661202Y-74241185D02*
X189804059Y-74312614D01*
X189804059Y-74312614D02*
X190304059Y-74312614D01*
X188875487Y-74669757D02*
X188161202Y-74669757D01*
X189018344Y-75098328D02*
X188518344Y-73598328D01*
X188518344Y-73598328D02*
X188018344Y-75098328D01*
X186661202Y-75098328D02*
X187161202Y-74384042D01*
X187518345Y-75098328D02*
X187518345Y-73598328D01*
X187518345Y-73598328D02*
X186946916Y-73598328D01*
X186946916Y-73598328D02*
X186804059Y-73669757D01*
X186804059Y-73669757D02*
X186732630Y-73741185D01*
X186732630Y-73741185D02*
X186661202Y-73884042D01*
X186661202Y-73884042D02*
X186661202Y-74098328D01*
X186661202Y-74098328D02*
X186732630Y-74241185D01*
X186732630Y-74241185D02*
X186804059Y-74312614D01*
X186804059Y-74312614D02*
X186946916Y-74384042D01*
X186946916Y-74384042D02*
X187518345Y-74384042D01*
X186232630Y-73598328D02*
X185375488Y-73598328D01*
X185804059Y-75098328D02*
X185804059Y-73598328D01*
X184875488Y-75098328D02*
X184875488Y-73598328D01*
X184875488Y-73598328D02*
X184018345Y-75098328D01*
X184018345Y-75098328D02*
X184018345Y-73598328D01*
X183304059Y-75098328D02*
X183304059Y-73598328D01*
X182589773Y-75098328D02*
X182589773Y-73598328D01*
X181732630Y-75098328D02*
X182375487Y-74241185D01*
X181732630Y-73598328D02*
X182589773Y-74455471D01*
X201375489Y-77513328D02*
X201375489Y-76013328D01*
X200661203Y-77513328D02*
X200661203Y-76013328D01*
X200661203Y-76013328D02*
X199804060Y-77513328D01*
X199804060Y-77513328D02*
X199804060Y-76013328D01*
X199089774Y-77513328D02*
X199089774Y-76013328D01*
X199089774Y-76013328D02*
X198732631Y-76013328D01*
X198732631Y-76013328D02*
X198518345Y-76084757D01*
X198518345Y-76084757D02*
X198375488Y-76227614D01*
X198375488Y-76227614D02*
X198304059Y-76370471D01*
X198304059Y-76370471D02*
X198232631Y-76656185D01*
X198232631Y-76656185D02*
X198232631Y-76870471D01*
X198232631Y-76870471D02*
X198304059Y-77156185D01*
X198304059Y-77156185D02*
X198375488Y-77299042D01*
X198375488Y-77299042D02*
X198518345Y-77441900D01*
X198518345Y-77441900D02*
X198732631Y-77513328D01*
X198732631Y-77513328D02*
X199089774Y-77513328D01*
X197304059Y-76799042D02*
X197304059Y-77513328D01*
X197804059Y-76013328D02*
X197304059Y-76799042D01*
X197304059Y-76799042D02*
X196804059Y-76013328D01*
X196375488Y-77441900D02*
X196161203Y-77513328D01*
X196161203Y-77513328D02*
X195804060Y-77513328D01*
X195804060Y-77513328D02*
X195661203Y-77441900D01*
X195661203Y-77441900D02*
X195589774Y-77370471D01*
X195589774Y-77370471D02*
X195518345Y-77227614D01*
X195518345Y-77227614D02*
X195518345Y-77084757D01*
X195518345Y-77084757D02*
X195589774Y-76941900D01*
X195589774Y-76941900D02*
X195661203Y-76870471D01*
X195661203Y-76870471D02*
X195804060Y-76799042D01*
X195804060Y-76799042D02*
X196089774Y-76727614D01*
X196089774Y-76727614D02*
X196232631Y-76656185D01*
X196232631Y-76656185D02*
X196304060Y-76584757D01*
X196304060Y-76584757D02*
X196375488Y-76441900D01*
X196375488Y-76441900D02*
X196375488Y-76299042D01*
X196375488Y-76299042D02*
X196304060Y-76156185D01*
X196304060Y-76156185D02*
X196232631Y-76084757D01*
X196232631Y-76084757D02*
X196089774Y-76013328D01*
X196089774Y-76013328D02*
X195732631Y-76013328D01*
X195732631Y-76013328D02*
X195518345Y-76084757D01*
X195089774Y-76013328D02*
X194232632Y-76013328D01*
X194661203Y-77513328D02*
X194661203Y-76013328D01*
X192875489Y-77513328D02*
X193375489Y-76799042D01*
X193732632Y-77513328D02*
X193732632Y-76013328D01*
X193732632Y-76013328D02*
X193161203Y-76013328D01*
X193161203Y-76013328D02*
X193018346Y-76084757D01*
X193018346Y-76084757D02*
X192946917Y-76156185D01*
X192946917Y-76156185D02*
X192875489Y-76299042D01*
X192875489Y-76299042D02*
X192875489Y-76513328D01*
X192875489Y-76513328D02*
X192946917Y-76656185D01*
X192946917Y-76656185D02*
X193018346Y-76727614D01*
X193018346Y-76727614D02*
X193161203Y-76799042D01*
X193161203Y-76799042D02*
X193732632Y-76799042D01*
X191946917Y-76799042D02*
X191946917Y-77513328D01*
X192446917Y-76013328D02*
X191946917Y-76799042D01*
X191946917Y-76799042D02*
X191446917Y-76013328D01*
X190946918Y-77370471D02*
X190875489Y-77441900D01*
X190875489Y-77441900D02*
X190946918Y-77513328D01*
X190946918Y-77513328D02*
X191018346Y-77441900D01*
X191018346Y-77441900D02*
X190946918Y-77370471D01*
X190946918Y-77370471D02*
X190946918Y-77513328D01*
X189375489Y-77370471D02*
X189446917Y-77441900D01*
X189446917Y-77441900D02*
X189661203Y-77513328D01*
X189661203Y-77513328D02*
X189804060Y-77513328D01*
X189804060Y-77513328D02*
X190018346Y-77441900D01*
X190018346Y-77441900D02*
X190161203Y-77299042D01*
X190161203Y-77299042D02*
X190232632Y-77156185D01*
X190232632Y-77156185D02*
X190304060Y-76870471D01*
X190304060Y-76870471D02*
X190304060Y-76656185D01*
X190304060Y-76656185D02*
X190232632Y-76370471D01*
X190232632Y-76370471D02*
X190161203Y-76227614D01*
X190161203Y-76227614D02*
X190018346Y-76084757D01*
X190018346Y-76084757D02*
X189804060Y-76013328D01*
X189804060Y-76013328D02*
X189661203Y-76013328D01*
X189661203Y-76013328D02*
X189446917Y-76084757D01*
X189446917Y-76084757D02*
X189375489Y-76156185D01*
X187875489Y-77370471D02*
X187946917Y-77441900D01*
X187946917Y-77441900D02*
X188161203Y-77513328D01*
X188161203Y-77513328D02*
X188304060Y-77513328D01*
X188304060Y-77513328D02*
X188518346Y-77441900D01*
X188518346Y-77441900D02*
X188661203Y-77299042D01*
X188661203Y-77299042D02*
X188732632Y-77156185D01*
X188732632Y-77156185D02*
X188804060Y-76870471D01*
X188804060Y-76870471D02*
X188804060Y-76656185D01*
X188804060Y-76656185D02*
X188732632Y-76370471D01*
X188732632Y-76370471D02*
X188661203Y-76227614D01*
X188661203Y-76227614D02*
X188518346Y-76084757D01*
X188518346Y-76084757D02*
X188304060Y-76013328D01*
X188304060Y-76013328D02*
X188161203Y-76013328D01*
X188161203Y-76013328D02*
X187946917Y-76084757D01*
X187946917Y-76084757D02*
X187875489Y-76156185D01*
X200589774Y-79928328D02*
X201446917Y-79928328D01*
X201018346Y-79928328D02*
X201018346Y-78428328D01*
X201018346Y-78428328D02*
X201161203Y-78642614D01*
X201161203Y-78642614D02*
X201304060Y-78785471D01*
X201304060Y-78785471D02*
X201446917Y-78856900D01*
X199732632Y-79071185D02*
X199875489Y-78999757D01*
X199875489Y-78999757D02*
X199946918Y-78928328D01*
X199946918Y-78928328D02*
X200018346Y-78785471D01*
X200018346Y-78785471D02*
X200018346Y-78714042D01*
X200018346Y-78714042D02*
X199946918Y-78571185D01*
X199946918Y-78571185D02*
X199875489Y-78499757D01*
X199875489Y-78499757D02*
X199732632Y-78428328D01*
X199732632Y-78428328D02*
X199446918Y-78428328D01*
X199446918Y-78428328D02*
X199304061Y-78499757D01*
X199304061Y-78499757D02*
X199232632Y-78571185D01*
X199232632Y-78571185D02*
X199161203Y-78714042D01*
X199161203Y-78714042D02*
X199161203Y-78785471D01*
X199161203Y-78785471D02*
X199232632Y-78928328D01*
X199232632Y-78928328D02*
X199304061Y-78999757D01*
X199304061Y-78999757D02*
X199446918Y-79071185D01*
X199446918Y-79071185D02*
X199732632Y-79071185D01*
X199732632Y-79071185D02*
X199875489Y-79142614D01*
X199875489Y-79142614D02*
X199946918Y-79214042D01*
X199946918Y-79214042D02*
X200018346Y-79356900D01*
X200018346Y-79356900D02*
X200018346Y-79642614D01*
X200018346Y-79642614D02*
X199946918Y-79785471D01*
X199946918Y-79785471D02*
X199875489Y-79856900D01*
X199875489Y-79856900D02*
X199732632Y-79928328D01*
X199732632Y-79928328D02*
X199446918Y-79928328D01*
X199446918Y-79928328D02*
X199304061Y-79856900D01*
X199304061Y-79856900D02*
X199232632Y-79785471D01*
X199232632Y-79785471D02*
X199161203Y-79642614D01*
X199161203Y-79642614D02*
X199161203Y-79356900D01*
X199161203Y-79356900D02*
X199232632Y-79214042D01*
X199232632Y-79214042D02*
X199304061Y-79142614D01*
X199304061Y-79142614D02*
X199446918Y-79071185D01*
X198518347Y-79785471D02*
X198446918Y-79856900D01*
X198446918Y-79856900D02*
X198518347Y-79928328D01*
X198518347Y-79928328D02*
X198589775Y-79856900D01*
X198589775Y-79856900D02*
X198518347Y-79785471D01*
X198518347Y-79785471D02*
X198518347Y-79928328D01*
X197518346Y-78428328D02*
X197375489Y-78428328D01*
X197375489Y-78428328D02*
X197232632Y-78499757D01*
X197232632Y-78499757D02*
X197161204Y-78571185D01*
X197161204Y-78571185D02*
X197089775Y-78714042D01*
X197089775Y-78714042D02*
X197018346Y-78999757D01*
X197018346Y-78999757D02*
X197018346Y-79356900D01*
X197018346Y-79356900D02*
X197089775Y-79642614D01*
X197089775Y-79642614D02*
X197161204Y-79785471D01*
X197161204Y-79785471D02*
X197232632Y-79856900D01*
X197232632Y-79856900D02*
X197375489Y-79928328D01*
X197375489Y-79928328D02*
X197518346Y-79928328D01*
X197518346Y-79928328D02*
X197661204Y-79856900D01*
X197661204Y-79856900D02*
X197732632Y-79785471D01*
X197732632Y-79785471D02*
X197804061Y-79642614D01*
X197804061Y-79642614D02*
X197875489Y-79356900D01*
X197875489Y-79356900D02*
X197875489Y-78999757D01*
X197875489Y-78999757D02*
X197804061Y-78714042D01*
X197804061Y-78714042D02*
X197732632Y-78571185D01*
X197732632Y-78571185D02*
X197661204Y-78499757D01*
X197661204Y-78499757D02*
X197518346Y-78428328D01*
X196518347Y-78428328D02*
X195589775Y-78428328D01*
X195589775Y-78428328D02*
X196089775Y-78999757D01*
X196089775Y-78999757D02*
X195875490Y-78999757D01*
X195875490Y-78999757D02*
X195732633Y-79071185D01*
X195732633Y-79071185D02*
X195661204Y-79142614D01*
X195661204Y-79142614D02*
X195589775Y-79285471D01*
X195589775Y-79285471D02*
X195589775Y-79642614D01*
X195589775Y-79642614D02*
X195661204Y-79785471D01*
X195661204Y-79785471D02*
X195732633Y-79856900D01*
X195732633Y-79856900D02*
X195875490Y-79928328D01*
X195875490Y-79928328D02*
X196304061Y-79928328D01*
X196304061Y-79928328D02*
X196446918Y-79856900D01*
X196446918Y-79856900D02*
X196518347Y-79785471D01*
X194946919Y-79785471D02*
X194875490Y-79856900D01*
X194875490Y-79856900D02*
X194946919Y-79928328D01*
X194946919Y-79928328D02*
X195018347Y-79856900D01*
X195018347Y-79856900D02*
X194946919Y-79785471D01*
X194946919Y-79785471D02*
X194946919Y-79928328D01*
X194304061Y-78571185D02*
X194232633Y-78499757D01*
X194232633Y-78499757D02*
X194089776Y-78428328D01*
X194089776Y-78428328D02*
X193732633Y-78428328D01*
X193732633Y-78428328D02*
X193589776Y-78499757D01*
X193589776Y-78499757D02*
X193518347Y-78571185D01*
X193518347Y-78571185D02*
X193446918Y-78714042D01*
X193446918Y-78714042D02*
X193446918Y-78856900D01*
X193446918Y-78856900D02*
X193518347Y-79071185D01*
X193518347Y-79071185D02*
X194375490Y-79928328D01*
X194375490Y-79928328D02*
X193446918Y-79928328D01*
X192518347Y-78428328D02*
X192375490Y-78428328D01*
X192375490Y-78428328D02*
X192232633Y-78499757D01*
X192232633Y-78499757D02*
X192161205Y-78571185D01*
X192161205Y-78571185D02*
X192089776Y-78714042D01*
X192089776Y-78714042D02*
X192018347Y-78999757D01*
X192018347Y-78999757D02*
X192018347Y-79356900D01*
X192018347Y-79356900D02*
X192089776Y-79642614D01*
X192089776Y-79642614D02*
X192161205Y-79785471D01*
X192161205Y-79785471D02*
X192232633Y-79856900D01*
X192232633Y-79856900D02*
X192375490Y-79928328D01*
X192375490Y-79928328D02*
X192518347Y-79928328D01*
X192518347Y-79928328D02*
X192661205Y-79856900D01*
X192661205Y-79856900D02*
X192732633Y-79785471D01*
X192732633Y-79785471D02*
X192804062Y-79642614D01*
X192804062Y-79642614D02*
X192875490Y-79356900D01*
X192875490Y-79356900D02*
X192875490Y-78999757D01*
X192875490Y-78999757D02*
X192804062Y-78714042D01*
X192804062Y-78714042D02*
X192732633Y-78571185D01*
X192732633Y-78571185D02*
X192661205Y-78499757D01*
X192661205Y-78499757D02*
X192518347Y-78428328D01*
X191446919Y-78571185D02*
X191375491Y-78499757D01*
X191375491Y-78499757D02*
X191232634Y-78428328D01*
X191232634Y-78428328D02*
X190875491Y-78428328D01*
X190875491Y-78428328D02*
X190732634Y-78499757D01*
X190732634Y-78499757D02*
X190661205Y-78571185D01*
X190661205Y-78571185D02*
X190589776Y-78714042D01*
X190589776Y-78714042D02*
X190589776Y-78856900D01*
X190589776Y-78856900D02*
X190661205Y-79071185D01*
X190661205Y-79071185D02*
X191518348Y-79928328D01*
X191518348Y-79928328D02*
X190589776Y-79928328D01*
X189304063Y-78928328D02*
X189304063Y-79928328D01*
X189661205Y-78356900D02*
X190018348Y-79428328D01*
X190018348Y-79428328D02*
X189089777Y-79428328D01*
D13*
X216724033Y-63913992D02*
X216724033Y-62897992D01*
X216724033Y-62897992D02*
X216385366Y-63623707D01*
X216385366Y-63623707D02*
X216046699Y-62897992D01*
X216046699Y-62897992D02*
X216046699Y-63913992D01*
X215611271Y-63865612D02*
X215466128Y-63913992D01*
X215466128Y-63913992D02*
X215224223Y-63913992D01*
X215224223Y-63913992D02*
X215127461Y-63865612D01*
X215127461Y-63865612D02*
X215079080Y-63817231D01*
X215079080Y-63817231D02*
X215030699Y-63720469D01*
X215030699Y-63720469D02*
X215030699Y-63623707D01*
X215030699Y-63623707D02*
X215079080Y-63526945D01*
X215079080Y-63526945D02*
X215127461Y-63478564D01*
X215127461Y-63478564D02*
X215224223Y-63430183D01*
X215224223Y-63430183D02*
X215417747Y-63381802D01*
X215417747Y-63381802D02*
X215514509Y-63333421D01*
X215514509Y-63333421D02*
X215562890Y-63285040D01*
X215562890Y-63285040D02*
X215611271Y-63188278D01*
X215611271Y-63188278D02*
X215611271Y-63091516D01*
X215611271Y-63091516D02*
X215562890Y-62994754D01*
X215562890Y-62994754D02*
X215514509Y-62946373D01*
X215514509Y-62946373D02*
X215417747Y-62897992D01*
X215417747Y-62897992D02*
X215175842Y-62897992D01*
X215175842Y-62897992D02*
X215030699Y-62946373D01*
X214063080Y-63913992D02*
X214643652Y-63913992D01*
X214353366Y-63913992D02*
X214353366Y-62897992D01*
X214353366Y-62897992D02*
X214450128Y-63043135D01*
X214450128Y-63043135D02*
X214546890Y-63139897D01*
X214546890Y-63139897D02*
X214643652Y-63188278D01*
X216805727Y-87681058D02*
X216805727Y-86665058D01*
X216805727Y-86665058D02*
X216467060Y-87390773D01*
X216467060Y-87390773D02*
X216128393Y-86665058D01*
X216128393Y-86665058D02*
X216128393Y-87681058D01*
X215692965Y-87632678D02*
X215547822Y-87681058D01*
X215547822Y-87681058D02*
X215305917Y-87681058D01*
X215305917Y-87681058D02*
X215209155Y-87632678D01*
X215209155Y-87632678D02*
X215160774Y-87584297D01*
X215160774Y-87584297D02*
X215112393Y-87487535D01*
X215112393Y-87487535D02*
X215112393Y-87390773D01*
X215112393Y-87390773D02*
X215160774Y-87294011D01*
X215160774Y-87294011D02*
X215209155Y-87245630D01*
X215209155Y-87245630D02*
X215305917Y-87197249D01*
X215305917Y-87197249D02*
X215499441Y-87148868D01*
X215499441Y-87148868D02*
X215596203Y-87100487D01*
X215596203Y-87100487D02*
X215644584Y-87052106D01*
X215644584Y-87052106D02*
X215692965Y-86955344D01*
X215692965Y-86955344D02*
X215692965Y-86858582D01*
X215692965Y-86858582D02*
X215644584Y-86761820D01*
X215644584Y-86761820D02*
X215596203Y-86713439D01*
X215596203Y-86713439D02*
X215499441Y-86665058D01*
X215499441Y-86665058D02*
X215257536Y-86665058D01*
X215257536Y-86665058D02*
X215112393Y-86713439D01*
X214144774Y-87681058D02*
X214725346Y-87681058D01*
X214435060Y-87681058D02*
X214435060Y-86665058D01*
X214435060Y-86665058D02*
X214531822Y-86810201D01*
X214531822Y-86810201D02*
X214628584Y-86906963D01*
X214628584Y-86906963D02*
X214725346Y-86955344D01*
X216820481Y-116815364D02*
X216820481Y-115799364D01*
X216820481Y-115799364D02*
X216481814Y-116525079D01*
X216481814Y-116525079D02*
X216143147Y-115799364D01*
X216143147Y-115799364D02*
X216143147Y-116815364D01*
X215707719Y-116766984D02*
X215562576Y-116815364D01*
X215562576Y-116815364D02*
X215320671Y-116815364D01*
X215320671Y-116815364D02*
X215223909Y-116766984D01*
X215223909Y-116766984D02*
X215175528Y-116718603D01*
X215175528Y-116718603D02*
X215127147Y-116621841D01*
X215127147Y-116621841D02*
X215127147Y-116525079D01*
X215127147Y-116525079D02*
X215175528Y-116428317D01*
X215175528Y-116428317D02*
X215223909Y-116379936D01*
X215223909Y-116379936D02*
X215320671Y-116331555D01*
X215320671Y-116331555D02*
X215514195Y-116283174D01*
X215514195Y-116283174D02*
X215610957Y-116234793D01*
X215610957Y-116234793D02*
X215659338Y-116186412D01*
X215659338Y-116186412D02*
X215707719Y-116089650D01*
X215707719Y-116089650D02*
X215707719Y-115992888D01*
X215707719Y-115992888D02*
X215659338Y-115896126D01*
X215659338Y-115896126D02*
X215610957Y-115847745D01*
X215610957Y-115847745D02*
X215514195Y-115799364D01*
X215514195Y-115799364D02*
X215272290Y-115799364D01*
X215272290Y-115799364D02*
X215127147Y-115847745D01*
X214788481Y-115799364D02*
X214159528Y-115799364D01*
X214159528Y-115799364D02*
X214498195Y-116186412D01*
X214498195Y-116186412D02*
X214353052Y-116186412D01*
X214353052Y-116186412D02*
X214256290Y-116234793D01*
X214256290Y-116234793D02*
X214207909Y-116283174D01*
X214207909Y-116283174D02*
X214159528Y-116379936D01*
X214159528Y-116379936D02*
X214159528Y-116621841D01*
X214159528Y-116621841D02*
X214207909Y-116718603D01*
X214207909Y-116718603D02*
X214256290Y-116766984D01*
X214256290Y-116766984D02*
X214353052Y-116815364D01*
X214353052Y-116815364D02*
X214643338Y-116815364D01*
X214643338Y-116815364D02*
X214740100Y-116766984D01*
X214740100Y-116766984D02*
X214788481Y-116718603D01*
X216820481Y-114103101D02*
X216820481Y-113087101D01*
X216820481Y-113087101D02*
X216481814Y-113812816D01*
X216481814Y-113812816D02*
X216143147Y-113087101D01*
X216143147Y-113087101D02*
X216143147Y-114103101D01*
X215707719Y-114054721D02*
X215562576Y-114103101D01*
X215562576Y-114103101D02*
X215320671Y-114103101D01*
X215320671Y-114103101D02*
X215223909Y-114054721D01*
X215223909Y-114054721D02*
X215175528Y-114006340D01*
X215175528Y-114006340D02*
X215127147Y-113909578D01*
X215127147Y-113909578D02*
X215127147Y-113812816D01*
X215127147Y-113812816D02*
X215175528Y-113716054D01*
X215175528Y-113716054D02*
X215223909Y-113667673D01*
X215223909Y-113667673D02*
X215320671Y-113619292D01*
X215320671Y-113619292D02*
X215514195Y-113570911D01*
X215514195Y-113570911D02*
X215610957Y-113522530D01*
X215610957Y-113522530D02*
X215659338Y-113474149D01*
X215659338Y-113474149D02*
X215707719Y-113377387D01*
X215707719Y-113377387D02*
X215707719Y-113280625D01*
X215707719Y-113280625D02*
X215659338Y-113183863D01*
X215659338Y-113183863D02*
X215610957Y-113135482D01*
X215610957Y-113135482D02*
X215514195Y-113087101D01*
X215514195Y-113087101D02*
X215272290Y-113087101D01*
X215272290Y-113087101D02*
X215127147Y-113135482D01*
X214740100Y-113183863D02*
X214691719Y-113135482D01*
X214691719Y-113135482D02*
X214594957Y-113087101D01*
X214594957Y-113087101D02*
X214353052Y-113087101D01*
X214353052Y-113087101D02*
X214256290Y-113135482D01*
X214256290Y-113135482D02*
X214207909Y-113183863D01*
X214207909Y-113183863D02*
X214159528Y-113280625D01*
X214159528Y-113280625D02*
X214159528Y-113377387D01*
X214159528Y-113377387D02*
X214207909Y-113522530D01*
X214207909Y-113522530D02*
X214788481Y-114103101D01*
X214788481Y-114103101D02*
X214159528Y-114103101D01*
X216724033Y-69428422D02*
X216724033Y-68412422D01*
X216724033Y-68412422D02*
X216385366Y-69138137D01*
X216385366Y-69138137D02*
X216046699Y-68412422D01*
X216046699Y-68412422D02*
X216046699Y-69428422D01*
X215611271Y-69380042D02*
X215466128Y-69428422D01*
X215466128Y-69428422D02*
X215224223Y-69428422D01*
X215224223Y-69428422D02*
X215127461Y-69380042D01*
X215127461Y-69380042D02*
X215079080Y-69331661D01*
X215079080Y-69331661D02*
X215030699Y-69234899D01*
X215030699Y-69234899D02*
X215030699Y-69138137D01*
X215030699Y-69138137D02*
X215079080Y-69041375D01*
X215079080Y-69041375D02*
X215127461Y-68992994D01*
X215127461Y-68992994D02*
X215224223Y-68944613D01*
X215224223Y-68944613D02*
X215417747Y-68896232D01*
X215417747Y-68896232D02*
X215514509Y-68847851D01*
X215514509Y-68847851D02*
X215562890Y-68799470D01*
X215562890Y-68799470D02*
X215611271Y-68702708D01*
X215611271Y-68702708D02*
X215611271Y-68605946D01*
X215611271Y-68605946D02*
X215562890Y-68509184D01*
X215562890Y-68509184D02*
X215514509Y-68460803D01*
X215514509Y-68460803D02*
X215417747Y-68412422D01*
X215417747Y-68412422D02*
X215175842Y-68412422D01*
X215175842Y-68412422D02*
X215030699Y-68460803D01*
X214692033Y-68412422D02*
X214063080Y-68412422D01*
X214063080Y-68412422D02*
X214401747Y-68799470D01*
X214401747Y-68799470D02*
X214256604Y-68799470D01*
X214256604Y-68799470D02*
X214159842Y-68847851D01*
X214159842Y-68847851D02*
X214111461Y-68896232D01*
X214111461Y-68896232D02*
X214063080Y-68992994D01*
X214063080Y-68992994D02*
X214063080Y-69234899D01*
X214063080Y-69234899D02*
X214111461Y-69331661D01*
X214111461Y-69331661D02*
X214159842Y-69380042D01*
X214159842Y-69380042D02*
X214256604Y-69428422D01*
X214256604Y-69428422D02*
X214546890Y-69428422D01*
X214546890Y-69428422D02*
X214643652Y-69380042D01*
X214643652Y-69380042D02*
X214692033Y-69331661D01*
X216805727Y-93195488D02*
X216805727Y-92179488D01*
X216805727Y-92179488D02*
X216467060Y-92905203D01*
X216467060Y-92905203D02*
X216128393Y-92179488D01*
X216128393Y-92179488D02*
X216128393Y-93195488D01*
X215692965Y-93147108D02*
X215547822Y-93195488D01*
X215547822Y-93195488D02*
X215305917Y-93195488D01*
X215305917Y-93195488D02*
X215209155Y-93147108D01*
X215209155Y-93147108D02*
X215160774Y-93098727D01*
X215160774Y-93098727D02*
X215112393Y-93001965D01*
X215112393Y-93001965D02*
X215112393Y-92905203D01*
X215112393Y-92905203D02*
X215160774Y-92808441D01*
X215160774Y-92808441D02*
X215209155Y-92760060D01*
X215209155Y-92760060D02*
X215305917Y-92711679D01*
X215305917Y-92711679D02*
X215499441Y-92663298D01*
X215499441Y-92663298D02*
X215596203Y-92614917D01*
X215596203Y-92614917D02*
X215644584Y-92566536D01*
X215644584Y-92566536D02*
X215692965Y-92469774D01*
X215692965Y-92469774D02*
X215692965Y-92373012D01*
X215692965Y-92373012D02*
X215644584Y-92276250D01*
X215644584Y-92276250D02*
X215596203Y-92227869D01*
X215596203Y-92227869D02*
X215499441Y-92179488D01*
X215499441Y-92179488D02*
X215257536Y-92179488D01*
X215257536Y-92179488D02*
X215112393Y-92227869D01*
X214773727Y-92179488D02*
X214144774Y-92179488D01*
X214144774Y-92179488D02*
X214483441Y-92566536D01*
X214483441Y-92566536D02*
X214338298Y-92566536D01*
X214338298Y-92566536D02*
X214241536Y-92614917D01*
X214241536Y-92614917D02*
X214193155Y-92663298D01*
X214193155Y-92663298D02*
X214144774Y-92760060D01*
X214144774Y-92760060D02*
X214144774Y-93001965D01*
X214144774Y-93001965D02*
X214193155Y-93098727D01*
X214193155Y-93098727D02*
X214241536Y-93147108D01*
X214241536Y-93147108D02*
X214338298Y-93195488D01*
X214338298Y-93195488D02*
X214628584Y-93195488D01*
X214628584Y-93195488D02*
X214725346Y-93147108D01*
X214725346Y-93147108D02*
X214773727Y-93098727D01*
X216820481Y-111300934D02*
X216820481Y-110284934D01*
X216820481Y-110284934D02*
X216481814Y-111010649D01*
X216481814Y-111010649D02*
X216143147Y-110284934D01*
X216143147Y-110284934D02*
X216143147Y-111300934D01*
X215707719Y-111252554D02*
X215562576Y-111300934D01*
X215562576Y-111300934D02*
X215320671Y-111300934D01*
X215320671Y-111300934D02*
X215223909Y-111252554D01*
X215223909Y-111252554D02*
X215175528Y-111204173D01*
X215175528Y-111204173D02*
X215127147Y-111107411D01*
X215127147Y-111107411D02*
X215127147Y-111010649D01*
X215127147Y-111010649D02*
X215175528Y-110913887D01*
X215175528Y-110913887D02*
X215223909Y-110865506D01*
X215223909Y-110865506D02*
X215320671Y-110817125D01*
X215320671Y-110817125D02*
X215514195Y-110768744D01*
X215514195Y-110768744D02*
X215610957Y-110720363D01*
X215610957Y-110720363D02*
X215659338Y-110671982D01*
X215659338Y-110671982D02*
X215707719Y-110575220D01*
X215707719Y-110575220D02*
X215707719Y-110478458D01*
X215707719Y-110478458D02*
X215659338Y-110381696D01*
X215659338Y-110381696D02*
X215610957Y-110333315D01*
X215610957Y-110333315D02*
X215514195Y-110284934D01*
X215514195Y-110284934D02*
X215272290Y-110284934D01*
X215272290Y-110284934D02*
X215127147Y-110333315D01*
X214159528Y-111300934D02*
X214740100Y-111300934D01*
X214449814Y-111300934D02*
X214449814Y-110284934D01*
X214449814Y-110284934D02*
X214546576Y-110430077D01*
X214546576Y-110430077D02*
X214643338Y-110526839D01*
X214643338Y-110526839D02*
X214740100Y-110575220D01*
X216724033Y-66716159D02*
X216724033Y-65700159D01*
X216724033Y-65700159D02*
X216385366Y-66425874D01*
X216385366Y-66425874D02*
X216046699Y-65700159D01*
X216046699Y-65700159D02*
X216046699Y-66716159D01*
X215611271Y-66667779D02*
X215466128Y-66716159D01*
X215466128Y-66716159D02*
X215224223Y-66716159D01*
X215224223Y-66716159D02*
X215127461Y-66667779D01*
X215127461Y-66667779D02*
X215079080Y-66619398D01*
X215079080Y-66619398D02*
X215030699Y-66522636D01*
X215030699Y-66522636D02*
X215030699Y-66425874D01*
X215030699Y-66425874D02*
X215079080Y-66329112D01*
X215079080Y-66329112D02*
X215127461Y-66280731D01*
X215127461Y-66280731D02*
X215224223Y-66232350D01*
X215224223Y-66232350D02*
X215417747Y-66183969D01*
X215417747Y-66183969D02*
X215514509Y-66135588D01*
X215514509Y-66135588D02*
X215562890Y-66087207D01*
X215562890Y-66087207D02*
X215611271Y-65990445D01*
X215611271Y-65990445D02*
X215611271Y-65893683D01*
X215611271Y-65893683D02*
X215562890Y-65796921D01*
X215562890Y-65796921D02*
X215514509Y-65748540D01*
X215514509Y-65748540D02*
X215417747Y-65700159D01*
X215417747Y-65700159D02*
X215175842Y-65700159D01*
X215175842Y-65700159D02*
X215030699Y-65748540D01*
X214643652Y-65796921D02*
X214595271Y-65748540D01*
X214595271Y-65748540D02*
X214498509Y-65700159D01*
X214498509Y-65700159D02*
X214256604Y-65700159D01*
X214256604Y-65700159D02*
X214159842Y-65748540D01*
X214159842Y-65748540D02*
X214111461Y-65796921D01*
X214111461Y-65796921D02*
X214063080Y-65893683D01*
X214063080Y-65893683D02*
X214063080Y-65990445D01*
X214063080Y-65990445D02*
X214111461Y-66135588D01*
X214111461Y-66135588D02*
X214692033Y-66716159D01*
X214692033Y-66716159D02*
X214063080Y-66716159D01*
X216805727Y-90483225D02*
X216805727Y-89467225D01*
X216805727Y-89467225D02*
X216467060Y-90192940D01*
X216467060Y-90192940D02*
X216128393Y-89467225D01*
X216128393Y-89467225D02*
X216128393Y-90483225D01*
X215692965Y-90434845D02*
X215547822Y-90483225D01*
X215547822Y-90483225D02*
X215305917Y-90483225D01*
X215305917Y-90483225D02*
X215209155Y-90434845D01*
X215209155Y-90434845D02*
X215160774Y-90386464D01*
X215160774Y-90386464D02*
X215112393Y-90289702D01*
X215112393Y-90289702D02*
X215112393Y-90192940D01*
X215112393Y-90192940D02*
X215160774Y-90096178D01*
X215160774Y-90096178D02*
X215209155Y-90047797D01*
X215209155Y-90047797D02*
X215305917Y-89999416D01*
X215305917Y-89999416D02*
X215499441Y-89951035D01*
X215499441Y-89951035D02*
X215596203Y-89902654D01*
X215596203Y-89902654D02*
X215644584Y-89854273D01*
X215644584Y-89854273D02*
X215692965Y-89757511D01*
X215692965Y-89757511D02*
X215692965Y-89660749D01*
X215692965Y-89660749D02*
X215644584Y-89563987D01*
X215644584Y-89563987D02*
X215596203Y-89515606D01*
X215596203Y-89515606D02*
X215499441Y-89467225D01*
X215499441Y-89467225D02*
X215257536Y-89467225D01*
X215257536Y-89467225D02*
X215112393Y-89515606D01*
X214725346Y-89563987D02*
X214676965Y-89515606D01*
X214676965Y-89515606D02*
X214580203Y-89467225D01*
X214580203Y-89467225D02*
X214338298Y-89467225D01*
X214338298Y-89467225D02*
X214241536Y-89515606D01*
X214241536Y-89515606D02*
X214193155Y-89563987D01*
X214193155Y-89563987D02*
X214144774Y-89660749D01*
X214144774Y-89660749D02*
X214144774Y-89757511D01*
X214144774Y-89757511D02*
X214193155Y-89902654D01*
X214193155Y-89902654D02*
X214773727Y-90483225D01*
X214773727Y-90483225D02*
X214144774Y-90483225D01*
%TO.C,G\u002A\u002A\u002A*%
G36*
X195364888Y-83753617D02*
G01*
X195385225Y-83764873D01*
X195521033Y-83882577D01*
X195616492Y-84039241D01*
X195652651Y-84205130D01*
X195643897Y-84275015D01*
X195584145Y-84423796D01*
X195485686Y-84561126D01*
X195369679Y-84653482D01*
X195294567Y-84704035D01*
X195245084Y-84780790D01*
X195219485Y-84900046D01*
X195210741Y-85080698D01*
X195207898Y-85313261D01*
X195652803Y-85313261D01*
X195649805Y-85869392D01*
X195649581Y-85902399D01*
X195645878Y-86124046D01*
X195638990Y-86329921D01*
X195629814Y-86498317D01*
X195619249Y-86607529D01*
X195591691Y-86789535D01*
X195369460Y-86789891D01*
X195155339Y-86790233D01*
X195147229Y-86790246D01*
X195009404Y-90185290D01*
X194996844Y-90494867D01*
X194974057Y-91058846D01*
X194954458Y-91549718D01*
X194937955Y-91972637D01*
X194924456Y-92332755D01*
X194913867Y-92635225D01*
X194906097Y-92885199D01*
X194901054Y-93087831D01*
X194898644Y-93248271D01*
X194898776Y-93371673D01*
X194901357Y-93463190D01*
X194906294Y-93527974D01*
X194913496Y-93571178D01*
X194922870Y-93597954D01*
X194934323Y-93613455D01*
X194947763Y-93622833D01*
X194969543Y-93636505D01*
X195057478Y-93704303D01*
X195156369Y-93792736D01*
X195175630Y-93811563D01*
X195248555Y-93898879D01*
X195281246Y-93990741D01*
X195288790Y-94125007D01*
X195280298Y-94260836D01*
X195243292Y-94366134D01*
X195162521Y-94473686D01*
X195036251Y-94617499D01*
X195354638Y-95532029D01*
X195673026Y-96446559D01*
X195826016Y-96459623D01*
X195935740Y-96480153D01*
X196093851Y-96560316D01*
X196206809Y-96683321D01*
X196271761Y-96833422D01*
X196285856Y-96994871D01*
X196246242Y-97151921D01*
X196150067Y-97288827D01*
X195994480Y-97389840D01*
X195918275Y-97427071D01*
X195874249Y-97478521D01*
X195874762Y-97558356D01*
X195879732Y-97601165D01*
X195890648Y-97721554D01*
X195905298Y-97901194D01*
X195922703Y-98127575D01*
X195941883Y-98388183D01*
X195961858Y-98670506D01*
X195974500Y-98849318D01*
X195996123Y-99132895D01*
X196015288Y-99347506D01*
X196032963Y-99500915D01*
X196050116Y-99600882D01*
X196067716Y-99655170D01*
X196086731Y-99671542D01*
X196122649Y-99675389D01*
X196245152Y-99725008D01*
X196368969Y-99815574D01*
X196463357Y-99926292D01*
X196519223Y-100047213D01*
X196543730Y-100233886D01*
X196500933Y-100409235D01*
X196398451Y-100558759D01*
X196243909Y-100667957D01*
X196044928Y-100722327D01*
X195837076Y-100743357D01*
X195278622Y-101747804D01*
X194720168Y-102752252D01*
X194802250Y-102885062D01*
X194852402Y-102986735D01*
X194888553Y-103181046D01*
X194855406Y-103369096D01*
X194757569Y-103533349D01*
X194599648Y-103656267D01*
X194476796Y-103703472D01*
X194298956Y-103715908D01*
X194138791Y-103667840D01*
X194004604Y-103571499D01*
X193904701Y-103439118D01*
X193847389Y-103282928D01*
X193840971Y-103115160D01*
X193893754Y-102948047D01*
X194014043Y-102793821D01*
X194068915Y-102745255D01*
X194153731Y-102688617D01*
X194244418Y-102668069D01*
X194378106Y-102671094D01*
X194593341Y-102684758D01*
X195143295Y-101692370D01*
X195184279Y-101618366D01*
X195346800Y-101323439D01*
X195473336Y-101090349D01*
X195567184Y-100912157D01*
X195631643Y-100781923D01*
X195670009Y-100692709D01*
X195685579Y-100637576D01*
X195681651Y-100609585D01*
X195661523Y-100601796D01*
X195646798Y-100598577D01*
X195593039Y-100543694D01*
X195542759Y-100439185D01*
X195505554Y-100308964D01*
X195491019Y-100176941D01*
X195499383Y-100051642D01*
X195537714Y-99956101D01*
X195623440Y-99859615D01*
X195657802Y-99827231D01*
X195752199Y-99744217D01*
X195820998Y-99691764D01*
X195835358Y-99680443D01*
X195851424Y-99653392D01*
X195861175Y-99605237D01*
X195864522Y-99526063D01*
X195861375Y-99405952D01*
X195851646Y-99234989D01*
X195835245Y-99003258D01*
X195812083Y-98700841D01*
X195800345Y-98548649D01*
X195780156Y-98279222D01*
X195762672Y-98036127D01*
X195748835Y-97832940D01*
X195739585Y-97683235D01*
X195735863Y-97600589D01*
X195728058Y-97510545D01*
X195688607Y-97440954D01*
X195594502Y-97384764D01*
X195450740Y-97286629D01*
X195346040Y-97136873D01*
X195310203Y-96961053D01*
X195349203Y-96774037D01*
X195358969Y-96751859D01*
X195418769Y-96645773D01*
X195477743Y-96577355D01*
X195491485Y-96564272D01*
X195503324Y-96534566D01*
X195502493Y-96484485D01*
X195486563Y-96404730D01*
X195453107Y-96286002D01*
X195399696Y-96119002D01*
X195323903Y-95894433D01*
X195223297Y-95602995D01*
X194902093Y-94677450D01*
X194749032Y-94652571D01*
X194614534Y-94615413D01*
X194436176Y-94501182D01*
X194306261Y-94323346D01*
X194253793Y-94217911D01*
X194233765Y-94177664D01*
X189914401Y-92736586D01*
X189818998Y-92826212D01*
X189685282Y-92913545D01*
X189517141Y-92944546D01*
X189350049Y-92900377D01*
X189236623Y-92821778D01*
X189162991Y-92702029D01*
X189141019Y-92532395D01*
X189146276Y-92481342D01*
X189201649Y-92342209D01*
X189299065Y-92219222D01*
X189415622Y-92144710D01*
X189429055Y-92133404D01*
X189445948Y-92080056D01*
X189455558Y-91975403D01*
X189458573Y-91809637D01*
X189455679Y-91572954D01*
X189444363Y-91018323D01*
X188675892Y-91587747D01*
X188552413Y-91679190D01*
X188279828Y-91880270D01*
X188061185Y-92039567D01*
X187888742Y-92161922D01*
X187754758Y-92252173D01*
X187651494Y-92315161D01*
X187571209Y-92355726D01*
X187506162Y-92378709D01*
X187448611Y-92388949D01*
X187390817Y-92391287D01*
X187385933Y-92391162D01*
X187356546Y-92390411D01*
X187229492Y-92360124D01*
X187115615Y-92273060D01*
X187089180Y-92244743D01*
X187009851Y-92102941D01*
X187009833Y-92033916D01*
X187160022Y-92033916D01*
X187188885Y-92143618D01*
X187267283Y-92219645D01*
X187385933Y-92247245D01*
X187535557Y-92211668D01*
X187601662Y-92172730D01*
X187722491Y-92092082D01*
X187888106Y-91976733D01*
X188088595Y-91833678D01*
X188314048Y-91669912D01*
X188554554Y-91492430D01*
X189444363Y-90830669D01*
X189435913Y-90534084D01*
X189435319Y-90514523D01*
X189428558Y-90371433D01*
X189419460Y-90266007D01*
X189409819Y-90219853D01*
X189399878Y-90222709D01*
X189335930Y-90261463D01*
X189221230Y-90338890D01*
X189065081Y-90448162D01*
X188876786Y-90582451D01*
X188665646Y-90734929D01*
X188440964Y-90898769D01*
X188212042Y-91067142D01*
X187988182Y-91233220D01*
X187778687Y-91390175D01*
X187592859Y-91531179D01*
X187440000Y-91649405D01*
X187329412Y-91738024D01*
X187270398Y-91790209D01*
X187189974Y-91905292D01*
X187160022Y-92033916D01*
X187009833Y-92033916D01*
X187009810Y-91949785D01*
X187088883Y-91782130D01*
X187108104Y-91759436D01*
X187193010Y-91680564D01*
X187332488Y-91563638D01*
X187518936Y-91414677D01*
X187744749Y-91239701D01*
X188002328Y-91044729D01*
X188284067Y-90835782D01*
X189387757Y-90025204D01*
X188835667Y-90004591D01*
X188789149Y-90002854D01*
X188560464Y-89991925D01*
X188326016Y-89971586D01*
X188152693Y-89941618D01*
X188029388Y-89899081D01*
X187944991Y-89841037D01*
X187888396Y-89764546D01*
X187861337Y-89691771D01*
X187853944Y-89588445D01*
X187994000Y-89588445D01*
X188024671Y-89695434D01*
X188130936Y-89783078D01*
X188159837Y-89795685D01*
X188250042Y-89818022D01*
X188384674Y-89832697D01*
X188575845Y-89840745D01*
X188835667Y-89843198D01*
X189424140Y-89843198D01*
X189424140Y-89310141D01*
X188803354Y-89323883D01*
X188643669Y-89328119D01*
X188422388Y-89337944D01*
X188266736Y-89351694D01*
X188167025Y-89370369D01*
X188113566Y-89394967D01*
X188039400Y-89472786D01*
X187994000Y-89588445D01*
X187853944Y-89588445D01*
X187850262Y-89536989D01*
X187888396Y-89396053D01*
X187896543Y-89381525D01*
X187949760Y-89314392D01*
X188026568Y-89265096D01*
X188138393Y-89231127D01*
X188296661Y-89209973D01*
X188512796Y-89199123D01*
X188798225Y-89196064D01*
X189430148Y-89196064D01*
X189403917Y-89176776D01*
X188507001Y-88517246D01*
X188503632Y-88514769D01*
X188170826Y-88270011D01*
X187897002Y-88068465D01*
X187676019Y-87905483D01*
X187501735Y-87776415D01*
X187368010Y-87676610D01*
X187268701Y-87601420D01*
X187197666Y-87546195D01*
X187148765Y-87506285D01*
X187115856Y-87477041D01*
X187092797Y-87453813D01*
X187073447Y-87431952D01*
X187029119Y-87373240D01*
X186985636Y-87295108D01*
X186966363Y-87223484D01*
X186971902Y-87121536D01*
X187117779Y-87121536D01*
X187133847Y-87250621D01*
X187209729Y-87364471D01*
X187231044Y-87382348D01*
X187316486Y-87449124D01*
X187453976Y-87553815D01*
X187634909Y-87689962D01*
X187850682Y-87851103D01*
X188092688Y-88030775D01*
X188352325Y-88222518D01*
X189403917Y-88997101D01*
X189415862Y-88684765D01*
X189417535Y-88638191D01*
X189419067Y-88492292D01*
X189408798Y-88399496D01*
X189382256Y-88337692D01*
X189334971Y-88284772D01*
X189288684Y-88244526D01*
X189175510Y-88154429D01*
X189018896Y-88035033D01*
X188829665Y-87894110D01*
X188618641Y-87739431D01*
X188396648Y-87578770D01*
X188174511Y-87419898D01*
X187963051Y-87270587D01*
X187773095Y-87138610D01*
X187615464Y-87031739D01*
X187500984Y-86957745D01*
X187440477Y-86924402D01*
X187420622Y-86917819D01*
X187316566Y-86905127D01*
X187219148Y-86948053D01*
X187160912Y-87004284D01*
X187117779Y-87121536D01*
X186971902Y-87121536D01*
X186975684Y-87051929D01*
X187061653Y-86893753D01*
X187118152Y-86833824D01*
X187208395Y-86782258D01*
X187334662Y-86769463D01*
X187366350Y-86769685D01*
X187423463Y-86773139D01*
X187480230Y-86784763D01*
X187544825Y-86809548D01*
X187625423Y-86852483D01*
X187730198Y-86918556D01*
X187867324Y-87012757D01*
X188044976Y-87140076D01*
X188271328Y-87305500D01*
X188554554Y-87514021D01*
X189363471Y-88110262D01*
X189375104Y-87693081D01*
X189378005Y-87508264D01*
X189373276Y-87368954D01*
X189363746Y-87315244D01*
X189545478Y-87315244D01*
X189551938Y-88043313D01*
X189552119Y-88062938D01*
X189554678Y-88278188D01*
X189558785Y-88558686D01*
X189564196Y-88890397D01*
X189570664Y-89259286D01*
X189577944Y-89651318D01*
X189585793Y-90052458D01*
X189593963Y-90448672D01*
X189629527Y-92125961D01*
X189766375Y-92238762D01*
X189794917Y-92264306D01*
X189881383Y-92368426D01*
X189928749Y-92467789D01*
X189933585Y-92486559D01*
X189944938Y-92510808D01*
X189967182Y-92535410D01*
X190006298Y-92562681D01*
X190068264Y-92594937D01*
X190159059Y-92634494D01*
X190284661Y-92683667D01*
X190451049Y-92744771D01*
X190664202Y-92820123D01*
X190930098Y-92912039D01*
X191254717Y-93022833D01*
X191644036Y-93154822D01*
X192104035Y-93310321D01*
X194253793Y-94036627D01*
X194316276Y-93912454D01*
X194338776Y-93875316D01*
X194437117Y-93764545D01*
X194563142Y-93662091D01*
X194682757Y-93597275D01*
X194685561Y-93588079D01*
X194693800Y-93511455D01*
X194704708Y-93361488D01*
X194718031Y-93143321D01*
X194733517Y-92862098D01*
X194750913Y-92522964D01*
X194769966Y-92131063D01*
X194790423Y-91691538D01*
X194812031Y-91209532D01*
X194834538Y-90690191D01*
X194857690Y-90138658D01*
X194881235Y-89560077D01*
X194891932Y-89293553D01*
X194914790Y-88726909D01*
X194937037Y-88179239D01*
X194958414Y-87656729D01*
X194978660Y-87165564D01*
X194997518Y-86711930D01*
X195000203Y-86647975D01*
X195155339Y-86647975D01*
X195478561Y-86647975D01*
X195505722Y-86079016D01*
X195508899Y-86008417D01*
X195515706Y-85808217D01*
X195518152Y-85641667D01*
X195516138Y-85524470D01*
X195509563Y-85472329D01*
X195506898Y-85468928D01*
X195447263Y-85444573D01*
X195347072Y-85434599D01*
X195207898Y-85434599D01*
X195207898Y-85671061D01*
X195207674Y-85705036D01*
X195203121Y-85873884D01*
X195193906Y-86077025D01*
X195181619Y-86277748D01*
X195155339Y-86647975D01*
X195000203Y-86647975D01*
X195014728Y-86302012D01*
X195030031Y-85941996D01*
X195043169Y-85638067D01*
X195053881Y-85396409D01*
X195061910Y-85223210D01*
X195066995Y-85124653D01*
X195072199Y-85036101D01*
X195079571Y-84880423D01*
X195078294Y-84783136D01*
X195065913Y-84728610D01*
X195039976Y-84701214D01*
X194998027Y-84685316D01*
X194994738Y-84684282D01*
X194898815Y-84634975D01*
X194799275Y-84558599D01*
X194693996Y-84460159D01*
X192343673Y-85498580D01*
X189993350Y-86537000D01*
X190014534Y-86703714D01*
X190018839Y-86759993D01*
X189986215Y-86951953D01*
X189882151Y-87113633D01*
X189712699Y-87234396D01*
X189545478Y-87315244D01*
X189363746Y-87315244D01*
X189359167Y-87289439D01*
X189334658Y-87258781D01*
X189315419Y-87249107D01*
X189241658Y-87193690D01*
X189151131Y-87110646D01*
X189138846Y-87098280D01*
X189062397Y-87006006D01*
X189027799Y-86911757D01*
X189019682Y-86776460D01*
X189023493Y-86681597D01*
X189053042Y-86557839D01*
X189122120Y-86451548D01*
X189253571Y-86336980D01*
X189433336Y-86268745D01*
X189626103Y-86273775D01*
X189816305Y-86354251D01*
X189833406Y-86362623D01*
X189862155Y-86367205D01*
X189904308Y-86363236D01*
X189965367Y-86348508D01*
X190050833Y-86320809D01*
X190166206Y-86277928D01*
X190316988Y-86217657D01*
X190508679Y-86137784D01*
X190746780Y-86036100D01*
X191036793Y-85910394D01*
X191384219Y-85758455D01*
X191794558Y-85578074D01*
X192273311Y-85367041D01*
X194641495Y-84322338D01*
X194641576Y-84170072D01*
X194656374Y-84061907D01*
X194733291Y-83910299D01*
X194860272Y-83793492D01*
X195019646Y-83721659D01*
X195193742Y-83704976D01*
X195364888Y-83753617D01*
G37*
G36*
X192778012Y-87829485D02*
G01*
X193119276Y-87955726D01*
X193423490Y-88146473D01*
X193672757Y-88386718D01*
X193861384Y-88664573D01*
X193987470Y-88970020D01*
X194049117Y-89293040D01*
X194044424Y-89623614D01*
X193971489Y-89951723D01*
X193828414Y-90267347D01*
X193613298Y-90560469D01*
X193493252Y-90679145D01*
X193213886Y-90877112D01*
X192899414Y-91013916D01*
X192564768Y-91085585D01*
X192376688Y-91087002D01*
X192224883Y-91088146D01*
X191894692Y-91017628D01*
X191571885Y-90871871D01*
X191281036Y-90661439D01*
X191043997Y-90399545D01*
X190868352Y-90094640D01*
X190761685Y-89755176D01*
X190750087Y-89693629D01*
X190726706Y-89512223D01*
X190727799Y-89454059D01*
X190886923Y-89454059D01*
X190896336Y-89564459D01*
X190923468Y-89714730D01*
X190939049Y-89784399D01*
X191057211Y-90098307D01*
X191241903Y-90382106D01*
X191482149Y-90621639D01*
X191766972Y-90802748D01*
X191809818Y-90823053D01*
X191925339Y-90869392D01*
X192040235Y-90896636D01*
X192181640Y-90909715D01*
X192376688Y-90913560D01*
X192502399Y-90913174D01*
X192656936Y-90906310D01*
X192776490Y-90886997D01*
X192889354Y-90849801D01*
X193023822Y-90789288D01*
X193025197Y-90788630D01*
X193319321Y-90605876D01*
X193556669Y-90372545D01*
X193733372Y-90099077D01*
X193845561Y-89795911D01*
X193889368Y-89473485D01*
X193860924Y-89142239D01*
X193756361Y-88812612D01*
X193634518Y-88606943D01*
X193453008Y-88397293D01*
X193238025Y-88213643D01*
X193012593Y-88078713D01*
X192986905Y-88066963D01*
X192853163Y-88012561D01*
X192730692Y-87980870D01*
X192588828Y-87966102D01*
X192396911Y-87962465D01*
X192325838Y-87962758D01*
X192157833Y-87968895D01*
X192029617Y-87987674D01*
X191910552Y-88025212D01*
X191770000Y-88087627D01*
X191716483Y-88114215D01*
X191423458Y-88308576D01*
X191191861Y-88555136D01*
X191023692Y-88851289D01*
X190920946Y-89194432D01*
X190920496Y-89196809D01*
X190895039Y-89344514D01*
X190886923Y-89454059D01*
X190727799Y-89454059D01*
X190729796Y-89347741D01*
X190759163Y-89153986D01*
X190832685Y-88888455D01*
X190969076Y-88595176D01*
X191146243Y-88348536D01*
X191167959Y-88324902D01*
X191446109Y-88081779D01*
X191755497Y-87908823D01*
X192086815Y-87807887D01*
X192430756Y-87780823D01*
X192778012Y-87829485D01*
G37*
G36*
X192445048Y-88165569D02*
G01*
X192619043Y-88170597D01*
X192745544Y-88186702D01*
X192851728Y-88219017D01*
X192964777Y-88272673D01*
X193112619Y-88367670D01*
X193292183Y-88520710D01*
X193450723Y-88692712D01*
X193561794Y-88857760D01*
X193588251Y-88920001D01*
X193632151Y-89056266D01*
X193669445Y-89207322D01*
X193689865Y-89355674D01*
X193673432Y-89651667D01*
X193586266Y-89937350D01*
X193434808Y-90199949D01*
X193225498Y-90426691D01*
X192964777Y-90604805D01*
X192937518Y-90618913D01*
X192828362Y-90667354D01*
X192719995Y-90695601D01*
X192585238Y-90708785D01*
X192396911Y-90712039D01*
X192348774Y-90711909D01*
X192282428Y-90709992D01*
X192174778Y-90706881D01*
X192048278Y-90690776D01*
X191942093Y-90658461D01*
X191829045Y-90604805D01*
X191624282Y-90471104D01*
X191402355Y-90255744D01*
X191230532Y-90003461D01*
X191124203Y-89733286D01*
X191102704Y-89587561D01*
X191104331Y-89419798D01*
X191215144Y-89419798D01*
X191244574Y-89700651D01*
X191334890Y-89965811D01*
X191482108Y-90199039D01*
X191682246Y-90384096D01*
X191712995Y-90404741D01*
X191993201Y-90544362D01*
X192282428Y-90610125D01*
X192569613Y-90604834D01*
X192843689Y-90531295D01*
X193093593Y-90392313D01*
X193308257Y-90190692D01*
X193476618Y-89929237D01*
X193490085Y-89899805D01*
X193553534Y-89674596D01*
X193572540Y-89419453D01*
X193547087Y-89166872D01*
X193477155Y-88949350D01*
X193446916Y-88890602D01*
X193267643Y-88637287D01*
X193041304Y-88449667D01*
X192768991Y-88328460D01*
X192451796Y-88274385D01*
X192302150Y-88268310D01*
X192168248Y-88275390D01*
X192052904Y-88303114D01*
X191922502Y-88356712D01*
X191722619Y-88470199D01*
X191493755Y-88675653D01*
X191325958Y-88931384D01*
X191250582Y-89139491D01*
X191215144Y-89419798D01*
X191104331Y-89419798D01*
X191104904Y-89360752D01*
X191138517Y-89129626D01*
X191199927Y-88932405D01*
X191271423Y-88801210D01*
X191429758Y-88596028D01*
X191624032Y-88411042D01*
X191829045Y-88272673D01*
X191856304Y-88258565D01*
X191965460Y-88210124D01*
X192073827Y-88181877D01*
X192208584Y-88168693D01*
X192396911Y-88165439D01*
X192445048Y-88165569D01*
G37*
G36*
X192755047Y-88430888D02*
G01*
X192878274Y-88483146D01*
X193019540Y-88580306D01*
X193150849Y-88703815D01*
X193260782Y-88839353D01*
X193337923Y-88972596D01*
X193370855Y-89089223D01*
X193348160Y-89174912D01*
X193312479Y-89210692D01*
X193264251Y-89224881D01*
X193245096Y-89230516D01*
X193173310Y-89180685D01*
X193088178Y-89057146D01*
X193045680Y-88988268D01*
X192928525Y-88842704D01*
X192793843Y-88750893D01*
X192621485Y-88702089D01*
X192391299Y-88685547D01*
X192347678Y-88684657D01*
X192194273Y-88677651D01*
X192076575Y-88666382D01*
X192017174Y-88652825D01*
X192002825Y-88642644D01*
X191974283Y-88583069D01*
X192070103Y-88583069D01*
X192115390Y-88591232D01*
X192220881Y-88592864D01*
X192396911Y-88590387D01*
X192531957Y-88590759D01*
X192653901Y-88604385D01*
X192755528Y-88640288D01*
X192870263Y-88706678D01*
X193029863Y-88837249D01*
X193144823Y-88993176D01*
X193172984Y-89043810D01*
X193227139Y-89117477D01*
X193264251Y-89136783D01*
X193279412Y-89121218D01*
X193280576Y-89051231D01*
X193234277Y-88951128D01*
X193151974Y-88835647D01*
X193045125Y-88719527D01*
X192925190Y-88617507D01*
X192803627Y-88544324D01*
X192757933Y-88526318D01*
X192598084Y-88486132D01*
X192437357Y-88470360D01*
X192373894Y-88473047D01*
X192235198Y-88493962D01*
X192134013Y-88528707D01*
X192118805Y-88537445D01*
X192074687Y-88565948D01*
X192070103Y-88583069D01*
X191974283Y-88583069D01*
X191972443Y-88579228D01*
X192011226Y-88508757D01*
X192112491Y-88445752D01*
X192289496Y-88399714D01*
X192520577Y-88391990D01*
X192755047Y-88430888D01*
G37*
D14*
%TO.C,JP20*%
X180705000Y-122670000D02*
X180705000Y-119870000D01*
X178705000Y-122670000D02*
X180705000Y-122670000D01*
X180705000Y-119870000D02*
X178705000Y-119870000D01*
X178705000Y-119870000D02*
X178705000Y-122670000D01*
%TO.C,JP19*%
X178165000Y-122670000D02*
X178165000Y-119870000D01*
X176165000Y-122670000D02*
X178165000Y-122670000D01*
X178165000Y-119870000D02*
X176165000Y-119870000D01*
X176165000Y-119870000D02*
X176165000Y-122670000D01*
%TO.C,JP16*%
X199120000Y-108730000D02*
X199120000Y-105930000D01*
X197120000Y-108730000D02*
X199120000Y-108730000D01*
X199120000Y-105930000D02*
X197120000Y-105930000D01*
X197120000Y-105930000D02*
X197120000Y-108730000D01*
%TO.C,JP15*%
X202295000Y-108730000D02*
X202295000Y-105930000D01*
X200295000Y-108730000D02*
X202295000Y-108730000D01*
X202295000Y-105930000D02*
X200295000Y-105930000D01*
X200295000Y-105930000D02*
X200295000Y-108730000D01*
%TO.C,JP12*%
X181245000Y-100460000D02*
X183245000Y-100460000D01*
X183245000Y-100460000D02*
X183245000Y-97660000D01*
X181245000Y-97660000D02*
X181245000Y-100460000D01*
X183245000Y-97660000D02*
X181245000Y-97660000D01*
%TO.C,JP13*%
X171298881Y-100783949D02*
X173298881Y-100783949D01*
X173298881Y-100783949D02*
X173298881Y-97983949D01*
X171298881Y-97983949D02*
X171298881Y-100783949D01*
X173298881Y-97983949D02*
X171298881Y-97983949D01*
%TO.C,JP7*%
X213342622Y-93620424D02*
X213342622Y-91620424D01*
X213342622Y-91620424D02*
X210542622Y-91620424D01*
X210542622Y-93620424D02*
X213342622Y-93620424D01*
X210542622Y-91620424D02*
X210542622Y-93620424D01*
%TO.C,JP2*%
X213342622Y-67154062D02*
X213342622Y-65154062D01*
X213342622Y-65154062D02*
X210542622Y-65154062D01*
X210542622Y-67154062D02*
X213342622Y-67154062D01*
X210542622Y-65154062D02*
X210542622Y-67154062D01*
%TO.C,JP10*%
X213342622Y-117303824D02*
X213342622Y-115303824D01*
X213342622Y-115303824D02*
X210542622Y-115303824D01*
X210542622Y-117303824D02*
X213342622Y-117303824D01*
X210542622Y-115303824D02*
X210542622Y-117303824D01*
%TO.C,JP4*%
X214995000Y-128775000D02*
X212995000Y-128775000D01*
X212995000Y-128775000D02*
X212995000Y-131575000D01*
X214995000Y-131575000D02*
X214995000Y-128775000D01*
X212995000Y-131575000D02*
X214995000Y-131575000D01*
%TO.C,JP6*%
X213342622Y-90926645D02*
X213342622Y-88926645D01*
X213342622Y-88926645D02*
X210542622Y-88926645D01*
X210542622Y-90926645D02*
X213342622Y-90926645D01*
X210542622Y-88926645D02*
X210542622Y-90926645D01*
%TO.C,JP8*%
X213342622Y-111816486D02*
X213342622Y-109816486D01*
X213342622Y-109816486D02*
X210542622Y-109816486D01*
X210542622Y-111816486D02*
X213342622Y-111816486D01*
X210542622Y-109816486D02*
X210542622Y-111816486D01*
%TO.C,JP9*%
X213342622Y-114560155D02*
X213342622Y-112560155D01*
X213342622Y-112560155D02*
X210542622Y-112560155D01*
X210542622Y-114560155D02*
X213342622Y-114560155D01*
X210542622Y-112560155D02*
X210542622Y-114560155D01*
%TO.C,JP5*%
X213342622Y-88232867D02*
X213342622Y-86232867D01*
X213342622Y-86232867D02*
X210542622Y-86232867D01*
X210542622Y-88232867D02*
X213342622Y-88232867D01*
X210542622Y-86232867D02*
X210542622Y-88232867D01*
%TO.C,JP17*%
X176260000Y-89420000D02*
X174260000Y-89420000D01*
X174260000Y-89420000D02*
X174260000Y-92220000D01*
X176260000Y-92220000D02*
X176260000Y-89420000D01*
X174260000Y-92220000D02*
X176260000Y-92220000D01*
%TO.C,JP1*%
X213342622Y-64528515D02*
X213342622Y-62528515D01*
X213342622Y-62528515D02*
X210542622Y-62528515D01*
X210542622Y-64528515D02*
X213342622Y-64528515D01*
X210542622Y-62528515D02*
X210542622Y-64528515D01*
%TO.C,JP14*%
X173830991Y-100772304D02*
X175830991Y-100772304D01*
X175830991Y-100772304D02*
X175830991Y-97972304D01*
X173830991Y-97972304D02*
X173830991Y-100772304D01*
X175830991Y-97972304D02*
X173830991Y-97972304D01*
%TO.C,JP11*%
X183785000Y-100460000D02*
X185785000Y-100460000D01*
X185785000Y-100460000D02*
X185785000Y-97660000D01*
X183785000Y-97660000D02*
X183785000Y-100460000D01*
X185785000Y-97660000D02*
X183785000Y-97660000D01*
%TO.C,JP3*%
X213342622Y-69779609D02*
X213342622Y-67779609D01*
X213342622Y-67779609D02*
X210542622Y-67779609D01*
X210542622Y-69779609D02*
X213342622Y-69779609D01*
X210542622Y-67779609D02*
X210542622Y-69779609D01*
%TO.C,JP18*%
X173720000Y-89420000D02*
X171720000Y-89420000D01*
X171720000Y-89420000D02*
X171720000Y-92220000D01*
X173720000Y-92220000D02*
X173720000Y-89420000D01*
X171720000Y-92220000D02*
X173720000Y-92220000D01*
%TD*%
%LPC*%
D15*
%TO.C,LS1*%
X189755000Y-131465000D03*
D16*
X189755000Y-133965000D03*
%TD*%
D17*
%TO.C,BZ1*%
X214884000Y-134874000D03*
D18*
X222484000Y-134874000D03*
%TD*%
D19*
%TO.C,SPI1*%
X182245000Y-116005000D03*
X182245000Y-113505000D03*
X182245000Y-111005000D03*
X182245000Y-108505000D03*
X182245000Y-106005000D03*
D20*
X182245000Y-103505000D03*
%TD*%
D19*
%TO.C,SPI2*%
X174625000Y-116005000D03*
X174625000Y-113505000D03*
X174625000Y-111005000D03*
X174625000Y-108505000D03*
X174625000Y-106005000D03*
D20*
X174625000Y-103505000D03*
%TD*%
%TO.C,I2C2_2*%
X193565000Y-111840000D03*
D19*
X193565000Y-114340000D03*
X193565000Y-116840000D03*
X193565000Y-119340000D03*
X193565000Y-121840000D03*
%TD*%
%TO.C,I2C1_1*%
X182245000Y-132065000D03*
X182245000Y-129565000D03*
X182245000Y-127065000D03*
D20*
X182245000Y-124565000D03*
%TD*%
D19*
%TO.C,I2C1_2*%
X174625000Y-132065000D03*
X174625000Y-129565000D03*
X174625000Y-127065000D03*
D20*
X174625000Y-124565000D03*
%TD*%
D21*
%TO.C,UART1*%
X173990000Y-95270000D03*
D22*
X176490000Y-95270000D03*
X178990000Y-95270000D03*
X181490000Y-95270000D03*
%TD*%
D16*
%TO.C,LS3*%
X205105000Y-133945000D03*
D15*
X205105000Y-131445000D03*
%TD*%
%TO.C,LS2*%
X197485000Y-131445000D03*
D16*
X197485000Y-133945000D03*
%TD*%
D20*
%TO.C,I2C2_1*%
X200660000Y-111760000D03*
D19*
X200660000Y-114260000D03*
X200660000Y-116760000D03*
X200660000Y-119260000D03*
X200660000Y-121760000D03*
%TD*%
D23*
%TO.C,J11*%
X198755000Y-68580000D03*
D24*
X198755000Y-62580000D03*
D25*
X194055000Y-65580000D03*
%TD*%
D26*
%TO.C,JP20*%
X179705000Y-121920000D03*
X179705000Y-120620000D03*
%TD*%
%TO.C,JP19*%
X177165000Y-121920000D03*
X177165000Y-120620000D03*
%TD*%
%TO.C,JP16*%
X198120000Y-107980000D03*
X198120000Y-106680000D03*
%TD*%
D27*
%TO.C,J5*%
X178193562Y-89861478D03*
D28*
X178193562Y-87321478D03*
%TD*%
D29*
%TO.C,J10*%
X226000000Y-119000000D03*
D19*
X226000000Y-116500000D03*
X226000000Y-114000000D03*
X226000000Y-111500000D03*
%TD*%
D29*
%TO.C,J2*%
X226000000Y-77000000D03*
D19*
X226000000Y-74500000D03*
X226000000Y-72000000D03*
X226000000Y-69500000D03*
%TD*%
D26*
%TO.C,JP15*%
X201295000Y-107980000D03*
X201295000Y-106680000D03*
%TD*%
D30*
%TO.C,J1*%
X179725000Y-69850000D03*
X182225000Y-69850000D03*
X182265000Y-67850000D03*
X179725000Y-67850000D03*
D31*
X187075000Y-65350000D03*
X174875000Y-65350000D03*
%TD*%
D32*
%TO.C,A2*%
X219502645Y-102478942D03*
D33*
X219502645Y-99938942D03*
X219502645Y-97398942D03*
X219502645Y-94858942D03*
X219502645Y-92318942D03*
X219502645Y-89778942D03*
X219502645Y-87238942D03*
X219502645Y-84698942D03*
X206802645Y-84698942D03*
X206802645Y-87238942D03*
X206802645Y-89778942D03*
X206802645Y-92318942D03*
X206802645Y-94858942D03*
X206802645Y-97398942D03*
X206802645Y-99938942D03*
X206802645Y-102478942D03*
%TD*%
D32*
%TO.C,A3*%
X219502645Y-126166442D03*
D33*
X219502645Y-123626442D03*
X219502645Y-121086442D03*
X219502645Y-118546442D03*
X219502645Y-116006442D03*
X219502645Y-113466442D03*
X219502645Y-110926442D03*
X219502645Y-108386442D03*
X206802645Y-108386442D03*
X206802645Y-110926442D03*
X206802645Y-113466442D03*
X206802645Y-116006442D03*
X206802645Y-118546442D03*
X206802645Y-121086442D03*
X206802645Y-123626442D03*
X206802645Y-126166442D03*
%TD*%
D29*
%TO.C,J9*%
X226000000Y-97269786D03*
D19*
X226000000Y-94769786D03*
X226000000Y-92269786D03*
X226000000Y-89769786D03*
%TD*%
D32*
%TO.C,A1*%
X219502645Y-78791442D03*
D33*
X219502645Y-76251442D03*
X219502645Y-73711442D03*
X219502645Y-71171442D03*
X219502645Y-68631442D03*
X219502645Y-66091442D03*
X219502645Y-63551442D03*
X219502645Y-61011442D03*
X206802645Y-61011442D03*
X206802645Y-63551442D03*
X206802645Y-66091442D03*
X206802645Y-68631442D03*
X206802645Y-71171442D03*
X206802645Y-73711442D03*
X206802645Y-76251442D03*
X206802645Y-78791442D03*
%TD*%
D26*
%TO.C,JP12*%
X182245000Y-99710000D03*
X182245000Y-98410000D03*
%TD*%
%TO.C,JP13*%
X172298881Y-100033949D03*
X172298881Y-98733949D03*
%TD*%
D34*
%TO.C,JP7*%
X212592622Y-92620424D03*
X211292622Y-92620424D03*
%TD*%
%TO.C,JP2*%
X212592622Y-66154062D03*
X211292622Y-66154062D03*
%TD*%
%TO.C,JP10*%
X212592622Y-116303824D03*
X211292622Y-116303824D03*
%TD*%
D26*
%TO.C,JP4*%
X213995000Y-129525000D03*
X213995000Y-130825000D03*
%TD*%
D34*
%TO.C,JP6*%
X212592622Y-89926645D03*
X211292622Y-89926645D03*
%TD*%
%TO.C,JP8*%
X212592622Y-110816486D03*
X211292622Y-110816486D03*
%TD*%
%TO.C,JP9*%
X212592622Y-113560155D03*
X211292622Y-113560155D03*
%TD*%
%TO.C,JP5*%
X212592622Y-87232867D03*
X211292622Y-87232867D03*
%TD*%
D26*
%TO.C,JP17*%
X175260000Y-90170000D03*
X175260000Y-91470000D03*
%TD*%
D34*
%TO.C,JP1*%
X212592622Y-63528515D03*
X211292622Y-63528515D03*
%TD*%
D26*
%TO.C,JP14*%
X174830991Y-100022304D03*
X174830991Y-98722304D03*
%TD*%
%TO.C,JP11*%
X184785000Y-99710000D03*
X184785000Y-98410000D03*
%TD*%
D34*
%TO.C,JP3*%
X212592622Y-68779609D03*
X211292622Y-68779609D03*
%TD*%
D26*
%TO.C,JP18*%
X172720000Y-90170000D03*
X172720000Y-91470000D03*
%TD*%
%LPD*%
M02*
