%TF.GenerationSoftware,KiCad,Pcbnew,7.0.6*%
%TF.CreationDate,2024-03-18T20:13:49+01:00*%
%TF.ProjectId,startrckr_pcb,73746172-7472-4636-9b72-5f7063622e6b,rev?*%
%TF.SameCoordinates,Original*%
%TF.FileFunction,Paste,Top*%
%TF.FilePolarity,Positive*%
%FSLAX46Y46*%
G04 Gerber Fmt 4.6, Leading zero omitted, Abs format (unit mm)*
G04 Created by KiCad (PCBNEW 7.0.6) date 2024-03-18 20:13:49*
%MOMM*%
%LPD*%
G01*
G04 APERTURE LIST*
G04 Aperture macros list*
%AMRoundRect*
0 Rectangle with rounded corners*
0 $1 Rounding radius*
0 $2 $3 $4 $5 $6 $7 $8 $9 X,Y pos of 4 corners*
0 Add a 4 corners polygon primitive as box body*
4,1,4,$2,$3,$4,$5,$6,$7,$8,$9,$2,$3,0*
0 Add four circle primitives for the rounded corners*
1,1,$1+$1,$2,$3*
1,1,$1+$1,$4,$5*
1,1,$1+$1,$6,$7*
1,1,$1+$1,$8,$9*
0 Add four rect primitives between the rounded corners*
20,1,$1+$1,$2,$3,$4,$5,0*
20,1,$1+$1,$4,$5,$6,$7,0*
20,1,$1+$1,$6,$7,$8,$9,0*
20,1,$1+$1,$8,$9,$2,$3,0*%
G04 Aperture macros list end*
%ADD10RoundRect,0.237500X0.237500X-0.300000X0.237500X0.300000X-0.237500X0.300000X-0.237500X-0.300000X0*%
%ADD11RoundRect,0.237500X-0.237500X0.250000X-0.237500X-0.250000X0.237500X-0.250000X0.237500X0.250000X0*%
%ADD12RoundRect,0.237500X-0.300000X-0.237500X0.300000X-0.237500X0.300000X0.237500X-0.300000X0.237500X0*%
%ADD13RoundRect,0.237500X0.237500X-0.250000X0.237500X0.250000X-0.237500X0.250000X-0.237500X-0.250000X0*%
%ADD14RoundRect,0.237500X0.300000X0.237500X-0.300000X0.237500X-0.300000X-0.237500X0.300000X-0.237500X0*%
%ADD15RoundRect,0.249999X-0.395001X-0.395001X0.395001X-0.395001X0.395001X0.395001X-0.395001X0.395001X0*%
%ADD16RoundRect,0.050000X-0.387500X-0.050000X0.387500X-0.050000X0.387500X0.050000X-0.387500X0.050000X0*%
%ADD17RoundRect,0.050000X-0.050000X-0.387500X0.050000X-0.387500X0.050000X0.387500X-0.050000X0.387500X0*%
%ADD18RoundRect,0.250000X0.450000X-0.325000X0.450000X0.325000X-0.450000X0.325000X-0.450000X-0.325000X0*%
%ADD19RoundRect,0.237500X-0.250000X-0.237500X0.250000X-0.237500X0.250000X0.237500X-0.250000X0.237500X0*%
%ADD20R,2.000000X1.500000*%
%ADD21R,2.000000X3.800000*%
%ADD22RoundRect,0.237500X0.250000X0.237500X-0.250000X0.237500X-0.250000X-0.237500X0.250000X-0.237500X0*%
%ADD23R,2.000000X2.400000*%
%ADD24RoundRect,0.150000X-0.650000X-0.150000X0.650000X-0.150000X0.650000X0.150000X-0.650000X0.150000X0*%
%ADD25RoundRect,0.250000X-0.325000X-0.450000X0.325000X-0.450000X0.325000X0.450000X-0.325000X0.450000X0*%
%ADD26RoundRect,0.237500X-0.237500X0.300000X-0.237500X-0.300000X0.237500X-0.300000X0.237500X0.300000X0*%
G04 APERTURE END LIST*
D10*
%TO.C,C3*%
X188153966Y-76544181D03*
X188153966Y-74819181D03*
%TD*%
D11*
%TO.C,R9*%
X197485000Y-81637500D03*
X197485000Y-83462500D03*
%TD*%
D12*
%TO.C,C8*%
X199570000Y-81827680D03*
X201295000Y-81827680D03*
%TD*%
%TO.C,C6*%
X199570000Y-80221623D03*
X201295000Y-80221623D03*
%TD*%
D13*
%TO.C,R4*%
X186690000Y-105052500D03*
X186690000Y-103227500D03*
%TD*%
D14*
%TO.C,C15*%
X190107930Y-99634300D03*
X188382930Y-99634300D03*
%TD*%
D15*
%TO.C,U1*%
X195220786Y-94061606D03*
X195220786Y-95661606D03*
X196820786Y-94061606D03*
X196820786Y-95661606D03*
D16*
X192583286Y-92261606D03*
X192583286Y-92661606D03*
X192583286Y-93061606D03*
X192583286Y-93461606D03*
X192583286Y-93861606D03*
X192583286Y-94261606D03*
X192583286Y-94661606D03*
X192583286Y-95061606D03*
X192583286Y-95461606D03*
X192583286Y-95861606D03*
X192583286Y-96261606D03*
X192583286Y-96661606D03*
X192583286Y-97061606D03*
X192583286Y-97461606D03*
D17*
X193420786Y-98299106D03*
X193820786Y-98299106D03*
X194220786Y-98299106D03*
X194620786Y-98299106D03*
X195020786Y-98299106D03*
X195420786Y-98299106D03*
X195820786Y-98299106D03*
X196220786Y-98299106D03*
X196620786Y-98299106D03*
X197020786Y-98299106D03*
X197420786Y-98299106D03*
X197820786Y-98299106D03*
X198220786Y-98299106D03*
X198620786Y-98299106D03*
D16*
X199458286Y-97461606D03*
X199458286Y-97061606D03*
X199458286Y-96661606D03*
X199458286Y-96261606D03*
X199458286Y-95861606D03*
X199458286Y-95461606D03*
X199458286Y-95061606D03*
X199458286Y-94661606D03*
X199458286Y-94261606D03*
X199458286Y-93861606D03*
X199458286Y-93461606D03*
X199458286Y-93061606D03*
X199458286Y-92661606D03*
X199458286Y-92261606D03*
D17*
X198620786Y-91424106D03*
X198220786Y-91424106D03*
X197820786Y-91424106D03*
X197420786Y-91424106D03*
X197020786Y-91424106D03*
X196620786Y-91424106D03*
X196220786Y-91424106D03*
X195820786Y-91424106D03*
X195420786Y-91424106D03*
X195020786Y-91424106D03*
X194620786Y-91424106D03*
X194220786Y-91424106D03*
X193820786Y-91424106D03*
X193420786Y-91424106D03*
%TD*%
D14*
%TO.C,C12*%
X190107930Y-101191451D03*
X188382930Y-101191451D03*
%TD*%
D18*
%TO.C,D2*%
X189143548Y-108113548D03*
X189143548Y-106063548D03*
%TD*%
D19*
%TO.C,R12*%
X181726062Y-82241478D03*
X183551062Y-82241478D03*
%TD*%
D10*
%TO.C,C5*%
X202679581Y-104434215D03*
X202679581Y-102709215D03*
%TD*%
D19*
%TO.C,R11*%
X177779855Y-84204657D03*
X179604855Y-84204657D03*
%TD*%
D10*
%TO.C,C4*%
X193789581Y-104434215D03*
X193789581Y-102709215D03*
%TD*%
D20*
%TO.C,U2*%
X185395000Y-79381008D03*
X185395000Y-77081008D03*
D21*
X179095000Y-77081008D03*
D20*
X185395000Y-74781008D03*
%TD*%
D13*
%TO.C,R7*%
X210820000Y-129262500D03*
X210820000Y-131087500D03*
%TD*%
D22*
%TO.C,R10*%
X197278899Y-100787512D03*
X199103899Y-100787512D03*
%TD*%
D14*
%TO.C,C17*%
X188382930Y-96520000D03*
X190107930Y-96520000D03*
%TD*%
D19*
%TO.C,R6*%
X189659193Y-91561451D03*
X187834193Y-91561451D03*
%TD*%
D11*
%TO.C,R8*%
X195580000Y-81637500D03*
X195580000Y-83462500D03*
%TD*%
D23*
%TO.C,Y1*%
X200084581Y-103571715D03*
X196384581Y-103571715D03*
%TD*%
D14*
%TO.C,C13*%
X188382930Y-98077150D03*
X190107930Y-98077150D03*
%TD*%
D24*
%TO.C,U3*%
X182647001Y-84785822D03*
X182647001Y-86055822D03*
X182647001Y-87325822D03*
X182647001Y-88595822D03*
X189847001Y-88595822D03*
X189847001Y-87325822D03*
X189847001Y-86055822D03*
X189847001Y-84785822D03*
%TD*%
D12*
%TO.C,C16*%
X199570000Y-86750607D03*
X201295000Y-86750607D03*
%TD*%
%TO.C,C14*%
X199570000Y-85090000D03*
X201295000Y-85090000D03*
%TD*%
%TO.C,C9*%
X186221062Y-82241478D03*
X187946062Y-82241478D03*
%TD*%
D18*
%TO.C,D1*%
X186690000Y-108975000D03*
X186690000Y-106925000D03*
%TD*%
D12*
%TO.C,C7*%
X199575840Y-78720725D03*
X201300840Y-78720725D03*
%TD*%
%TO.C,C10*%
X199570000Y-83441045D03*
X201295000Y-83441045D03*
%TD*%
D25*
%TO.C,D3*%
X184752847Y-91463732D03*
X182702847Y-91463732D03*
%TD*%
D26*
%TO.C,C2*%
X189795230Y-74833857D03*
X189795230Y-76558857D03*
%TD*%
D13*
%TO.C,R5*%
X189677459Y-104497284D03*
X189677459Y-102672284D03*
%TD*%
D12*
%TO.C,C11*%
X199570000Y-88396269D03*
X201295000Y-88396269D03*
%TD*%
M02*
