M48
; DRILL file {KiCad 7.0.6} date Mon Mar 18 20:13:58 2024
; FORMAT={-:-/ absolute / inch / decimal}
; #@! TF.CreationDate,2024-03-18T20:13:58+01:00
; #@! TF.GenerationSoftware,Kicad,Pcbnew,7.0.6
; #@! TF.FileFunction,Plated,1,2,PTH
FMAT,2
INCH
; #@! TA.AperFunction,Plated,PTH,ViaDrill
T1C0.0130
; #@! TA.AperFunction,Plated,PTH,ViaDrill
T2C0.0130
; #@! TA.AperFunction,Plated,PTH,ViaDrill
T3C0.0157
; #@! TA.AperFunction,Plated,PTH,ComponentDrill
T4C0.0315
; #@! TA.AperFunction,Plated,PTH,ComponentDrill
T5C0.0362
; #@! TA.AperFunction,Plated,PTH,ComponentDrill
T6C0.0374
; #@! TA.AperFunction,Plated,PTH,ComponentDrill
T7C0.0394
; #@! TA.AperFunction,Plated,PTH,ComponentDrill
T8C0.0906
%
G90
G05
T1
X7.792Y-3.9254
T2
X6.7797Y-3.8318
X6.85Y-3.675
X6.975Y-3.075
X7.2506Y-3.7744
X7.3672Y-3.9584
X7.4037Y-2.8844
X7.508Y-4.2264
X7.518Y-3.615
X7.52Y-3.832
X7.5247Y-3.7977
X7.6522Y-3.9772
X7.6661Y-4.0123
X7.6803Y-3.7694
X7.6807Y-3.7322
X7.681Y-3.6962
X7.7126Y-3.5527
X7.7168Y-3.7694
X7.7172Y-3.7322
X7.7174Y-3.6962
X7.7491Y-4.3473
X7.7533Y-3.7694
X7.7537Y-3.7322
X7.7539Y-3.6962
X7.7625Y-3.0875
X7.8138Y-3.39
X7.908Y-3.5711
X7.9219Y-3.6074
X7.9406Y-3.6407
X8.0Y-4.55
X8.35Y-5.089
X8.35Y-5.15
T3
X6.7786Y-4.023
X7.0438Y-4.6241
X7.0947Y-3.8744
X7.2754Y-3.4888
X7.3Y-2.85
X7.4859Y-3.0713
X7.525Y-2.85
X7.575Y-3.338
X7.6674Y-3.0728
X7.7404Y-3.133
T4
X8.1418Y-2.402
X8.1418Y-2.502
X8.1418Y-2.602
X8.1418Y-2.702
X8.1418Y-2.802
X8.1418Y-2.902
X8.1418Y-3.002
X8.1418Y-3.102
X8.1418Y-3.3346
X8.1418Y-3.4346
X8.1418Y-3.5346
X8.1418Y-3.6346
X8.1418Y-3.7346
X8.1418Y-3.8346
X8.1418Y-3.9346
X8.1418Y-4.0346
X8.1418Y-4.2672
X8.1418Y-4.3672
X8.1418Y-4.4672
X8.1418Y-4.5672
X8.1418Y-4.6672
X8.1418Y-4.7672
X8.1418Y-4.8672
X8.1418Y-4.9672
X8.6418Y-2.402
X8.6418Y-2.502
X8.6418Y-2.602
X8.6418Y-2.702
X8.6418Y-2.802
X8.6418Y-2.902
X8.6418Y-3.002
X8.6418Y-3.102
X8.6418Y-3.3346
X8.6418Y-3.4346
X8.6418Y-3.5346
X8.6418Y-3.6346
X8.6418Y-3.7346
X8.6418Y-3.8346
X8.6418Y-3.9346
X8.6418Y-4.0346
X8.6418Y-4.2672
X8.6418Y-4.3672
X8.6418Y-4.4672
X8.6418Y-4.5672
X8.6418Y-4.6672
X8.6418Y-4.7672
X8.6418Y-4.8672
X8.6418Y-4.9672
T5
X7.0758Y-2.6713
X7.0758Y-2.75
X7.1742Y-2.75
X7.1758Y-2.6713
T6
X6.85Y-3.7508
X6.875Y-4.075
X6.875Y-4.1734
X6.875Y-4.2719
X6.875Y-4.3703
X6.875Y-4.4687
X6.875Y-4.5671
X6.875Y-4.9041
X6.875Y-5.0026
X6.875Y-5.101
X6.875Y-5.1994
X6.9484Y-3.7508
X7.0469Y-3.7508
X7.1453Y-3.7508
X7.175Y-4.075
X7.175Y-4.1734
X7.175Y-4.2719
X7.175Y-4.3703
X7.175Y-4.4687
X7.175Y-4.5671
X7.175Y-4.9041
X7.175Y-5.0026
X7.175Y-5.101
X7.175Y-5.1994
X7.6207Y-4.4031
X7.6207Y-4.5016
X7.6207Y-4.6
X7.6207Y-4.6984
X7.6207Y-4.7969
X7.9Y-4.4
X7.9Y-4.4984
X7.9Y-4.5969
X7.9Y-4.6953
X7.9Y-4.7937
X8.8976Y-2.7362
X8.8976Y-2.8346
X8.8976Y-2.9331
X8.8976Y-3.0315
X8.8976Y-3.5342
X8.8976Y-3.6327
X8.8976Y-3.7311
X8.8976Y-3.8295
X8.8976Y-4.3898
X8.8976Y-4.4882
X8.8976Y-4.5866
X8.8976Y-4.685
T7
X7.0155Y-3.4379
X7.0155Y-3.5379
X7.4707Y-5.1758
X7.4707Y-5.2742
X7.775Y-5.175
X7.775Y-5.2734
X8.075Y-5.175
X8.075Y-5.2734
X8.46Y-5.31
X8.7592Y-5.31
T8
X6.8848Y-2.5728
X7.3652Y-2.5728
T7
G00X7.64Y-2.5425
M15
G01X7.64Y-2.6213
M16
G05
G00X7.8644Y-2.4638
M15
G01X7.7856Y-2.4638
M16
G05
G00X7.8644Y-2.7
M15
G01X7.7856Y-2.7
M16
G05
T0
M30
